<?xml version="1.0" encoding="utf-8"?>
<!-- Generator: Adobe Illustrator 25.3.1, SVG Export Plug-In . SVG Version: 6.00 Build 0)  -->
<svg version="1.1" id="Capa_1" xmlns="http://www.w3.org/2000/svg" xmlns:xlink="http://www.w3.org/1999/xlink" x="0px" y="0px"
	 viewBox="0 0 150 203.8" style="enable-background:new 0 0 150 203.8;" xml:space="preserve">
<style type="text/css">
	.st0{fill:#D0B895;}
</style>
<g>
	<g>
		<path class="st0" d="M54.3,139.6H31.2c-1,0-1.7-0.8-1.7-1.7V64.1c0-1,0.8-1.7,1.7-1.7h23.1c1,0,1.7,0.8,1.7,1.7v73.8
			C56.1,138.8,55.3,139.6,54.3,139.6z M33,136.1h19.6V65.8H33V136.1z"/>
	</g>
	<g>
		<path class="st0" d="M75.1,139.6H54.6c-1,0-1.7-0.8-1.7-1.7V50.4c0-1,0.8-1.7,1.7-1.7h20.5c1,0,1.7,0.8,1.7,1.7v87.4
			C76.8,138.8,76,139.6,75.1,139.6z M56.3,136.1h17V52.2h-17C56.3,52.2,56.3,136.1,56.3,136.1z"/>
	</g>
	<g>
		<path class="st0" d="M48.6,93.9H38.1c-1,0-1.7-0.8-1.7-1.7V81.7c0-1,0.8-1.7,1.7-1.7h10.5c1,0,1.7,0.8,1.7,1.7v10.5
			C50.3,93.1,49.5,93.9,48.6,93.9z M39.8,90.4h7v-7h-7V90.4z"/>
	</g>
	<g>
		<path class="st0" d="M53.8,76.5h-21c-1,0-1.7-0.8-1.7-1.7c0-1,0.8-1.7,1.7-1.7h21c1,0,1.7,0.8,1.7,1.7S54.8,76.5,53.8,76.5z"/>
	</g>
	<g>
		<path class="st0" d="M53.8,129h-21c-1,0-1.7-0.8-1.7-1.7s0.8-1.7,1.7-1.7h21c1,0,1.7,0.8,1.7,1.7S54.8,129,53.8,129z"/>
	</g>
	<g>
		<path class="st0" d="M54.3,122H32.6c-1,0-1.7-0.8-1.7-1.7c0-1,0.8-1.7,1.7-1.7h21.8c1,0,1.7,0.8,1.7,1.7S55.3,122,54.3,122z"/>
	</g>
	<g>
		<path class="st0" d="M74.8,69.5H54.3c-1,0-1.7-0.8-1.7-1.7c0-1,0.8-1.7,1.7-1.7h20.5c1,0,1.7,0.8,1.7,1.7S75.8,69.5,74.8,69.5z"/>
	</g>
	<g>
		<path class="st0" d="M74.8,59H55.6c-1,0-1.7-0.8-1.7-1.7c0-1,0.8-1.7,1.7-1.7h19.2c1,0,1.7,0.8,1.7,1.7S75.8,59,74.8,59z"/>
	</g>
	<g>
		<path class="st0" d="M74.8,132.5H54.6c-1,0-1.7-0.8-1.7-1.7c0-1,0.8-1.7,1.7-1.7h20.2c1,0,1.7,0.8,1.7,1.7S75.8,132.5,74.8,132.5z
			"/>
	</g>
	<g>
		<path class="st0" d="M74.8,125.5H54.6c-1,0-1.7-0.8-1.7-1.7s0.8-1.7,1.7-1.7h20.2c1,0,1.7,0.8,1.7,1.7S75.8,125.5,74.8,125.5z"/>
	</g>
	<g>
		<g>
			<path class="st0" d="M96.4,139.7c-0.3,0-0.6-0.1-0.9-0.2c-0.4-0.2-0.7-0.6-0.8-1.1L76.4,67c-0.2-0.9,0.3-1.9,1.2-2.1l22.4-5.7
				c0.4-0.1,0.9,0,1.3,0.2s0.7,0.6,0.8,1.1l18.3,71.5c0.2,0.9-0.3,1.9-1.2,2.1l-22.4,5.7C96.7,139.7,96.5,139.7,96.4,139.7z
				 M80.2,67.8l17.4,68.1l19-4.9L99.2,62.9L80.2,67.8z"/>
		</g>
		<g>
			<path class="st0" d="M80.8,78.6c-0.8,0-1.5-0.5-1.7-1.3c-0.2-0.9,0.3-1.9,1.2-2.1l22.4-5.7c0.9-0.2,1.9,0.3,2.1,1.2
				c0.2,0.9-0.3,1.9-1.2,2.1l-22.4,5.7C81,78.6,80.9,78.6,80.8,78.6z"/>
		</g>
		<g>
			<path class="st0" d="M82.5,85.3c-0.8,0-1.5-0.5-1.7-1.3c-0.2-0.9,0.3-1.9,1.3-2.1l22.4-5.6c0.9-0.2,1.9,0.3,2.1,1.3
				c0.2,0.9-0.3,1.9-1.3,2.1l-22.4,5.6C82.7,85.3,82.6,85.3,82.5,85.3z"/>
		</g>
		<g>
			<path class="st0" d="M93.8,129.5c-0.8,0-1.5-0.5-1.7-1.3c-0.2-0.9,0.3-1.9,1.2-2.1l22.4-5.7c0.9-0.2,1.9,0.3,2.1,1.2
				c0.2,0.9-0.3,1.9-1.2,2.1l-22.4,5.7C94,129.4,93.9,129.5,93.8,129.5z"/>
		</g>
	</g>
</g>
</svg>
