<?xml version="1.0" encoding="utf-8"?>
<!-- Generator: Adobe Illustrator 25.3.1, SVG Export Plug-In . SVG Version: 6.00 Build 0)  -->
<svg version="1.1" id="Capa_1" xmlns="http://www.w3.org/2000/svg" xmlns:xlink="http://www.w3.org/1999/xlink" x="0px" y="0px"
	 viewBox="0 0 150 203.8" style="enable-background:new 0 0 150 203.8;" xml:space="preserve">
<style type="text/css">
	.st0{fill:#D0B895;}
	.st1{fill:#FFFFFF;}
</style>
<g>
	<g>
		<path class="st0" d="M117.3,132.7H36c-1,0-1.7-0.8-1.7-1.7s0.8-1.7,1.7-1.7h81.3c1,0,1.7,0.8,1.7,1.7S118.2,132.7,117.3,132.7z"/>
	</g>
	<g>
		<circle class="st1" cx="90.9" cy="130.6" r="3.8"/>
		<path class="st0" d="M90.9,136.2c-3.1,0-5.6-2.5-5.6-5.6c0-3.1,2.5-5.6,5.6-5.6s5.6,2.5,5.6,5.6C96.5,133.7,94,136.2,90.9,136.2z
			 M90.9,128.5c-1.2,0-2.1,0.9-2.1,2.1c0,1.2,0.9,2.1,2.1,2.1s2.1-0.9,2.1-2.1S92.1,128.5,90.9,128.5z"/>
	</g>
	<g>
		<path class="st0" d="M77.1,111.7c-15.5,1.4-28.3-11.5-27-27c1.1-11.8,10.6-21.4,22.4-22.4c15.5-1.4,28.3,11.5,27,27
			C98.5,101.1,89,110.6,77.1,111.7z M76.8,65.8C63.5,64.6,52.4,75.7,53.6,89c0.9,10.2,9.1,18.4,19.3,19.3
			c13.3,1.2,24.4-9.9,23.2-23.2C95.2,74.9,87,66.7,76.8,65.8z"/>
	</g>
	<g>
		<path class="st0" d="M66.9,99.1c-0.3,0-0.6-0.1-0.9-0.3c-0.5-0.3-0.8-0.9-0.8-1.5v-21c0-0.6,0.3-1.2,0.9-1.5
			c0.5-0.3,1.2-0.3,1.7,0l19.8,10.6c0.6,0.3,0.9,0.9,0.9,1.5s-0.4,1.2-0.9,1.5L67.7,98.9C67.5,99,67.2,99.1,66.9,99.1z M68.7,79.2
			v15.2L83,86.9L68.7,79.2z"/>
	</g>
	<g>
		<path class="st0" d="M114.1,109.7c-0.5,0-1-0.2-1.4-0.7c-0.6-0.8-0.5-1.9,0.3-2.5c0,0,4.4-4,4.4-19.6c0-11.8-2.2-17-3.5-19
			c-0.5-0.7-0.4-1.7,0.1-2.4l0.1-0.1c0.5-0.8,1.7-0.8,2.3-0.1c1.7,2.3,4.5,8.2,4.5,21.5c0,17.3-5.1,21.9-5.7,22.3
			C114.9,109.6,114.5,109.7,114.1,109.7z"/>
	</g>
	<g>
		<path class="st0" d="M105.6,105c-0.5,0.7-1,0.6-2.1,0.1c-1.3-0.7-0.8-2-0.5-2.5c1-1.6,2.7-5.7,2.7-14.5c0-9.5-1.8-13.6-2.8-15.1
			c-0.4-0.6,0-1.8,0.5-2.3s1.8-0.5,2.4,0.4c0.4,0.6,0.8,1.3,1.2,2.3c1.4,3.5,2.1,8.4,2.1,14.6C109.3,98.2,107,103,105.6,105z"/>
	</g>
	<g>
		<path class="st0" d="M35.9,109.7c-0.4,0-0.8-0.1-1.1-0.4c-0.6-0.5-5.7-5-5.7-22.3c0-13.1,2.6-18.9,4.4-21.4c0.6-0.9,1.9-0.9,2.5,0
			l0,0c0.5,0.7,0.5,1.6,0.1,2.3c-1.2,2-3.5,7.1-3.5,19c0,15.6,4.4,19.6,4.4,19.6c0.8,0.6,0.9,1.7,0.3,2.4
			C37,109.5,36.4,109.7,35.9,109.7z"/>
	</g>
	<g>
		<path class="st0" d="M46.5,106.5c-0.4,0-0.8-0.1-1.1-0.4c-0.5-0.4-4.7-4.1-4.7-18.1c0-6.2,0.7-11.1,2.1-14.6
			c0.5-1.3,1.1-2.2,1.5-2.8c0.5-0.7,1.5-0.6,2,0c0,0,0.1,0.2,0.3,0.5c0.5,0.6,0.5,1.5,0.1,2.2c-1,1.7-2.6,5.8-2.6,14.7
			c0,12.2,3.3,15.4,3.4,15.4c0.8,0.6,0.9,1.7,0.3,2.5C47.5,106.3,47,106.5,46.5,106.5z"/>
	</g>
</g>
</svg>
