<?xml version="1.0" encoding="utf-8"?>
<!-- Generator: Adobe Illustrator 25.3.1, SVG Export Plug-In . SVG Version: 6.00 Build 0)  -->
<svg version="1.1" id="Capa_1" xmlns="http://www.w3.org/2000/svg" xmlns:xlink="http://www.w3.org/1999/xlink" x="0px" y="0px"
	 viewBox="0 0 56 31" style="enable-background:new 0 0 56 31;" xml:space="preserve">
<style type="text/css">
	.st0{fill:#D0B895;}
	.st1{fill:#FFFFFF;}
</style>
<g>
	<ellipse class="st0" cx="16.1" cy="15.5" rx="14.8" ry="15"/>
	<g>
		<path class="st1" d="M6.1,11v10.5c0,0.5,0.4,1,1,1H15v-0.1c0-0.5-0.4-1-0.9-1H8c-0.5,0-0.9-0.4-0.9-1v-9.5c0-0.3-0.2-0.5-0.5-0.5
			l0,0C6.3,10.6,6.1,10.8,6.1,11z"/>
	</g>
	<path class="st1" d="M13.1,8H8.4C8.1,8,7.9,8.2,7.9,8.5V20c0,0.3,0.2,0.5,0.5,0.5h6.7c0.3,0,0.5-0.2,0.5-0.5v-9.6
		C15.5,9.1,14.4,8,13.1,8z"/>
	<g>
		<path class="st1" d="M25.8,11v10.5c0,0.5-0.4,1-1,1H17v-0.1c0-0.5,0.4-1,0.9-1H24c0.5,0,0.9-0.4,0.9-1v-9.5c0-0.3,0.2-0.5,0.5-0.5
			l0,0C25.6,10.6,25.8,10.8,25.8,11z"/>
	</g>
	<path class="st1" d="M23.6,8h-4.7c-1.3,0-2.4,1.1-2.4,2.5V20c0,0.3,0.2,0.5,0.5,0.5h6.7c0.3,0,0.5-0.2,0.5-0.5V8.5
		C24,8.2,23.8,8,23.6,8z"/>
</g>
</svg>
