<?xml version="1.0" encoding="utf-8"?>
<!-- Generator: Adobe Illustrator 25.3.1, SVG Export Plug-In . SVG Version: 6.00 Build 0)  -->
<svg version="1.1" id="Layer_1" xmlns="http://www.w3.org/2000/svg" xmlns:xlink="http://www.w3.org/1999/xlink" x="0px" y="0px"
	 viewBox="0 0 100 100" style="enable-background:new 0 0 100 100;" xml:space="preserve">
<style type="text/css">
	.st0{fill:#D0B895;}
	.st1{fill:#FFFFFF;}
</style>
<g>
	<path class="st0" d="M50,2C23.4,2,2,23.4,2,50s21.4,48,48,48s48-21.4,48-48S76.6,2,50,2z"/>
</g>
<g>
	<path class="st1" d="M49.9,20.7c-2.4,0-4.3-1.9-4.3-4.3s1.9-4.3,4.3-4.3s4.3,1.9,4.3,4.3S52.2,20.7,49.9,20.7z M49.9,14.6
		c-1,0-1.8,0.8-1.8,1.8s0.8,1.8,1.8,1.8s1.8-0.8,1.8-1.8S50.9,14.6,49.9,14.6z"/>
</g>
<g>
	<path class="st1" d="M49.9,51.7c-0.7,0-1.2-0.6-1.2-1.2v-31c0-0.7,0.6-1.2,1.2-1.2h21.3c0.5,0,0.9,0.3,1.1,0.7
		c0.2,0.4,0.2,0.9-0.1,1.3l-6,7.9l6,7.8c0.3,0.4,0.3,0.9,0.1,1.3c-0.2,0.4-0.6,0.7-1.1,0.7H51.1v12.5C51.1,51.1,50.6,51.7,49.9,51.7
		z M51.1,35.4h17.5l-5-6.5c-0.3-0.4-0.3-1.1,0-1.5l5-6.7H51.1V35.4z"/>
</g>
<g>
	<path class="st1" d="M64.4,61.6H35.8c-0.7,0-1.2-0.6-1.2-1.2v-9.9c0-0.7,0.6-1.2,1.2-1.2h28.6c0.7,0,1.2,0.6,1.2,1.2v9.9
		C65.6,61,65.1,61.6,64.4,61.6z M37.1,59.1h26.1v-7.4H37.1V59.1z"/>
</g>
<g>
	<path class="st1" d="M71.2,70.6H29c-0.7,0-1.2-0.6-1.2-1.2v-9c0-0.7,0.6-1.2,1.2-1.2h42.2c0.7,0,1.2,0.6,1.2,1.2v9
		C72.4,70,71.9,70.6,71.2,70.6z M30.2,68.1h39.7v-6.5H30.2V68.1z"/>
</g>
<g>
	<path class="st1" d="M77.6,80.1h-55c-0.7,0-1.2-0.6-1.2-1.2v-9.5c0-0.7,0.6-1.2,1.2-1.2h55c0.7,0,1.2,0.6,1.2,1.2v9.5
		C78.8,79.5,78.3,80.1,77.6,80.1z M23.8,77.6h52.5v-7H23.8V77.6z"/>
</g>
</svg>
