<?xml version="1.0" encoding="utf-8"?>
<!-- Generator: Adobe Illustrator 25.3.1, SVG Export Plug-In . SVG Version: 6.00 Build 0)  -->
<svg version="1.1" id="Capa_1" xmlns="http://www.w3.org/2000/svg" xmlns:xlink="http://www.w3.org/1999/xlink" x="0px" y="0px"
	 viewBox="0 0 150 203.8" style="enable-background:new 0 0 150 203.8;" xml:space="preserve">
<style type="text/css">
	.st0{fill:#D0B895;}
</style>
<g>
	<g>
		<path class="st0" d="M52.1,153.6c-0.3,0-0.6-0.1-0.9-0.2c-0.5-0.3-0.8-0.9-0.8-1.5v-16.1H39.6c-5.6,0-10.2-4.6-10.2-10.2V72.8
			c0-5.6,4.6-10.2,10.2-10.2h70.8c5.6,0,10.2,4.6,10.2,10.2v52.6c0,5.6-4.6,10.2-10.2,10.2H86.2l-33.3,17.7
			C52.7,153.5,52.4,153.6,52.1,153.6z M39.6,66c-3.7,0-6.8,3-6.8,6.8v52.6c0,3.7,3,6.8,6.8,6.8h12.5c1,0,1.7,0.8,1.7,1.7v15
			L85,132.4c0.3-0.1,0.5-0.2,0.8-0.2h24.6c3.7,0,6.8-3,6.8-6.8V72.8c0-3.7-3-6.8-6.8-6.8H39.6z"/>
	</g>
	<g>
		<g>
			<path class="st0" d="M83.7,122.6c-1.9,0-3.5-0.6-4.7-1.8c-1.2-1.2-1.8-2.7-1.8-4.5c0-2.6,1.3-4.7,3.7-6c2.3-1.3,4-2.7,5.1-4.1
				c0.7-0.9,1.2-2.1,1.5-3.5c-2.5-0.3-4.8-1.4-6.9-3.4c-2.4-2.3-3.7-5.2-3.7-8.5s1.2-6.1,3.6-8.4s5.3-3.4,8.7-3.4
				c3.9,0,7.2,1.6,9.6,4.6c2.3,2.9,3.5,7.1,3.5,12.3c0,4.7-1,9.2-3,13.2s-4.4,7.3-7.3,9.7C89.2,121.3,86.3,122.6,83.7,122.6z
				 M89.3,82.5c-2.5,0-4.5,0.8-6.2,2.4s-2.5,3.5-2.5,5.8s0.8,4.2,2.5,5.9c1.7,1.7,3.6,2.5,5.6,2.5h0.8c0.5,0,1,0.2,1.3,0.6
				s0.5,0.9,0.5,1.4c-0.2,3-1.1,5.5-2.5,7.4c-1.4,1.8-3.5,3.4-6.2,5c0,0,0,0-0.1,0c-1.2,0.7-1.8,1.5-1.8,2.8c0,0.8,0.2,1.4,0.7,1.9
				c0.3,0.3,0.9,0.7,2.1,0.7c1.8,0,3.9-1,6.2-2.9c2.5-2.1,4.6-4.9,6.3-8.5c1.7-3.5,2.6-7.5,2.6-11.6c0-4.4-0.9-7.8-2.7-10.1
				C94.3,83.6,92.1,82.5,89.3,82.5z M54.3,122.6c-1.9,0-3.4-0.6-4.7-1.8c-1.2-1.2-1.8-2.7-1.8-4.5c0-2.7,1.3-4.7,3.7-6
				c2.1-1.3,3.8-2.6,5-4.1c0.8-0.9,1.3-2.1,1.6-3.5c-2.6-0.3-4.9-1.4-7-3.5c-2.4-2.4-3.6-5.2-3.6-8.5c0-3.4,1.2-6.2,3.6-8.5
				c2.4-2.2,5.3-3.4,8.7-3.4c3.9,0,7.1,1.6,9.6,4.7c2.4,3,3.6,7.1,3.6,12.3c0,4.6-1,9-2.9,13.1c-2,4.1-4.4,7.4-7.3,9.8
				C59.7,121.3,57,122.6,54.3,122.6z M59.9,82.5c-2.5,0-4.5,0.8-6.2,2.4s-2.5,3.5-2.5,5.8s0.8,4.2,2.5,5.9c1.7,1.7,3.5,2.5,5.5,2.5
				h1c0.5,0,1,0.2,1.3,0.6s0.5,0.9,0.5,1.4c-0.2,3-1.1,5.5-2.7,7.4c-1.5,1.8-3.5,3.5-6,5h-0.1c-1.2,0.6-1.7,1.5-1.7,2.8
				c0,0.8,0.2,1.4,0.8,1.9c0.5,0.5,1.2,0.8,2.1,0.8c1.7,0,3.8-1,6.1-3c2.5-2.1,4.6-5,6.3-8.6s2.6-7.5,2.6-11.5c0-4.3-0.9-7.7-2.8-10
				C64.8,83.6,62.6,82.5,59.9,82.5z"/>
		</g>
	</g>
</g>
</svg>
