<?xml version="1.0" encoding="utf-8"?>
<!-- Generator: Adobe Illustrator 25.3.1, SVG Export Plug-In . SVG Version: 6.00 Build 0)  -->
<svg version="1.1" id="Capa_1" xmlns="http://www.w3.org/2000/svg" xmlns:xlink="http://www.w3.org/1999/xlink" x="0px" y="0px"
	 viewBox="0 0 150 203.8" style="enable-background:new 0 0 150 203.8;" xml:space="preserve">
<style type="text/css">
	.st0{fill:#D0B895;}
</style>
<g>
	<g>
		<path class="st0" d="M75.1,111.3c-0.2,0-0.4,0-0.6-0.1c-0.7-0.3-1.1-0.9-1.1-1.6V51.7c0-0.7,0.4-1.3,1-1.6
			c0.1-0.1,13.8-6.3,22.7-10c9.3-3.8,18-2.3,18.4-2.2c0.8,0.2,1.4,0.9,1.4,1.7v55.8c0,0.5-0.2,1-0.7,1.4c-0.4,0.3-1,0.5-1.5,0.3
			c-0.1,0-6.7-1.3-21.2,3.6c-11.8,4.1-17.1,10-17.2,10C76.1,111.1,75.6,111.3,75.1,111.3z M76.9,52.8v52.9c2.9-2.3,8-5.6,15.6-8.3
			c10.9-3.8,17.8-4.1,20.9-4V41.1c-2.7-0.2-8.7-0.4-15,2.2C91,46.4,80.2,51.3,76.9,52.8z"/>
	</g>
	<g>
		<path class="st0" d="M87.2,64.9c-0.4,0-0.9-0.2-1.2-0.5c-0.7-0.7-0.7-1.8-0.1-2.5c0.3-0.3,7-7.3,18.6-7.3c1,0,1.7,0.8,1.7,1.7
			c0,1-0.8,1.7-1.7,1.7c-10.2,0-16,6.1-16.1,6.2C88.2,64.7,87.7,64.9,87.2,64.9z"/>
	</g>
	<g>
		<path class="st0" d="M75.1,114.5c-0.4,0-0.7-0.1-1-0.3C58,102.6,27.9,104,27.6,104c-0.5,0-0.9-0.1-1.3-0.5
			c-0.3-0.3-0.5-0.8-0.5-1.3V49.7c0-1,0.8-1.7,1.7-1.7l7.1-0.1l0,0c0.9,0,1.7,0.8,1.7,1.7c0,1-0.8,1.7-1.7,1.8l-5.4,0.1v49.1
			c2.9-0.1,8.8,0,16,0.7c13.3,1.5,23.7,4.9,31,10.1c0.8,0.6,1,1.6,0.4,2.4C76.2,114.2,75.7,114.5,75.1,114.5z"/>
	</g>
	<g>
		<path class="st0" d="M74.9,114.4c-0.5,0-1.1-0.3-1.4-0.7c-0.6-0.8-0.4-1.9,0.4-2.4c7.2-5.2,17.6-8.6,31-10.1
			c7.1-0.8,13.1-0.8,16-0.7V51.3h-5.6c-1,0-1.7-0.8-1.7-1.7s0.8-1.7,1.7-1.7h7.4c1,0,1.7,0.8,1.7,1.7v52.6c0,0.5-0.2,0.9-0.5,1.3
			c-0.3,0.3-0.8,0.5-1.3,0.5c-0.3,0-30.4-1.5-46.5,10.1C75.6,114.3,75.2,114.4,74.9,114.4z"/>
	</g>
	<g>
		<path class="st0" d="M74.6,111.3c-0.5,0-1-0.2-1.4-0.7c0-0.1-4.8-5.9-16.6-10C42.1,95.6,35,97,34.9,97c-0.5,0.1-1,0-1.4-0.4
			c-0.4-0.3-0.6-0.8-0.6-1.3V39.6c0-0.8,0.6-1.6,1.5-1.7c0.4-0.1,10.1-1.6,19.4,2.2c9,3.7,21.6,10,21.7,10.1c0.6,0.3,1,0.9,1,1.6
			v57.9c0,0.7-0.5,1.4-1.2,1.6C75,111.3,74.8,111.3,74.6,111.3z M37.7,93.4c3.7,0,10.4,0.6,20.1,4c7.4,2.6,12.3,5.8,15.1,8.1V52.7
			c-3.1-1.5-13.1-6.4-20.5-9.5c-6.4-2.6-13.1-2.4-16-2.2v52.3C36.7,93.4,37.2,93.4,37.7,93.4z"/>
	</g>
	<g>
		<path class="st0" d="M87.2,75.4c-0.4,0-0.9-0.2-1.2-0.5c-0.7-0.7-0.7-1.8-0.1-2.5c0.3-0.3,7-7.3,18.6-7.3c1,0,1.7,0.8,1.7,1.7
			s-0.8,1.7-1.7,1.7c-10.2,0-16,6.1-16.1,6.2C88.2,75.3,87.7,75.4,87.2,75.4z"/>
	</g>
	<g>
		<path class="st0" d="M87.2,86.5c-0.4,0-0.9-0.2-1.2-0.5c-0.7-0.7-0.7-1.8-0.1-2.5c0.3-0.3,7-7.3,18.6-7.3c1,0,1.7,0.8,1.7,1.7
			c0,1-0.8,1.7-1.7,1.7c-10.2,0-16,6.1-16.1,6.2C88.2,86.3,87.7,86.5,87.2,86.5z"/>
	</g>
	<g>
		<path class="st0" d="M62.5,65.4c-0.5,0-0.9-0.2-1.3-0.6c-0.1-0.1-6-6.2-16.1-6.2c-1,0-1.7-0.8-1.7-1.7c0-1,0.8-1.7,1.7-1.7
			c11.7,0,18.4,7,18.6,7.3c0.7,0.7,0.6,1.8-0.1,2.5C63.3,65.3,62.9,65.4,62.5,65.4z"/>
	</g>
	<g>
		<path class="st0" d="M62.5,76c-0.5,0-0.9-0.2-1.3-0.6c-0.1-0.1-6-6.2-16.1-6.2c-1,0-1.7-0.8-1.7-1.7s0.8-1.7,1.7-1.7
			c11.7,0,18.4,7,18.6,7.3c0.7,0.7,0.6,1.8-0.1,2.5C63.3,75.8,62.9,76,62.5,76z"/>
	</g>
	<g>
		<path class="st0" d="M62.5,86.5c-0.5,0-0.9-0.2-1.3-0.6c-0.1-0.1-6-6.2-16.1-6.2c-1,0-1.7-0.8-1.7-1.7c0-1,0.8-1.7,1.7-1.7
			c11.7,0,18.4,7,18.6,7.3c0.7,0.7,0.6,1.8-0.1,2.5C63.3,86.3,62.9,86.5,62.5,86.5z"/>
	</g>
</g>
</svg>
