<?xml version="1.0" encoding="utf-8"?>
<!-- Generator: Adobe Illustrator 25.3.1, SVG Export Plug-In . SVG Version: 6.00 Build 0)  -->
<svg version="1.1" id="Layer_1" xmlns="http://www.w3.org/2000/svg" xmlns:xlink="http://www.w3.org/1999/xlink" x="0px" y="0px"
	 viewBox="0 0 100 100" style="enable-background:new 0 0 100 100;" xml:space="preserve">
<style type="text/css">
	.st0{fill:#D0B895;}
	.st1{opacity:0.57;fill:none;stroke:#FFFFFF;stroke-width:2;stroke-miterlimit:10;enable-background:new    ;}
	
		.st2{opacity:0.57;fill:none;stroke:#FFFFFF;stroke-width:2;stroke-linecap:round;stroke-linejoin:round;stroke-miterlimit:10;enable-background:new    ;}
	.st3{fill:#FFFFFF;}
</style>
<circle class="st0" cx="50.1" cy="49.8" r="48.5"/>
<path class="st1" d="M31.9,18.3"/>
<path class="st2" d="M13.7,49.7"/>
<path class="st1" d="M50,86"/>
<path class="st2" d="M75.6,24.1"/>
<path class="st1" d="M68.4,18.5"/>
<path class="st2" d="M36.6,74.4"/>
<path class="st2" d="M42.7,76.8"/>
<path class="st2" d="M50,77.8"/>
<path class="st2" d="M77.1,42.5"/>
<path class="st2" d="M69.8,29.9"/>
<path class="st2" d="M42.6,22.7"/>
<path class="st2" d="M22.9,57"/>
<path class="st2" d="M30.2,69.6"/>
<path class="st2" d="M69.4,54.8"/>
<path class="st2" d="M69.5,44.9"/>
<path class="st3" d="M78.8,21.1c-0.4-0.4-1.1-0.4-1.5,0s-0.4,1.1,0,1.5c2.3,2.3,4.2,4.8,5.8,7.5l-5.9,3.3c-1.3-2.2-2.9-4.2-4.7-6
	l0,0l0,0l0,0c0,0-0.1-0.1-0.2-0.1s-0.1-0.1-0.2-0.1s-0.1,0-0.2,0s-0.2,0-0.2,0c-0.1,0-0.1,0-0.2,0s-0.1,0-0.2,0s-0.1,0.1-0.2,0.1
	s-0.1,0.1-0.2,0.1l-5.5,5.3c-4.1-3.7-9.5-5.9-15.3-5.9c-1.6,0-3.2,0.2-4.8,0.5L43.4,21c2.2-0.5,4.4-0.8,6.7-0.8
	c5.3,0,10.5,1.4,15.1,4.1c0.2,0.1,0.4,0.2,0.6,0.2c0.1,0,0.2,0,0.3,0c0.3-0.1,0.5-0.3,0.7-0.5l4.4-7.8c0-0.1,0-0.1,0.1-0.2
	c0-0.1,0.1-0.1,0.1-0.2c0-0.1,0-0.1,0-0.2c0-0.1,0-0.1,0-0.2c0-0.1-0.1-0.1-0.1-0.2c0-0.1-0.1-0.1-0.1-0.2l-0.1-0.1
	c-0.1-0.1-0.1-0.1-0.2-0.2C64.7,11,57.5,9.1,50.3,9.1c-7.1,0-14.1,1.9-20.3,5.4l0,0l0,0c-0.1,0-0.1,0.1-0.2,0.1s-0.1,0.1-0.2,0.1
	c0,0.1-0.1,0.1-0.1,0.2c0,0.1-0.1,0.1-0.1,0.2c0,0.1,0,0.1,0,0.2c0,0.1,0,0.1,0,0.2c0,0.1,0,0.1,0.1,0.2c0,0.1,0,0.1,0.1,0.2l0,0
	l0,0l4.7,7.8c0.2,0.3,0.6,0.5,0.9,0.5c0.2,0,0.4-0.1,0.6-0.2c0.5-0.3,0.7-1,0.4-1.5L31.9,16c5.6-3,11.8-4.6,18.2-4.6
	c6.5,0,12.9,1.7,18.6,4.8l-3.3,5.9c-4.7-2.6-9.9-3.9-15.2-3.9c-2.8,0-5.6,0.4-8.3,1.1l0,0l0,0c-0.1,0-0.1,0.1-0.2,0.1
	c-0.1,0-0.1,0.1-0.2,0.1c-0.1,0-0.1,0.1-0.1,0.2s-0.1,0.1-0.1,0.2s0,0.1-0.1,0.2c0,0.1-0.1,0.1-0.1,0.2s0,0.1,0,0.2s0,0.1,0,0.2l0,0
	l0,0l2.2,7.3c-3.2,1-6.1,2.7-8.6,4.9L23,21c-0.2-0.2-0.5-0.3-0.8-0.3s-0.6,0.1-0.8,0.3c-7.7,7.7-12,17.9-12,28.8
	c0,0.6,0.5,1.1,1.1,1.1s1.1-0.5,1.1-1.1c0-10,3.8-19.3,10.6-26.5l10.9,11.1c-3.7,4.1-6,9.5-6,15.4c0,3.9,1,7.5,2.7,10.7l-6.5,3.8
	c-0.5,0.3-0.7,1-0.4,1.5c0.2,0.3,0.6,0.5,0.9,0.5c0.2,0,0.4,0,0.5-0.1l6.5-3.8c2.9,4.4,7.2,7.7,12.3,9.3L41,79.1
	c-0.1,0.3,0,0.6,0.1,0.8c0.1,0.3,0.4,0.4,0.7,0.5c2.3,0.6,4.7,1,7.2,1.1v6.8c-9.7-0.3-18.6-4.2-25.3-10.6l4.9-4.7
	c1.9,1.8,4.1,3.4,6.4,4.6c0.2,0.1,0.3,0.1,0.5,0.1c0.4,0,0.8-0.2,1-0.6c0.3-0.5,0.1-1.2-0.4-1.5c-2.4-1.3-4.7-3-6.7-5
	c0,0-0.1-0.1-0.2-0.1s-0.1-0.1-0.2-0.1s-0.1,0-0.2,0s-0.1,0-0.2,0s-0.1,0-0.2,0s-0.1,0-0.2,0s-0.1,0.1-0.2,0.1s-0.1,0.1-0.2,0.1
	L22.1,76c-4-4.2-7.1-9.4-8.8-15.2l7.6-2.2c0.1,0,0.1-0.1,0.2-0.1s0.1-0.1,0.2-0.1s0.1-0.1,0.1-0.2c0-0.1,0.1-0.1,0.1-0.2
	c0-0.1,0-0.1,0.1-0.2c0-0.1,0.1-0.1,0.1-0.2c0-0.1,0-0.1,0-0.2c0-0.1,0-0.1,0-0.2c-0.7-2.5-1-5.1-1-7.7c0-5.3,1.4-10.6,4.2-15.1
	c0.3-0.5,0.1-1.2-0.4-1.5s-1.2-0.1-1.5,0.4c-2.9,4.9-4.5,10.5-4.5,16.3c0,2.4,0.3,4.8,0.8,7.2L11.7,59c-0.6,0.2-0.9,0.8-0.7,1.3
	c1.9,6.9,5.5,13,10.3,17.8c0,0,0,0,0,0.1c0,0,0.1,0,0.1,0.1C28.8,86,39,90.5,50.1,90.5c0.6,0,1.1-0.5,1.1-1.1v-9
	c0-0.6-0.5-1.1-1.1-1.1c-2.2,0-4.5-0.3-6.6-0.7l1.9-6.3c1.5,0.3,3.1,0.5,4.8,0.5c3.9,0,7.5-1,10.8-2.7l3.8,6.8
	c0.2,0.4,0.6,0.6,1,0.6c0.2,0,0.4,0,0.5-0.1c0.5-0.3,0.7-1,0.4-1.5l-4-6.9c4.6-3,8.1-7.7,9.6-13.4c0.2-0.6-0.2-1.2-0.8-1.3
	c-0.6-0.1-1.2,0.2-1.3,0.8c-2.4,9.2-10.6,15.6-20.1,15.6c-11.5,0-20.8-9.3-20.8-20.8s9.3-20.8,20.8-20.8c5.6,0,10.8,2.2,14.5,5.9
	l0,0l0,0c2.7,2.6,4.7,6,5.6,9.8l0,0l0,0c0,0.1,0.1,0.2,0.2,0.3l0,0c0.1,0.1,0.2,0.2,0.3,0.2c0,0,0.1,0,0.1,0.1
	c0.1,0,0.2,0.1,0.3,0.1h0.1h0.1c0.1,0,0.1,0,0.2,0c0,0,0,0,0.1,0l0,0l0,0l7.2-2.3c0.5,2.1,0.7,4.3,0.7,6.5c0,0.6,0.5,1.1,1.1,1.1
	s1.1-0.5,1.1-1.1c0-2.8-0.4-5.5-1.1-8.1l0,0l0,0c0-0.1-0.1-0.1-0.1-0.2c0-0.1-0.1-0.1-0.1-0.2l-0.1-0.1C80.2,41,80.2,41,80.1,41H80
	c-0.1,0-0.1-0.1-0.2-0.1s-0.1,0-0.2,0s-0.1,0-0.2,0l0,0l0,0L72,43.2c-1-3.4-2.8-6.4-5.1-8.9l4.7-4.5c1.6,1.7,3,3.6,4.2,5.7
	c0.2,0.4,0.6,0.6,1,0.6c0.2,0,0.4,0,0.5-0.1l6.9-3.8c2.9,5.4,4.4,11.5,4.4,17.8c0,9.8-3.7,19.1-10.4,26.2l-5-4.6
	c3.6-3.9,6.2-8.6,7.6-13.7c0.2-0.6-0.2-1.2-0.8-1.3c-0.6-0.1-1.2,0.2-1.3,0.8c-1.3,5.1-4,9.8-7.8,13.5c-0.2,0.2-0.3,0.5-0.3,0.8
	s0.1,0.6,0.4,0.8l5.8,5.3c-4.4,4.2-9.6,7.3-15.4,9l-2.1-7.6c-0.2-0.6-0.8-0.9-1.3-0.8c-0.6,0.2-0.9,0.8-0.8,1.3l2.4,8.6
	c0.1,0.5,0.6,0.8,1.1,0.8c0.1,0,0.2,0,0.3,0c6.7-1.9,13-5.6,18-10.7c7.5-7.7,11.7-17.8,11.7-28.5C90.7,39,86.5,28.8,78.8,21.1z"/>
<path class="st3" d="M56.7,37.4c-1.8-1.7-4.2-2.6-6.9-2.5c-7.7,0.4-9.7,6.9-9.7,10.4c0,2.7,1.3,4.5,2.4,6.1c1,1.5,1.9,2.7,1.9,4.7
	c0,4.2,0.5,8.7,5.9,8.7c5.1,0,5.5-4.3,5.5-8.7c0-2.1,0.9-3.5,1.9-5.1c1.1-1.6,2.3-3.5,2.3-6.3C60,42.6,59,39.6,56.7,37.4z
	 M50.3,62.6c-2.3,0-3.3-0.9-3.6-3.7h6.8C53.2,62,52.2,62.6,50.3,62.6z M55.9,49.8c-1.1,1.6-2.3,3.5-2.3,6.3c0,0.2,0,0.4,0,0.6h-7.1
	c0-0.2,0-0.4,0-0.6c0-2.6-1.2-4.4-2.3-5.9s-2-2.8-2-4.8c0-0.3,0.1-7.8,7.6-8.2c2.1-0.1,3.9,0.5,5.3,1.9c1.9,1.8,2.6,4.4,2.6,5.7
	C57.8,46.8,56.9,48.2,55.9,49.8z"/>
</svg>
