<?xml version="1.0" encoding="utf-8"?>
<!-- Generator: Adobe Illustrator 25.3.1, SVG Export Plug-In . SVG Version: 6.00 Build 0)  -->
<svg version="1.1" id="Layer_1" xmlns="http://www.w3.org/2000/svg" xmlns:xlink="http://www.w3.org/1999/xlink" x="0px" y="0px"
	 viewBox="0 0 100 100" style="enable-background:new 0 0 100 100;" xml:space="preserve">
<style type="text/css">
	.st0{fill:#D0B895;}
</style>
<g>
	<path class="st0" d="M50,2C23.4,2,2,23.4,2,50s21.4,48,48,48s48-21.4,48-48S76.6,2,50,2z M80,38.5c1.2-0.3,2.5,0.5,2.8,1.7
		s0.5,2.3,0.5,2.3c-1.2,0.3-2.3,0.5-3.5,0.8c0,3,0,6.2,0,9.3l0,0c1.2-0.3,2.5,0.5,2.8,1.7s0.5,2.3,0.5,2.3c-1.1,0.2-2.2,0.5-3.3,0.8
		c0,3.7,0,7.1,0,9.4l0,0c1.2-0.3,2.5,0.5,2.8,1.7s0.5,2.3,0.5,2.3c-13,3-26,6-38.9,8.9C43,80,41,79.9,39.7,79.5
		c-7.4-2.4-14.8-4.7-22.2-7.1c-2.3-0.7-4.2-2.3-5.3-4.5c-1.1-2.1-1.3-4.6-0.6-6.9c0.6-1.8,1.6-3.3,3-4.3c-1-0.8-1.8-1.8-2.4-2.9
		c-1.1-2.1-1.3-4.6-0.6-6.9c0.6-1.8,1.7-3.3,3-4.4c-0.9-0.8-1.7-1.7-2.3-2.8c-1.1-2.1-1.3-4.6-0.6-6.9c1.3-4,5.1-6.4,9.1-6.2
		c10.3-2,20.5-4,30.8-6c2.5-0.5,6.6-0.6,9.1-0.2c7.7,1.1,15.3,2.2,23,3.2c0.1,0,0.1,0,0.2,0c0.3,1.5,0.6,3,0.9,4.5
		c-0.1,0-2.1,0.4-5.1,1c0,2.3,0,5.7,0,9.4C79.8,38.6,79.9,38.6,80,38.5z"/>
	<path class="st0" d="M34.5,35.6c-4.2-1.4-8.5-2.9-12.7-4.3c-2.3-0.7-4.8,0.6-5.5,2.9c-0.4,1.1-0.3,2.3,0.3,3.4
		c0.5,1,1.5,1.8,2.6,2.2c7,2.2,14,4.5,21,6.7c1.2,0.4,3.2,0.5,4.5,0.2c10.5-2.4,21-4.8,31.5-7.2c0-3.7,0-7.1,0-9.5
		c-8.1,1.7-19.8,4.1-26.6,5.8C40.5,37.9,35.5,36.1,34.5,35.6z"/>
	<path class="st0" d="M39.9,51.3c-5.3-1.7-18.3-5.8-18.3-5.8c-2.3-0.7-4.8,0.5-5.5,2.9c-0.4,1.1-0.3,2.3,0.3,3.4
		c0.5,1,1.5,1.8,2.6,2.2c7,2.2,14,4.5,21,6.7c1.2,0.4,3.2,0.5,4.5,0.2c10.6-2.4,21.1-4.8,31.7-7.2c0-3,0-6.2,0-9.3
		c-10.5,2.4-21.1,4.8-31.7,7.3C43.1,51.7,41.1,51.7,39.9,51.3z"/>
	<path class="st0" d="M39.7,65.3c-5.3-1.7-18.1-5.8-18.1-5.8c-2.3-0.7-4.8,0.5-5.5,2.9c-0.4,1.1-0.3,2.3,0.3,3.4
		c0.5,1,1.5,1.8,2.6,2.2c7,2.2,14,4.5,21,6.7c1.2,0.4,3.2,0.5,4.5,0.2C54.9,72.5,65.4,70,76,67.6c0-2.2,0-5.5,0-9.4
		c-10.6,2.4-21.2,4.9-31.9,7.3C42.9,65.8,40.9,65.7,39.7,65.3z"/>
</g>
</svg>
