<?xml version="1.0" encoding="utf-8"?>
<!-- Generator: Adobe Illustrator 25.3.1, SVG Export Plug-In . SVG Version: 6.00 Build 0)  -->
<svg version="1.1" id="Capa_1" xmlns="http://www.w3.org/2000/svg" xmlns:xlink="http://www.w3.org/1999/xlink" x="0px" y="0px"
	 viewBox="0 0 150 203.8" style="enable-background:new 0 0 150 203.8;" xml:space="preserve">
<style type="text/css">
	.st0{fill:#D0B895;}
</style>
<g>
	<g>
		<path class="st0" d="M117.2,139.5H32.8c-1,0-1.8-0.8-1.8-1.8V123c0-1,0.8-1.8,1.8-1.8h84.3c1,0,1.8,0.8,1.8,1.8v14.6
			C119,138.7,118.2,139.5,117.2,139.5z M34.7,135.8h80.7v-11H34.7V135.8z"/>
	</g>
	<g>
		<path class="st0" d="M110.3,124.9h-70c-0.5,0-1-0.2-1.4-0.6c-0.3-0.4-0.5-0.9-0.4-1.5L46.9,72c0.9-5.6,5.9-9.7,11.7-9.7h33.3
			c5.8,0,10.7,4.1,11.6,9.7l8.6,50.8c0.1,0.5-0.1,1.1-0.4,1.5C111.3,124.6,110.8,124.9,110.3,124.9z M42.4,121.2h65.7l-8.3-48.7
			c-0.7-3.8-4-6.6-8-6.6H58.6c-4.1,0-7.5,2.8-8.1,6.7L42.4,121.2z"/>
	</g>
	<g>
		<path class="st0" d="M75.3,102.5c-6.2,0-11.2-5-11.2-11.2s5-11.2,11.2-11.2s11.2,5,11.2,11.2S81.4,102.5,75.3,102.5z M75.3,83.8
			c-4.2,0-7.6,3.4-7.6,7.6s3.4,7.6,7.6,7.6s7.6-3.4,7.6-7.6C82.8,87.2,79.4,83.8,75.3,83.8z"/>
	</g>
	<g>
		<path class="st0" d="M69.5,122.9c-1,0-1.8-0.8-1.8-1.8V99.3c0-1,0.8-1.8,1.8-1.8s1.8,0.8,1.8,1.8V121
			C71.3,122.1,70.5,122.9,69.5,122.9z"/>
	</g>
	<g>
		<path class="st0" d="M80.5,124.9c-1,0-1.8-0.8-1.8-1.8V99.3c0-1,0.8-1.8,1.8-1.8s1.8,0.8,1.8,1.8V123
			C82.3,124.1,81.5,124.9,80.5,124.9z"/>
	</g>
	<g>
		<path class="st0" d="M117.2,91.5h-22c-1,0-1.8-0.8-1.8-1.8s0.8-1.8,1.8-1.8h22c1,0,1.8,0.8,1.8,1.8S118.2,91.5,117.2,91.5z"/>
	</g>
	<g>
		<path class="st0" d="M54.9,91.5h-22c-1,0-1.8-0.8-1.8-1.8s0.8-1.8,1.8-1.8h22c1,0,1.8,0.8,1.8,1.8S55.9,91.5,54.9,91.5z"/>
	</g>
	<g>
		<path class="st0" d="M89.4,78.8c-0.5,0-0.9-0.2-1.3-0.5c-0.7-0.7-0.7-1.9,0-2.6l15.8-15.4c0.7-0.7,1.9-0.7,2.6,0s0.7,1.9,0,2.6
			L90.7,78.3C90.3,78.6,89.9,78.8,89.4,78.8z"/>
	</g>
	<g>
		<path class="st0" d="M75.3,73.1c-1,0-1.8-0.8-1.8-1.8v-21c0-1,0.8-1.8,1.8-1.8s1.8,0.8,1.8,1.8v20.9
			C77.1,72.2,76.3,73.1,75.3,73.1z"/>
	</g>
	<g>
		<path class="st0" d="M60.6,78.8c-0.5,0-0.9-0.2-1.3-0.5L43.5,62.9c-0.7-0.7-0.7-1.9,0-2.6c0.7-0.7,1.9-0.7,2.6,0l15.8,15.4
			c0.7,0.7,0.7,1.9,0,2.6C61.5,78.6,61,78.8,60.6,78.8z"/>
	</g>
</g>
</svg>
