<?xml version="1.0" encoding="utf-8"?>
<!-- Generator: Adobe Illustrator 25.3.1, SVG Export Plug-In . SVG Version: 6.00 Build 0)  -->
<svg version="1.1" id="Capa_1" xmlns="http://www.w3.org/2000/svg" xmlns:xlink="http://www.w3.org/1999/xlink" x="0px" y="0px"
	 viewBox="0 0 150 203.8" style="enable-background:new 0 0 150 203.8;" xml:space="preserve">
<style type="text/css">
	.st0{fill:#D0B895;}
</style>
<g>
	<g>
		<path class="st0" d="M33.7,76.2c-4.1,0-7.5-3.4-7.5-7.5s3.4-7.5,7.5-7.5s7.5,3.4,7.5,7.5S37.8,76.2,33.7,76.2z M33.7,65.1
			c-1.9,0-3.5,1.6-3.5,3.5s1.6,3.5,3.5,3.5c1.9,0,3.5-1.6,3.5-3.5S35.6,65.1,33.7,65.1z"/>
	</g>
	<g>
		<path class="st0" d="M33.7,100.6c-4.1,0-7.5-3.4-7.5-7.5s3.4-7.5,7.5-7.5s7.5,3.4,7.5,7.5C41.2,97.3,37.8,100.6,33.7,100.6z
			 M33.7,89.6c-1.9,0-3.5,1.6-3.5,3.5s1.6,3.5,3.5,3.5c1.9,0,3.5-1.6,3.5-3.5S35.6,89.6,33.7,89.6z"/>
	</g>
	<g>
		<path class="st0" d="M33.7,125.1c-4.1,0-7.5-3.4-7.5-7.5s3.4-7.5,7.5-7.5s7.5,3.4,7.5,7.5S37.8,125.1,33.7,125.1z M33.7,114.1
			c-1.9,0-3.5,1.6-3.5,3.5s1.6,3.5,3.5,3.5c1.9,0,3.5-1.6,3.5-3.5S35.6,114.1,33.7,114.1z"/>
	</g>
	<g>
		<path class="st0" d="M121.8,74.3H52.1c-1.1,0-2-0.9-2-2v-7.6c0-1.1,0.9-2,2-2h69.8c1.1,0,2,0.9,2,2v7.6
			C123.8,73.4,122.9,74.3,121.8,74.3z M54.1,70.3h65.7v-3.6H54.1V70.3z"/>
	</g>
	<g>
		<path class="st0" d="M121.8,98.8H52.1c-1.1,0-2-0.9-2-2v-7.6c0-1.1,0.9-2,2-2h69.8c1.1,0,2,0.9,2,2v7.6
			C123.8,97.9,122.9,98.8,121.8,98.8z M54.1,94.8h65.7v-3.6H54.1V94.8z"/>
	</g>
	<g>
		<path class="st0" d="M121.8,123.3H52.1c-1.1,0-2-0.9-2-2v-7.6c0-1.1,0.9-2,2-2h69.8c1.1,0,2,0.9,2,2v7.6
			C123.8,122.4,122.9,123.3,121.8,123.3z M54.1,119.2h65.7v-3.6H54.1V119.2z"/>
	</g>
</g>
</svg>
