<?xml version="1.0" encoding="utf-8"?>
<!-- Generator: Adobe Illustrator 25.3.1, SVG Export Plug-In . SVG Version: 6.00 Build 0)  -->
<svg version="1.1" id="Capa_1" xmlns="http://www.w3.org/2000/svg" xmlns:xlink="http://www.w3.org/1999/xlink" x="0px" y="0px"
	 viewBox="0 0 532.8 88.9" style="enable-background:new 0 0 532.8 88.9;" xml:space="preserve">
<style type="text/css">
	.st0{display:none;}
	.st1{display:inline;}
	.st2{fill:#D1D3D4;}
	.st3{fill:#D0B895;}
</style>
<g class="st0">
	<g class="st1">
		<path class="st2" d="M92.7,19.1c1.9,0,3.3-1.5,3.3-3.2s-1.5-3.2-3.3-3.2s-3.3,1.5-3.3,3.2S90.8,19.1,92.7,19.1 M92.7,14.1
			c1,0,1.7,0.8,1.7,1.8s-0.8,1.8-1.7,1.8c-1,0-1.7-0.8-1.7-1.8C90.9,14.8,91.7,14.1,92.7,14.1"/>
		<path class="st2" d="M92.7,12.6c1.9,0,3.3-1.5,3.3-3.2s-1.5-3.2-3.3-3.2s-3.3,1.5-3.3,3.2S90.8,12.6,92.7,12.6 M92.7,7.6
			c1,0,1.7,0.8,1.7,1.8s-0.8,1.8-1.7,1.8c-1,0-1.7-0.8-1.7-1.8C90.9,8.3,91.7,7.6,92.7,7.6"/>
		<path class="st2" d="M92.7,6.1c1.9,0,3.3-1.5,3.3-3.2s-1.5-3.2-3.3-3.2s-3.3,1.5-3.3,3.2S90.8,6.1,92.7,6.1 M92.7,1.1
			c1,0,1.7,0.8,1.7,1.8s-0.8,1.8-1.7,1.8c-1,0-1.7-0.8-1.7-1.8C90.9,1.8,91.7,1.1,92.7,1.1"/>
	</g>
	<g class="st1">
		<path class="st2" d="M19.9,38.9c0-1.9-1.5-3.3-3.2-3.3s-3.2,1.5-3.2,3.3c0,1.9,1.5,3.3,3.2,3.3S19.9,40.7,19.9,38.9 M14.8,38.9
			c0-1,0.8-1.7,1.8-1.7s1.8,0.8,1.8,1.7c0,1-0.8,1.7-1.8,1.7C15.6,40.6,14.8,39.8,14.8,38.9"/>
		<path class="st2" d="M13.4,38.9c0-1.9-1.5-3.3-3.2-3.3S6.9,37,6.9,38.9s1.5,3.3,3.2,3.3S13.4,40.7,13.4,38.9 M8.3,38.9
			c0-1,0.8-1.7,1.8-1.7s1.8,0.8,1.8,1.7c0,1-0.8,1.7-1.8,1.7C9.1,40.6,8.3,39.8,8.3,38.9"/>
		<path class="st2" d="M6.9,38.9c0-1.9-1.5-3.3-3.2-3.3S0.4,37,0.4,38.9s1.5,3.3,3.2,3.3S6.9,40.7,6.9,38.9 M1.8,38.9
			c0-1,0.8-1.7,1.8-1.7s1.8,0.8,1.8,1.7c0,1-0.8,1.7-1.8,1.7C2.6,40.6,1.8,39.8,1.8,38.9"/>
	</g>
	<g class="st1">
		<path class="st2" d="M532.9,38.9c0-1.9-1.5-3.3-3.2-3.3s-3.2,1.5-3.2,3.3c0,1.9,1.5,3.3,3.2,3.3S532.9,40.7,532.9,38.9
			 M527.8,38.9c0-1,0.8-1.7,1.8-1.7s1.8,0.8,1.8,1.7c0,1-0.8,1.7-1.8,1.7C528.6,40.6,527.8,39.8,527.8,38.9"/>
		<path class="st2" d="M526.4,38.9c0-1.9-1.5-3.3-3.2-3.3c-1.8,0-3.2,1.5-3.2,3.3s1.5,3.3,3.2,3.3S526.4,40.7,526.4,38.9
			 M521.3,38.9c0-1,0.8-1.7,1.8-1.7s1.8,0.8,1.8,1.7c0,1-0.8,1.7-1.8,1.7C522.1,40.6,521.3,39.8,521.3,38.9"/>
		<path class="st2" d="M519.9,38.9c0-1.9-1.5-3.3-3.2-3.3s-3.2,1.5-3.2,3.3c0,1.9,1.5,3.3,3.2,3.3S519.9,40.7,519.9,38.9
			 M514.8,38.9c0-1,0.8-1.7,1.8-1.7s1.8,0.8,1.8,1.7c0,1-0.8,1.7-1.8,1.7C515.6,40.6,514.8,39.8,514.8,38.9"/>
	</g>
	<g class="st1">
		<path class="st2" d="M92.7,88.7c1.9,0,3.3-1.5,3.3-3.2s-1.5-3.2-3.3-3.2s-3.3,1.5-3.3,3.2S90.8,88.7,92.7,88.7 M92.7,83.7
			c1,0,1.7,0.8,1.7,1.8s-0.8,1.8-1.7,1.8c-1,0-1.7-0.8-1.7-1.8C90.9,84.4,91.7,83.7,92.7,83.7"/>
		<path class="st2" d="M92.7,82.2c1.9,0,3.3-1.5,3.3-3.2s-1.5-3.2-3.3-3.2s-3.3,1.5-3.3,3.2S90.8,82.2,92.7,82.2 M92.7,77.2
			c1,0,1.7,0.8,1.7,1.8s-0.8,1.8-1.7,1.8c-1,0-1.7-0.8-1.7-1.8C90.9,77.9,91.7,77.2,92.7,77.2"/>
		<path class="st2" d="M92.7,75.7c1.9,0,3.3-1.5,3.3-3.2s-1.5-3.2-3.3-3.2s-3.3,1.5-3.3,3.2S90.8,75.7,92.7,75.7 M92.7,70.7
			c1,0,1.7,0.8,1.7,1.8s-0.8,1.8-1.7,1.8c-1,0-1.7-0.8-1.7-1.8C90.9,71.4,91.7,70.7,92.7,70.7"/>
	</g>
</g>
<g>
	<g>
		<path class="st3" d="M69.1,46.9c0.3,0.3,0.5,0.5,1,0.5c0.6,0,1-0.6,1-0.6l10.2-13.1c0.9-0.9,1.7-0.2,1.7-0.2
			c0.8,0.9,0.2,1.7,0.2,1.7L80.8,38l0,0c-0.2,0.2-0.3,0.5-0.3,0.8s0.1,0.5,0.3,0.7l0,0l2.3,2.9l7.3-9.2l-2.9-3.7L87,28.8
			c-0.5-0.7-1.5-0.9-1.5-0.9h-4.4c-1.1,0-1.8,0.8-1.8,0.8L67.1,44.4L69.1,46.9z"/>
		<path class="st3" d="M68.6,38.8L65.7,35c-0.6-0.9,0.3-1.7,0.3-1.7c1.1-0.7,1.7,0.3,1.7,0.3l2.4,3.1l2.8-3.7l-3.3-4.2
			c-0.8-1.1-2-1-2-1h-3.9c-1.3,0-1.8,0.8-1.8,0.8l-3.5,4.5l7.3,9.2L68.6,38.8z"/>
		<path class="st3" d="M79.9,42c0,0-0.3-0.5-1-0.5S78,42,78,42L67.6,55.2c-0.9,0.9-1.7,0.2-1.7,0.2c-0.8-0.9-0.1-1.7-0.1-1.7l2.3-3
			l0,0c0.2-0.2,0.3-0.5,0.3-0.8s-0.1-0.5-0.3-0.7l0,0l-2.3-2.9l-7.3,9.3l4,5.1h6.4l12.8-16.4L79.9,42z"/>
		<path class="st3" d="M80.4,50l2.9,3.8c0.7,0.9-0.2,1.7-0.2,1.7c-1.1,0.7-1.8-0.4-1.8-0.4L78.9,52l-2.8,3.7l4.1,5.3h6.3l4.1-5.2
			l-7.3-9.3L80.4,50z"/>
		<path class="st3" d="M90.5,41.6c-1.7,0-3,1.3-3,2.9c0,1.6,1.3,2.9,3,2.9s3-1.3,3-2.9C93.4,42.8,92.1,41.6,90.5,41.6 M90.5,46
			c-0.9,0-1.5-0.7-1.5-1.6c0-0.9,0.7-1.6,1.5-1.6c0.9,0,1.5,0.7,1.5,1.6S91.3,46,90.5,46"/>
		<path class="st3" d="M74.4,28c1.7,0,3-1.3,3-2.9s-1.3-2.9-3-2.9s-3,1.3-3,2.9C71.5,26.7,72.9,28,74.4,28 M74.4,23.6
			c0.9,0,1.5,0.7,1.5,1.6s-0.7,1.6-1.5,1.6c-0.9,0-1.5-0.7-1.5-1.6C72.9,24.3,73.6,23.6,74.4,23.6"/>
		<path class="st3" d="M61.4,44.4c0-1.6-1.3-2.9-3-2.9s-3,1.3-3,2.9c0,1.6,1.3,2.9,3,2.9S61.4,46.1,61.4,44.4 M56.9,44.4
			c0-0.9,0.7-1.6,1.5-1.6c0.9,0,1.5,0.7,1.5,1.6c0,0.9-0.7,1.6-1.5,1.6C57.6,46,56.9,45.3,56.9,44.4"/>
		<path class="st3" d="M74.5,60.9c-1.7,0-3,1.3-3,2.9c0,1.6,1.3,2.9,3,2.9s3-1.3,3-2.9C77.4,62.2,76.1,60.9,74.5,60.9 M74.5,65.3
			c-0.9,0-1.5-0.7-1.5-1.6s0.7-1.6,1.5-1.6c0.9,0,1.5,0.7,1.5,1.6C76,64.6,75.3,65.3,74.5,65.3"/>
		<path class="st3" d="M43,25.9v21.7c0,2.6-0.9,5.1-2.4,7.2c-1.3,1.8-3.2,3.4-5.5,4.8c-3.6,2.1-7.3,3.1-8.1,3.3
			c-0.8-0.2-4.4-1.2-8.1-3.3c-2.4-1.4-4.2-3-5.5-4.8c-1.7-2.2-2.4-4.6-2.4-7.3V25.9H43z M43.7,25.1H9.9v22.6
			c0,12.4,16.9,16.1,16.9,16.1l0,0c0,0,16.9-3.8,16.9-16.1C43.7,47.7,43.7,25.1,43.7,25.1z"/>
		<path class="st3" d="M30.9,32.3v-2h-2.1v1.9h-0.9v-1.9h-2.2v1.9h-0.9v-1.9h-2.2v2l1.1,1.8c0.1,0.1,0.1,0.1,0.1,0.2v9.5h1.1v-3.4
			c0-0.8,0.9-1.5,1.9-1.5s1.9,0.7,1.9,1.5v3.4h1.1v-3.6v-0.1v-1.8l0,0V37l0,0v-0.6v-2.2c0-0.1,0-0.1,0.1-0.2L30.9,32.3z"/>
		<path class="st3" d="M23.1,44.1v-3.2l-0.4,0.2c-0.1,0.1-0.3,0.1-0.5,0l-0.5-0.3c0,0,0,0,0,0.1v1.2c0,0.1-0.1,0.3-0.1,0.3
			c0.1,0,0.1,0.1,0.1,0.1c0.5,0.5,0.6,1.1,0.5,1.6C22.2,44.1,23.1,44.1,23.1,44.1z"/>
		<path class="st3" d="M26.8,39.7c-0.7,0-1.1,0.5-1.1,0.7v3.4h2.2v-3.4C27.9,40.2,27.4,39.7,26.8,39.7"/>
		<path class="st3" d="M14.2,44.1c-0.1-0.3-0.2-0.6-0.3-0.9c-0.1-0.7-0.1-1.3-0.1-1.3c0-0.2,0.1-0.3,0.3-0.4l0.9-0.3l-1.1-0.7
			c-0.1-0.1-0.2-0.2-0.2-0.3v-1.1c0-0.1,0.1-0.3,0.2-0.4l0.4-0.2v-0.4L13.9,38c-0.1-0.1-0.3-0.2-0.3-0.4v-1.4c0-0.2,0.2-0.4,0.4-0.4
			h1.3c0-0.3,0-0.8,0.1-1.2c0.1-0.5,0.4-1.1,0.5-1.3l-0.1-0.5c0-0.1,0-0.3,0.1-0.3c0.1-0.1,0.2-0.1,0.3-0.1h0.7c0.1,0,0.1,0,0.2,0.1
			l1.7,1.1h0.8c0.1,0,0.2,0.1,0.3,0.1C20,33.8,20,33.9,20,34l-0.1,1.3c0,0.1-0.1,0.2-0.1,0.3h0.5c0.1,0,0.2,0.1,0.3,0.1l0.3,0.3
			l0.2-0.1l0.3-0.7c0.1-0.1,0.2-0.3,0.4-0.3h1.3v-0.3L22,32.8c-0.1-0.1-0.1-0.1-0.1-0.2V30c0-0.2,0.2-0.4,0.4-0.4h2.6h0.9H28h0.9
			h2.6c0.2,0,0.4,0.2,0.4,0.4v2.6c0,0.1,0,0.1-0.1,0.2l-1.1,1.8v0.3h1.1c0.1,0,0.3,0.1,0.4,0.3l0.3,0.7l0.2,0.1l0.3-0.3
			c0.1-0.1,0.2-0.1,0.3-0.1h0.5c-0.1-0.1-0.1-0.2-0.1-0.3L33.6,34c0-0.1,0.1-0.2,0.1-0.3c0.1-0.1,0.2-0.1,0.3-0.1h0.8l1.7-1.1
			c0.1-0.1,0.1-0.1,0.2-0.1h0.7c0.1,0,0.3,0.1,0.3,0.1c0.1,0.1,0.1,0.2,0.1,0.3l-0.1,0.5c0.1,0.3,0.5,0.8,0.5,1.3
			c0.1,0.4,0.1,0.9,0.1,1.2h1.3c0.2,0,0.4,0.2,0.4,0.4v1.4c0,0.2-0.1,0.3-0.3,0.4h-0.3v0.4l0.4,0.2c0.1,0.1,0.2,0.2,0.2,0.4v1.1
			c0,0.1-0.1,0.3-0.2,0.3l-1.1,0.7l0.9,0.3c0.2,0.1,0.3,0.2,0.3,0.4c0,0,0,0.7-0.1,1.3c-0.1,0.4-0.1,0.7-0.3,0.9H41l0,0V28H12.6
			v16.1H14.2z"/>
		<path class="st3" d="M31.9,42.4C32,42.4,32,42.3,31.9,42.4c0-0.2,0-0.3,0-0.4v-1.2c0,0,0,0,0-0.1L31.4,41c-0.1,0.1-0.3,0.1-0.5,0
			l-0.3-0.2V44h0.9C31.3,43.6,31.4,42.9,31.9,42.4"/>
		<path class="st3" d="M37.5,52.7c-0.2,0-0.4-0.2-0.4-0.4v-2.7c0-0.2-0.1-0.5-0.3-0.7c-0.1-0.1-0.5-0.3-0.9-0.3c-0.7,0-1,0.5-1.1,1
			v2.7c0,0.1-0.1,0.2-0.1,0.3c-0.1,0.1-0.2,0.1-0.3,0.1H32c-0.2,0-0.4-0.2-0.4-0.4v-2.7c0-0.2-0.1-0.5-0.3-0.7
			c-0.1-0.1-0.5-0.3-0.9-0.3c-0.3,0-0.5,0.1-0.7,0.3l2,10.4c2.8-1.3,6.3-3.4,8.1-6.5C39.8,52.7,37.5,52.7,37.5,52.7z"/>
		<path class="st3" d="M30.9,59.5l-2.8-14.6h-2.3l-2.9,14.6v0.1c2,0.8,3.6,1.3,4,1.4C27.3,60.8,28.9,60.4,30.9,59.5L30.9,59.5"/>
		<path class="st3" d="M24.1,48.8c-0.2-0.2-0.5-0.3-0.7-0.3l0,0c-0.4,0-0.7,0.2-0.9,0.3c-0.2,0.2-0.3,0.5-0.3,0.7v2.7
			c0,0.2-0.2,0.4-0.4,0.4h-2.4c-0.1,0-0.2-0.1-0.3-0.1C19,52.4,19,52.3,19,52.2v-2.7c-0.1-0.5-0.5-1-1.1-1l0,0
			c-0.4,0-0.7,0.2-0.9,0.3c-0.2,0.2-0.3,0.5-0.3,0.7v2.7c0,0.2-0.2,0.4-0.4,0.4h-2.2c1.8,3.2,5.2,5.3,8.1,6.5L24.1,48.8z"/>
		<path class="st3" d="M41,44.9H28.8l0.6,3c0.3-0.1,0.6-0.2,0.9-0.2c0.5,0,1.1,0.2,1.5,0.6c0.3,0.3,0.5,0.8,0.5,1.3v2.3H34v-2.3
			c0,0,0,0,0-0.1c0.1-1,0.9-1.7,1.9-1.8c0.5,0,1.1,0.2,1.5,0.6c0.3,0.3,0.5,0.8,0.5,1.3v2.3h2.2c0.6-1.3,0.9-2.6,0.9-4.2L41,44.9
			L41,44.9"/>
		<path class="st3" d="M15.8,51.8v-2.3c0-0.4,0.2-0.9,0.5-1.3c0.4-0.4,0.9-0.6,1.5-0.6c1,0,1.8,0.8,1.9,1.8c0,0,0,0,0,0.1v2.3h1.7
			v-2.3c0-0.4,0.2-0.9,0.5-1.3c0.4-0.4,0.9-0.6,1.5-0.6c0.3,0,0.6,0.1,0.9,0.2l0.6-3H12.6v2.7c0,1.6,0.3,3,0.9,4.2L15.8,51.8
			L15.8,51.8z"/>
		<path class="st3" d="M16.8,43.2h0.7c0.1,0.1,0.1,0.1,0.1,0.3c0,0.1,0,0.1,0,0.2s0,0.3-0.1,0.4h-2.4c-0.3-0.3-0.5-1.2-0.5-1.9
			l1.1-0.3c0.2-0.1,0.3-0.2,0.3-0.4v-0.4c0-0.1-0.1-0.3-0.2-0.3L14.7,40v-0.7l0.4-0.2c0.1-0.1,0.2-0.2,0.2-0.4v-0.9
			c0-0.2-0.1-0.3-0.3-0.4l-0.4-0.1v-0.7h1.1l0.5,0.9v1.2l-0.3,1.1c-0.1,0.1,0,0.3,0.1,0.4c0.1,0.1,0.2,0.2,0.3,0.2h0.3
			c0.2,0,0.4-0.1,0.4-0.3s0.1-0.7,0.2-0.9s0.4-0.6,0.5-0.8c0.1-0.1,0.1-0.4,0-0.5l-1.5-1.7c0-0.3-0.1-0.9,0-1.3
			c0.1-0.5,0.4-1.1,0.5-1.2s0.1-0.2,0.1-0.3v-0.1h0.1l1.7,1.1c0.1,0.1,0.1,0.1,0.2,0.1h0.5V35l-0.5-0.1c-0.2,0.1-0.3,0.2-0.3,0.4
			v0.4c0,0.2,0.2,0.4,0.4,0.4h1.5l0.4,0.4c0.1,0.1,0.4,0.2,0.5,0.1c0,0,0.7-0.5,0.7-0.6l0.2-0.5h0.9v1V37c0,0-1.5,0.5-1.7,0.6
			c-0.1,0.1-0.1,0.5-0.1,0.7s0,0.1,0.2,0.3c0,0,0.5,0.3,0.6,0.4l0.5-0.4l0.6,0.1V40l-0.5,0.3L21,39.1c-0.2-0.1-0.4-0.1-0.6,0.1
			l-0.3,0.3C20,39.7,20,39.9,20.2,40l1,0.9v0.8l-1,0.5c-0.1,0.1-0.3,0.2-0.3,0.4v0.2c0,0.2,0.2,0.4,0.4,0.4h1.2
			c0.2,0.3,0.1,0.6,0.1,0.9h-2.8c-0.1-0.1-0.1-0.3-0.1-0.5c0-0.1,0-0.1,0-0.1c0-0.3,0-0.5,0.1-0.7l0.7-0.9c0.1-0.1,0.1-0.1,0.1-0.3
			v-0.4c0-0.1-0.1-0.3-0.2-0.3s-0.3-0.1-0.4-0.1l-1.1,0.4c-0.1,0.1-0.3,0.2-0.3,0.3L17.3,42l-0.6,0.2c-0.2,0.1-0.3,0.2-0.3,0.4v0.2
			C16.3,43,16.5,43.2,16.8,43.2"/>
		<path class="st3" d="M36.9,43.2h-0.7c-0.1,0.1-0.1,0.2-0.1,0.3s0,0.1,0,0.2s0,0.3,0.1,0.4h2.4c0.3-0.3,0.5-1.2,0.5-1.9L38,41.9
			c-0.2-0.1-0.3-0.2-0.3-0.4v-0.4c0-0.1,0.1-0.3,0.2-0.3L39,40v-0.7L38.7,39c-0.1-0.1-0.2-0.2-0.2-0.4v-0.9c0-0.2,0.1-0.3,0.3-0.4
			l0.4-0.1v-0.7h-1.1l-0.5,0.9v1.2l0.3,1.1c0.1,0.1,0,0.3-0.1,0.4c-0.1,0.1-0.2,0.2-0.3,0.2h-0.4c-0.2,0-0.4-0.1-0.4-0.3
			s-0.1-0.7-0.2-0.9c-0.1-0.2-0.4-0.6-0.5-0.8c-0.1-0.1-0.1-0.4,0-0.5l1.5-1.7c0-0.3,0.1-0.9,0-1.3c-0.1-0.5-0.4-1.1-0.5-1.2
			s-0.1-0.2-0.1-0.3v-0.1h-0.1l-1.7,1.1c-0.1,0.1-0.1,0.1-0.2,0.1h-0.5V35l0.5,0.2c0.2,0.1,0.3,0.2,0.3,0.4V36
			c0,0.2-0.2,0.4-0.4,0.4h-1.5l-0.4,0.4c-0.1,0.1-0.4,0.2-0.5,0.1c0,0-0.7-0.5-0.7-0.6l-0.3-0.5h-0.9v1v0.5c0,0,1.5,0.5,1.7,0.6
			c0.1,0.1,0.1,0.5,0.1,0.7c0,0.1,0,0.1-0.2,0.3c0,0-0.5,0.3-0.6,0.4l-0.4-0.6l-0.6,0.1v1.4l0.5,0.3l1.7-1.2
			c0.2-0.1,0.4-0.1,0.6,0.1l0.3,0.3c0.1,0.2,0.1,0.4-0.1,0.5L32.7,41v0.8l1,0.5c0.1,0.1,0.3,0.2,0.3,0.4v0.2c0,0.2-0.2,0.4-0.4,0.4
			h-1.2c-0.2,0.3-0.1,0.6-0.1,0.9h2.8c0.1-0.1,0.1-0.3,0.1-0.5c0-0.1,0-0.1,0-0.1c0-0.3,0-0.5-0.1-0.7L34.5,42
			c-0.1-0.1-0.1-0.1-0.1-0.3v-0.4c0-0.1,0.1-0.3,0.2-0.3c0.1,0,0.3-0.1,0.4-0.1l1.1,0.4c0.1,0.1,0.3,0.2,0.3,0.3l0.1,0.4l0.6,0.2
			c0.2,0.1,0.3,0.2,0.3,0.4v0.2C37.3,43,37.1,43.2,36.9,43.2"/>
		<path class="st3" d="M102.3,39.5L102.3,39.5c0-1.6,1.2-3,2.9-3c1,0,1.6,0.3,2.2,0.8l-0.4,0.5c-0.5-0.4-0.9-0.7-1.8-0.7
			c-1.3,0-2.2,1.1-2.2,2.4l0,0c0,1.4,0.9,2.4,2.3,2.4c0.7,0,1.3-0.3,1.7-0.6v-1.5h-1.8v-0.6h2.4v2.3c-0.5,0.5-1.3,0.9-2.3,0.9
			C103.4,42.5,102.3,41.2,102.3,39.5"/>
		<path class="st3" d="M109.7,39.5L109.7,39.5c0-1.6,1.2-3,3-3s2.9,1.4,2.9,3l0,0c0,1.6-1.2,3-3,3C110.9,42.5,109.7,41.1,109.7,39.5
			 M114.9,39.5L114.9,39.5c0-1.3-0.9-2.4-2.2-2.4c-1.3,0-2.2,1.1-2.2,2.4l0,0c0,1.3,0.9,2.4,2.2,2.4
			C113.9,41.9,114.9,40.9,114.9,39.5"/>
		<path class="st3" d="M117.9,36.6h2.4c0.7,0,1.2,0.2,1.5,0.5s0.4,0.5,0.4,0.9l0,0c0,0.7-0.5,1.1-0.9,1.3c0.7,0.2,1.3,0.6,1.3,1.4
			l0,0c0,1-0.9,1.6-2.1,1.6h-2.6C117.9,42.3,117.9,36.6,117.9,36.6z M121.6,38.1c0-0.6-0.5-0.9-1.3-0.9h-1.8v2h1.7
			C121,39.2,121.6,38.8,121.6,38.1L121.6,38.1z M120.3,39.8h-1.8v2h1.9c0.9,0,1.4-0.4,1.4-1.1l0,0C121.9,40.1,121.4,39.8,120.3,39.8
			"/>
		<rect x="124.9" y="36.6" class="st3" width="0.7" height="5.7"/>
		<polygon class="st3" points="128.2,36.6 132.3,36.6 132.3,37.2 128.8,37.2 128.8,39.2 131.9,39.2 131.9,39.8 128.8,39.8 
			128.8,41.8 132.3,41.8 132.3,42.4 128.2,42.4 		"/>
		<path class="st3" d="M134.5,36.6h2.5c0.7,0,1.3,0.2,1.7,0.6c0.3,0.3,0.5,0.7,0.5,1.1l0,0c0,0.9-0.7,1.5-1.6,1.7l1.8,2.4h-0.8
			l-1.7-2.2h-1.7v2.2h-0.7V36.6L134.5,36.6z M137,39.5c0.9,0,1.5-0.5,1.5-1.2l0,0c0-0.7-0.5-1.1-1.5-1.1h-1.8v2.3H137z"/>
		<polygon class="st3" points="141.5,36.6 142,36.6 145.7,41.2 145.7,36.6 146.3,36.6 146.3,42.4 145.8,42.4 142,37.7 142,42.4 
			141.5,42.4 		"/>
		<path class="st3" d="M148.6,39.5L148.6,39.5c0-1.6,1.2-3,3-3s2.9,1.4,2.9,3l0,0c0,1.6-1.2,3-3,3C149.8,42.5,148.6,41.1,148.6,39.5
			 M153.8,39.5L153.8,39.5c0-1.3-0.9-2.4-2.2-2.4s-2.2,1.1-2.2,2.4l0,0c0,1.3,0.9,2.4,2.2,2.4S153.8,40.9,153.8,39.5"/>
		<path class="st3" d="M159.8,36.6h2c1.8,0,3,1.3,3,2.8l0,0c0,1.7-1.3,2.9-3,2.9h-2V36.6z M160.5,37.2v4.6h1.3c1.5,0,2.4-1,2.4-2.2
			l0,0c0-1.3-0.9-2.3-2.4-2.3L160.5,37.2L160.5,37.2z"/>
		<polygon class="st3" points="166.9,36.6 171.1,36.6 171.1,37.2 167.6,37.2 167.6,39.2 170.8,39.2 170.8,39.8 167.6,39.8 
			167.6,41.8 171.2,41.8 171.2,42.4 166.9,42.4 		"/>
		<polygon class="st3" points="176.4,36.6 177,36.6 177,41.8 180.3,41.8 180.3,42.4 176.4,42.4 		"/>
		<path class="st3" d="M184.2,36.6h0.6l2.6,5.8h-0.7l-0.7-1.5h-3.2l-0.7,1.5h-0.7L184.2,36.6z M185.8,40.3l-1.3-2.9l-1.3,2.9H185.8z
			"/>
		<path class="st3" d="M102.2,49.4L102.2,49.4c0-1.7,1.3-3,3-3c1.1,0,1.7,0.3,2.2,0.9l-0.8,0.9c-0.5-0.4-0.9-0.7-1.5-0.7
			c-1,0-1.7,0.8-1.7,1.8l0,0c0,1,0.7,1.8,1.7,1.8c0.7,0,1.1-0.3,1.5-0.7l0.8,0.8c-0.6,0.7-1.3,1.1-2.4,1.1
			C103.4,52.3,102.2,51.1,102.2,49.4"/>
		<rect x="108.6" y="46.5" class="st3" width="1.3" height="5.7"/>
		<path class="st3" d="M111.3,49.8v-3.3h1.3v3.2c0,0.9,0.5,1.5,1.3,1.5s1.3-0.5,1.3-1.4v-3.3h1.3v3.2c0,1.7-1,2.6-2.5,2.6
			C112.3,52.3,111.3,51.5,111.3,49.8"/>
		<path class="st3" d="M117.8,46.5h2.2c1.8,0,3,1.3,3,2.8l0,0c0,1.7-1.3,2.9-3,2.9h-2.2V46.5z M120,51.2c1.1,0,1.7-0.7,1.7-1.7l0,0
			c0-1-0.7-1.7-1.7-1.7h-1v3.5L120,51.2L120,51.2z"/>
		<path class="st3" d="M125.9,46.5h1.2l2.4,5.8h-1.3l-0.5-1.3h-2.4l-0.5,1.3h-1.3L125.9,46.5z M127.2,49.8l-0.8-1.8l-0.8,1.8H127.2z
			"/>
		<path class="st3" d="M130.4,46.5h2.2c1.8,0,3,1.3,3,2.8l0,0c0,1.7-1.3,2.9-3,2.9h-2.2V46.5z M132.7,51.2c1.1,0,1.7-0.7,1.7-1.7
			l0,0c0-1-0.7-1.7-1.7-1.7h-1v3.5L132.7,51.2L132.7,51.2z"/>
		<path class="st3" d="M139.4,46.5h2.2c1.8,0,3,1.3,3,2.8l0,0c0,1.7-1.3,2.9-3,2.9h-2.2V46.5z M141.6,51.2c1.1,0,1.7-0.7,1.7-1.7
			l0,0c0-1-0.7-1.7-1.7-1.7h-1v3.5L141.6,51.2L141.6,51.2z"/>
		<polygon class="st3" points="145.9,46.5 150.3,46.5 150.3,47.7 147.2,47.7 147.2,48.8 149.9,48.8 149.9,49.9 147.2,49.9 
			147.2,51.2 150.3,51.2 150.3,52.3 145.9,52.3 		"/>
		<polygon class="st3" points="154,46.5 155.4,46.5 156.9,48.9 158.4,46.5 159.7,46.5 159.7,52.3 158.5,52.3 158.5,48.5 156.9,51 
			156.8,51 155.2,48.5 155.2,52.3 154,52.3 		"/>
		<path class="st3" d="M161.3,46.5h4.4v1.1h-3.1v1.1h2.7v1.1h-2.7V51h3.1v1.1h-4.4V46.5z M163.7,44.6l1.1,0.5l-1.1,1h-0.9
			L163.7,44.6z"/>
		<polygon class="st3" points="168.5,49.3 166.5,46.5 168.1,46.5 169.2,48.4 170.5,46.5 171.9,46.5 170,49.3 172,52.3 170.5,52.3 
			169.2,50.3 167.9,52.3 166.5,52.3 		"/>
		<rect x="172.9" y="46.5" class="st3" width="1.3" height="5.7"/>
		<path class="st3" d="M175.5,49.4L175.5,49.4c0-1.7,1.3-3,3-3c1.1,0,1.7,0.3,2.2,0.9l-0.8,0.9c-0.5-0.4-0.9-0.7-1.5-0.7
			c-1,0-1.7,0.8-1.7,1.8l0,0c0,1,0.7,1.8,1.7,1.8c0.7,0,1.1-0.3,1.5-0.7l0.8,0.8c-0.6,0.7-1.3,1.1-2.4,1.1
			C176.7,52.3,175.5,51.1,175.5,49.4"/>
		<path class="st3" d="M181.4,49.4L181.4,49.4c0-1.7,1.3-3,3.1-3s3,1.3,3,3l0,0c0,1.7-1.3,3-3.1,3S181.4,51,181.4,49.4 M186.1,49.4
			L186.1,49.4c0-1-0.7-1.8-1.7-1.8s-1.7,0.8-1.7,1.8l0,0c0,1,0.7,1.8,1.7,1.8C185.5,51.2,186.1,50.4,186.1,49.4"/>
		<rect x="196.4" y="28" class="st3" width="0.5" height="32.9"/>
		<rect x="348.7" y="28" class="st3" width="0.5" height="32.9"/>
		<path class="st3" d="M222.3,43c-0.9,0-1.7-0.7-1.7-1.7v-0.8v-0.9l0,0h0.9h0.8c0.9,0,1.7,0.7,1.7,1.7C224,42.2,223.2,43,222.3,43
			 M217.6,49.6c-0.5-0.2-1.1-0.3-1.7-0.3h-0.8h-0.9v-0.9v-0.8c0-0.6-0.1-1.1-0.3-1.7h0.3h3.2L217.6,49.6L217.6,49.6z M215.9,55.7
			c-0.9,0-1.7-0.7-1.7-1.7v-0.8v-0.9l0,0l0,0h0.9h0.8c0.9,0,1.7,0.7,1.7,1.7S216.8,55.7,215.9,55.7 M211.2,48.4v0.9l0,0l0,0h-0.9
			h-0.8c-0.9,0-1.7-0.7-1.7-1.7s0.7-1.7,1.7-1.7s1.7,0.7,1.7,1.7V48.4z M214.3,39.4c0.5,0.2,1.1,0.3,1.7,0.3h0.8h0.9v0.9v0.8
			c0,0.6,0.1,1.1,0.3,1.7h-3.5L214.3,39.4L214.3,39.4z M215.9,33.3c0.9,0,1.7,0.7,1.7,1.7v0.8v0.9l0,0h-0.9h-0.8
			c-0.9,0-1.7-0.7-1.7-1.7C214.3,34.1,215.1,33.3,215.9,33.3 M211.2,54.1c0,2.6,2.1,4.8,4.8,4.8c2.6,0,4.8-2.1,4.8-4.8V46h1.7l0,0
			c2.6,0,4.8-2.1,4.8-4.8s-2.1-4.8-4.8-4.8h-1.7v-1.7c0-2.6-2.1-4.8-4.8-4.8c-2.6,0-4.8,2.1-4.8,4.8l0,0v8h-1.7
			c-2.6,0-4.8,2.1-4.8,4.8s2.1,4.8,4.8,4.8h1.7V54.1z"/>
		<path class="st3" d="M236.7,41.1c-0.1,0.3-0.3,0.6-0.5,0.8s-0.5,0.4-0.8,0.5s-0.7,0.1-1.1,0.1c-0.8,0-1.4-0.2-1.8-0.7
			c-0.5-0.5-0.7-1.1-0.7-1.9v-3.3h1.3v3.3c0,0.5,0.1,0.9,0.3,1.1c0.2,0.3,0.5,0.3,0.9,0.3s0.7-0.1,0.9-0.3c0.2-0.3,0.3-0.6,0.3-1.1
			v-3.3h1.3v3.2C236.9,40.4,236.8,40.7,236.7,41.1"/>
		<polygon class="st3" points="242.3,42.4 239.4,38.7 239.4,42.4 238.1,42.4 238.1,36.7 239.4,36.7 242.1,40.2 242.1,36.7 
			243.4,36.7 243.4,42.4 		"/>
		<rect x="244.8" y="36.7" class="st3" width="1.3" height="5.8"/>
		<polygon class="st3" points="250.4,42.5 249.3,42.5 246.9,36.7 248.3,36.7 249.9,40.7 251.4,36.7 252.8,36.7 		"/>
		<polygon class="st3" points="253.7,42.4 253.7,36.7 258.1,36.7 258.1,37.8 254.9,37.8 254.9,38.9 257.7,38.9 257.7,40.1 
			254.9,40.1 254.9,41.3 258.1,41.3 258.1,42.4 		"/>
		<path class="st3" d="M262.8,42.4l-1.3-1.8h-1.1v1.8h-1.3v-5.8h2.7c0.7,0,1.3,0.2,1.7,0.5c0.4,0.3,0.6,0.8,0.6,1.4l0,0
			c0,0.5-0.1,0.9-0.3,1.1c-0.3,0.3-0.5,0.5-0.9,0.7l1.5,2L262.8,42.4L262.8,42.4z M262.8,38.6c0-0.3-0.1-0.5-0.3-0.6
			c-0.2-0.1-0.5-0.2-0.7-0.2h-1.3v1.7h1.3c0.3,0,0.6-0.1,0.7-0.2C262.7,39.1,262.8,38.9,262.8,38.6L262.8,38.6z"/>
		<path class="st3" d="M269.3,41.5c-0.1,0.2-0.3,0.4-0.5,0.6c-0.2,0.1-0.4,0.3-0.7,0.3c-0.3,0.1-0.5,0.1-0.9,0.1
			c-0.5,0-0.9-0.1-1.3-0.2c-0.5-0.1-0.8-0.4-1.2-0.7l0.8-0.9c0.3,0.2,0.5,0.4,0.9,0.5c0.3,0.1,0.6,0.2,0.9,0.2s0.5-0.1,0.7-0.1
			c0.1-0.1,0.2-0.2,0.2-0.4l0,0c0-0.1,0-0.1-0.1-0.2c-0.1-0.1-0.1-0.1-0.2-0.2s-0.2-0.1-0.3-0.1c-0.1-0.1-0.3-0.1-0.6-0.2
			c-0.3-0.1-0.6-0.1-0.8-0.3c-0.3-0.1-0.5-0.2-0.6-0.3c-0.2-0.1-0.3-0.3-0.4-0.5s-0.1-0.5-0.1-0.7l0,0c0-0.3,0.1-0.5,0.1-0.7
			c0.1-0.2,0.3-0.4,0.4-0.5c0.2-0.1,0.4-0.3,0.7-0.3c0.3-0.1,0.5-0.1,0.9-0.1c0.5,0,0.9,0.1,1.2,0.2c0.3,0.1,0.7,0.3,1,0.5l-0.7,1
			c-0.3-0.2-0.5-0.3-0.8-0.4c-0.3-0.1-0.5-0.1-0.7-0.1c-0.3,0-0.5,0.1-0.6,0.1c-0.1,0.1-0.2,0.2-0.2,0.3l0,0c0,0.1,0,0.2,0.1,0.3
			s0.1,0.1,0.2,0.2c0.1,0.1,0.2,0.1,0.4,0.1c0.2,0.1,0.4,0.1,0.7,0.2c0.3,0.1,0.6,0.1,0.8,0.3c0.3,0.1,0.5,0.2,0.6,0.3
			s0.3,0.3,0.4,0.5s0.1,0.4,0.1,0.7l0,0C269.5,41.1,269.4,41.2,269.3,41.5"/>
		<rect x="270.6" y="36.7" class="st3" width="1.3" height="5.8"/>
		<path class="st3" d="M278.4,40.7c-0.1,0.3-0.4,0.7-0.7,0.9c-0.3,0.3-0.6,0.5-1,0.6s-0.8,0.2-1.3,0.2h-2.3v-5.8h2.3
			c0.5,0,0.9,0.1,1.3,0.2c0.4,0.1,0.7,0.3,1,0.6s0.5,0.6,0.7,0.9c0.1,0.3,0.2,0.7,0.2,1.1l0,0C278.6,39.9,278.6,40.3,278.4,40.7
			 M277.3,39.5c0-0.3-0.1-0.5-0.1-0.7c-0.1-0.2-0.2-0.4-0.3-0.5c-0.1-0.1-0.3-0.3-0.5-0.3c-0.2-0.1-0.5-0.1-0.7-0.1h-1v3.5h1
			c0.3,0,0.5-0.1,0.7-0.1c0.2-0.1,0.4-0.2,0.5-0.3s0.3-0.3,0.3-0.5C277.3,40.1,277.3,39.8,277.3,39.5L277.3,39.5z"/>
		<path class="st3" d="M284.1,42.4l-0.5-1.3h-2.5l-0.5,1.3h-1.3l2.5-5.8h1.2l2.5,5.8H284.1z M282.3,38.1l-0.8,1.8h1.6L282.3,38.1z"
			/>
		<path class="st3" d="M291.5,40.7c-0.1,0.3-0.4,0.7-0.7,0.9c-0.3,0.3-0.6,0.5-1,0.6s-0.8,0.2-1.3,0.2h-2.3v-5.8h2.3
			c0.5,0,0.9,0.1,1.3,0.2c0.4,0.1,0.7,0.3,1,0.6s0.5,0.6,0.7,0.9c0.1,0.3,0.2,0.7,0.2,1.1l0,0C291.7,39.9,291.6,40.3,291.5,40.7
			 M290.4,39.5c0-0.3-0.1-0.5-0.1-0.7c-0.1-0.2-0.2-0.4-0.3-0.5s-0.3-0.3-0.5-0.3c-0.2-0.1-0.5-0.1-0.7-0.1h-1v3.5h1
			c0.3,0,0.5-0.1,0.7-0.1c0.2-0.1,0.4-0.2,0.5-0.3s0.3-0.3,0.3-0.5C290.3,40.1,290.4,39.8,290.4,39.5L290.4,39.5z"/>
		<path class="st3" d="M235.5,52.1l-1.3-1.8h-1v1.8h-1.3v-5.8h2.7c0.7,0,1.3,0.2,1.7,0.5s0.6,0.8,0.6,1.4l0,0c0,0.5-0.1,0.9-0.3,1.1
			c-0.3,0.3-0.5,0.5-0.9,0.7l1.5,2L235.5,52.1L235.5,52.1z M235.5,48.4c0-0.3-0.1-0.5-0.3-0.6s-0.5-0.2-0.7-0.2h-1.3v1.7h1.3
			c0.3,0,0.6-0.1,0.7-0.2C235.4,48.8,235.5,48.6,235.5,48.4L235.5,48.4z"/>
		<path class="st3" d="M243.6,50.4c-0.1,0.3-0.4,0.7-0.7,0.9c-0.3,0.3-0.6,0.5-1,0.7c-0.4,0.1-0.8,0.3-1.3,0.3s-0.9-0.1-1.3-0.3
			c-0.4-0.1-0.7-0.4-1-0.7s-0.5-0.6-0.7-0.9c-0.1-0.3-0.3-0.7-0.3-1.2l0,0c0-0.4,0.1-0.8,0.3-1.2c0.1-0.3,0.4-0.7,0.7-0.9
			c0.3-0.3,0.6-0.5,1-0.7c0.4-0.1,0.8-0.3,1.3-0.3s0.9,0.1,1.3,0.3c0.4,0.1,0.7,0.4,1,0.7s0.5,0.6,0.7,0.9c0.2,0.3,0.3,0.7,0.3,1.2
			l0,0C243.8,49.7,243.8,50.1,243.6,50.4 M242.5,49.3c0-0.3-0.1-0.5-0.1-0.7c-0.1-0.2-0.2-0.4-0.4-0.6c-0.1-0.1-0.3-0.3-0.6-0.4
			c-0.2-0.1-0.5-0.1-0.7-0.1c-0.3,0-0.5,0.1-0.7,0.1c-0.2,0.1-0.4,0.2-0.5,0.4c-0.1,0.1-0.3,0.3-0.3,0.6c-0.1,0.2-0.1,0.5-0.1,0.7
			l0,0c0,0.3,0.1,0.5,0.1,0.7c0.1,0.2,0.2,0.4,0.4,0.6c0.1,0.1,0.3,0.3,0.6,0.4c0.2,0.1,0.5,0.1,0.7,0.1c0.3,0,0.5-0.1,0.7-0.1
			c0.2-0.1,0.4-0.2,0.5-0.4c0.1-0.1,0.3-0.3,0.3-0.6C242.5,49.8,242.5,49.6,242.5,49.3L242.5,49.3z"/>
		<path class="st3" d="M249,51.2c-0.1,0.2-0.3,0.4-0.5,0.6c-0.2,0.1-0.4,0.3-0.7,0.3c-0.3,0.1-0.5,0.1-0.9,0.1
			c-0.5,0-0.9-0.1-1.3-0.2c-0.5-0.1-0.8-0.4-1.2-0.7l0.8-0.9c0.3,0.2,0.5,0.4,0.9,0.5c0.3,0.1,0.6,0.2,0.9,0.2
			c0.3,0,0.5-0.1,0.7-0.1c0.1-0.1,0.2-0.2,0.2-0.4l0,0c0-0.1,0-0.1-0.1-0.2c0-0.1-0.1-0.1-0.2-0.2c-0.1-0.1-0.2-0.1-0.3-0.1
			c-0.1-0.1-0.3-0.1-0.6-0.2c-0.3-0.1-0.6-0.1-0.8-0.3c-0.3-0.1-0.5-0.2-0.6-0.3c-0.2-0.1-0.3-0.3-0.4-0.5c-0.1-0.2-0.1-0.5-0.1-0.7
			l0,0c0-0.3,0.1-0.5,0.1-0.7s0.3-0.4,0.4-0.5c0.2-0.1,0.4-0.3,0.7-0.3c0.3-0.1,0.5-0.1,0.9-0.1c0.5,0,0.9,0.1,1.2,0.2
			c0.3,0.1,0.7,0.3,1,0.5l-0.7,1c-0.3-0.2-0.5-0.3-0.8-0.4s-0.5-0.1-0.7-0.1c-0.3,0-0.5,0.1-0.6,0.1c-0.1,0.1-0.2,0.2-0.2,0.3l0,0
			c0,0.1,0,0.2,0.1,0.3s0.1,0.1,0.2,0.2s0.2,0.1,0.4,0.1s0.4,0.1,0.7,0.2c0.3,0.1,0.6,0.1,0.8,0.3c0.2,0.1,0.5,0.2,0.6,0.3
			s0.3,0.3,0.3,0.5c0.1,0.2,0.1,0.4,0.1,0.7l0,0C249.2,50.8,249.1,51,249,51.2"/>
		<path class="st3" d="M254.6,52.1l-0.5-1.3h-2.5l-0.5,1.3h-1.3l2.5-5.8h1.2l2.5,5.8H254.6z M252.8,47.8l-0.8,1.8h1.6L252.8,47.8z"
			/>
		<path class="st3" d="M260.4,52.1l-1.3-1.8h-1v1.8h-1.3v-5.8h2.7c0.7,0,1.3,0.2,1.7,0.5c0.4,0.3,0.6,0.8,0.6,1.4l0,0
			c0,0.5-0.1,0.9-0.3,1.1c-0.3,0.3-0.5,0.5-0.9,0.7l1.5,2L260.4,52.1L260.4,52.1z M260.4,48.4c0-0.3-0.1-0.5-0.3-0.6
			c-0.2-0.1-0.5-0.2-0.7-0.2h-1.3v1.7h1.3c0.3,0,0.6-0.1,0.7-0.2C260.3,48.8,260.4,48.6,260.4,48.4L260.4,48.4z"/>
		<rect x="262.9" y="46.4" class="st3" width="1.3" height="5.8"/>
		<path class="st3" d="M271.3,50.4c-0.1,0.3-0.4,0.7-0.7,0.9c-0.3,0.3-0.6,0.5-1,0.7c-0.4,0.1-0.8,0.3-1.3,0.3s-0.9-0.1-1.3-0.3
			c-0.4-0.1-0.7-0.4-1-0.7s-0.5-0.6-0.7-0.9c-0.1-0.3-0.3-0.7-0.3-1.2l0,0c0-0.4,0.1-0.8,0.3-1.2c0.1-0.3,0.4-0.7,0.7-0.9
			c0.3-0.3,0.6-0.5,1-0.7c0.4-0.1,0.8-0.3,1.3-0.3s0.9,0.1,1.3,0.3c0.4,0.1,0.7,0.4,1,0.7s0.5,0.6,0.7,0.9c0.2,0.3,0.3,0.7,0.3,1.2
			l0,0C271.5,49.7,271.4,50.1,271.3,50.4 M270.2,49.3c0-0.3-0.1-0.5-0.1-0.7c-0.1-0.2-0.2-0.4-0.4-0.6c-0.1-0.1-0.3-0.3-0.6-0.4
			c-0.2-0.1-0.5-0.1-0.7-0.1s-0.5,0.1-0.7,0.1c-0.2,0.1-0.4,0.2-0.5,0.4c-0.1,0.1-0.3,0.3-0.3,0.6c-0.1,0.2-0.1,0.5-0.1,0.7l0,0
			c0,0.3,0.1,0.5,0.1,0.7c0.1,0.2,0.2,0.4,0.4,0.6c0.1,0.1,0.3,0.3,0.6,0.4c0.2,0.1,0.5,0.1,0.7,0.1c0.3,0,0.5-0.1,0.7-0.1
			s0.4-0.2,0.5-0.4c0.1-0.1,0.3-0.3,0.3-0.6C270.1,49.8,270.2,49.6,270.2,49.3L270.2,49.3z"/>
		<path class="st3" d="M279.7,51.7c-0.1,0.1-0.3,0.3-0.5,0.3c-0.2,0.1-0.4,0.1-0.7,0.2c-0.2,0.1-0.5,0.1-0.8,0.1
			c-0.5,0-0.9-0.1-1.2-0.2c-0.4-0.1-0.7-0.4-1-0.7s-0.5-0.6-0.7-0.9c-0.1-0.4-0.2-0.7-0.2-1.2l0,0c0-0.4,0.1-0.8,0.2-1.2
			c0.1-0.3,0.3-0.7,0.7-0.9c0.3-0.3,0.6-0.5,1-0.7c0.4-0.1,0.8-0.3,1.3-0.3c0.3,0,0.5,0,0.7,0.1s0.5,0.1,0.6,0.2
			c0.2,0.1,0.3,0.2,0.5,0.3c0.1,0.1,0.3,0.3,0.5,0.4l-0.9,0.9c-0.2-0.2-0.5-0.3-0.7-0.5s-0.5-0.2-0.8-0.2s-0.5,0.1-0.7,0.1
			c-0.2,0.1-0.4,0.2-0.5,0.4c-0.1,0.1-0.3,0.3-0.3,0.6s-0.1,0.5-0.1,0.8l0,0c0,0.3,0.1,0.5,0.1,0.7c0.1,0.2,0.2,0.4,0.3,0.6
			c0.1,0.1,0.3,0.3,0.5,0.4c0.2,0.1,0.5,0.1,0.7,0.1c0.3,0,0.6-0.1,0.9-0.2c0.3-0.1,0.5-0.3,0.7-0.5l0.9,0.8
			C280,51.4,279.9,51.5,279.7,51.7"/>
		<path class="st3" d="M285.5,52.1l-0.5-1.3h-2.5l-0.5,1.3h-1.3l2.5-5.8h1.2l2.5,5.8H285.5z M283.7,47.8l-0.8,1.8h1.6L283.7,47.8z"
			/>
		<path class="st3" d="M291.8,51.2c-0.1,0.2-0.3,0.4-0.5,0.6c-0.2,0.1-0.4,0.3-0.7,0.3c-0.3,0.1-0.5,0.1-0.9,0.1
			c-0.5,0-0.9-0.1-1.3-0.2c-0.5-0.1-0.8-0.4-1.2-0.7l0.8-0.9c0.3,0.2,0.5,0.4,0.9,0.5c0.3,0.1,0.6,0.2,0.9,0.2s0.5-0.1,0.7-0.1
			c0.1-0.1,0.2-0.2,0.2-0.4l0,0c0-0.1,0-0.1-0.1-0.2c0-0.1-0.1-0.1-0.2-0.2c-0.1-0.1-0.2-0.1-0.3-0.1c-0.1-0.1-0.3-0.1-0.6-0.2
			c-0.3-0.1-0.6-0.1-0.8-0.3c-0.3-0.1-0.5-0.2-0.6-0.3c-0.2-0.1-0.3-0.3-0.4-0.5s-0.1-0.5-0.1-0.7l0,0c0-0.3,0.1-0.5,0.1-0.7
			c0.1-0.2,0.3-0.4,0.4-0.5c0.2-0.1,0.4-0.3,0.7-0.3c0.3-0.1,0.5-0.1,0.9-0.1c0.5,0,0.9,0.1,1.2,0.2c0.3,0.1,0.7,0.3,1,0.5l-0.7,1
			c-0.3-0.2-0.5-0.3-0.8-0.4s-0.5-0.1-0.7-0.1c-0.3,0-0.5,0.1-0.6,0.1c-0.1,0.1-0.2,0.2-0.2,0.3l0,0c0,0.1,0,0.2,0.1,0.3
			s0.1,0.1,0.2,0.2s0.2,0.1,0.4,0.1c0.2,0,0.4,0.1,0.7,0.2c0.3,0.1,0.6,0.1,0.8,0.3c0.2,0.1,0.5,0.2,0.6,0.3s0.3,0.3,0.3,0.5
			c0.1,0.2,0.1,0.4,0.1,0.7l0,0C292,50.8,291.9,51,291.8,51.2"/>
		<polygon class="st3" points="295.7,47.6 295.7,52.1 294.4,52.1 294.4,47.6 292.6,47.6 292.6,46.4 297.5,46.4 297.5,47.6 		"/>
		<polygon class="st3" points="298.4,52.1 298.4,46.4 302.8,46.4 302.8,47.5 299.6,47.5 299.6,48.7 302.4,48.7 302.4,49.8 
			299.6,49.8 299.6,51 302.9,51 302.9,52.1 		"/>
		<polygon class="st3" points="303.9,52.1 303.9,46.4 305.2,46.4 305.2,51 308.1,51 308.1,52.1 		"/>
		<polygon class="st3" points="309,52.1 309,46.4 310.3,46.4 310.3,51 313.3,51 313.3,52.1 		"/>
		<path class="st3" d="M318.5,52.1l-0.5-1.3h-2.5l-0.5,1.3h-1.3l2.5-5.8h1.2l2.5,5.8H318.5z M316.7,47.8l-0.8,1.8h1.6L316.7,47.8z"
			/>
		<polygon class="st3" points="324.9,52.1 322,48.5 322,52.1 320.7,52.1 320.7,46.4 321.9,46.4 324.7,50 324.7,46.4 326,46.4 
			326,52.1 		"/>
		<path class="st3" d="M333,50.4c-0.1,0.3-0.4,0.7-0.7,0.9c-0.3,0.2-0.6,0.5-1,0.7c-0.4,0.1-0.8,0.3-1.3,0.3s-0.9-0.1-1.3-0.3
			c-0.4-0.1-0.7-0.4-1-0.7s-0.5-0.6-0.7-0.9c-0.1-0.3-0.3-0.7-0.3-1.2l0,0c0-0.4,0.1-0.8,0.3-1.2c0.1-0.3,0.4-0.7,0.7-0.9
			c0.3-0.3,0.6-0.5,1-0.7c0.4-0.1,0.8-0.3,1.3-0.3s0.9,0.1,1.3,0.3c0.4,0.1,0.7,0.4,1,0.7s0.5,0.6,0.7,0.9c0.1,0.3,0.3,0.7,0.3,1.2
			l0,0C333.3,49.7,333.2,50.1,333,50.4 M331.9,49.3c0-0.3-0.1-0.5-0.1-0.7c-0.1-0.2-0.2-0.4-0.4-0.6c-0.2-0.2-0.3-0.3-0.6-0.4
			c-0.2-0.1-0.5-0.1-0.7-0.1s-0.5,0.1-0.7,0.1c-0.2,0.1-0.4,0.2-0.5,0.4c-0.1,0.1-0.3,0.3-0.3,0.6c-0.1,0.2-0.1,0.5-0.1,0.7l0,0
			c0,0.3,0.1,0.5,0.1,0.7c0.1,0.2,0.2,0.4,0.4,0.6c0.1,0.1,0.3,0.3,0.6,0.4c0.2,0.1,0.5,0.1,0.7,0.1s0.5-0.1,0.7-0.1
			c0.2-0.1,0.4-0.2,0.5-0.4c0.1-0.1,0.3-0.3,0.3-0.6C331.9,49.8,331.9,49.6,331.9,49.3L331.9,49.3z"/>
		<path class="st3" d="M338.5,51.2c-0.1,0.2-0.3,0.4-0.5,0.6c-0.2,0.1-0.4,0.3-0.7,0.3c-0.3,0.1-0.5,0.1-0.9,0.1
			c-0.5,0-0.9-0.1-1.3-0.2c-0.5-0.1-0.8-0.4-1.2-0.7l0.8-0.9c0.3,0.2,0.5,0.4,0.9,0.5c0.3,0.1,0.6,0.2,0.9,0.2s0.5-0.1,0.7-0.1
			c0.1-0.1,0.2-0.2,0.2-0.4l0,0c0-0.1,0-0.1-0.1-0.2c0-0.1-0.1-0.1-0.2-0.2c-0.1-0.1-0.2-0.1-0.3-0.1c-0.1-0.1-0.3-0.1-0.6-0.2
			c-0.3-0.1-0.6-0.1-0.8-0.3c-0.3-0.1-0.5-0.2-0.6-0.3c-0.2-0.1-0.3-0.3-0.4-0.5s-0.1-0.5-0.1-0.7l0,0c0-0.3,0.1-0.5,0.1-0.7
			c0.1-0.2,0.3-0.4,0.4-0.5c0.2-0.1,0.4-0.3,0.7-0.3c0.3-0.1,0.5-0.1,0.9-0.1c0.5,0,0.9,0.1,1.2,0.2c0.3,0.1,0.7,0.3,1,0.5l-0.7,1
			c-0.3-0.2-0.5-0.3-0.8-0.4s-0.5-0.1-0.7-0.1c-0.3,0-0.5,0.1-0.6,0.1c-0.1,0.1-0.2,0.2-0.2,0.3l0,0c0,0.1,0,0.2,0.1,0.3
			s0.1,0.1,0.2,0.2s0.2,0.1,0.4,0.1c0.2,0.1,0.4,0.1,0.7,0.2c0.3,0.1,0.6,0.1,0.8,0.3c0.2,0.1,0.5,0.2,0.6,0.3s0.3,0.3,0.4,0.5
			s0.1,0.4,0.1,0.7l0,0C338.6,50.8,338.6,51,338.5,51.2"/>
	</g>
</g>
<g>
	<path class="st3" d="M426.9,29c-2.8-2.3-6.3-3.8-10-4.3c-3.6-0.5-7.4,0.1-10.7,1.4c-2.4,1-4.7,2.5-6.6,4.4
		c-1.6,1.6-3.2,3.1-4.8,4.6c-1.7-0.9-3.5-1.7-5.4-2.3c-1.6-0.5-3.3-0.8-5-0.8c-1.5,0-3,0.2-4.4,0.7c-0.6,0.2-1.2,0.4-1.7,0.7
		c-1.1,0.2-2.2,0.5-3.2,1c-0.1,0-0.1,0.1-0.2,0.1c-0.4,0.1-0.8,0.1-1.1,0.2c-0.8,0.2-1.5,0.5-2.3,0.9c-0.9,0.1-1.8,0.4-2.6,0.7
		c-0.3,0.1-0.6,0.2-0.8,0.4c-0.1,0-0.3,0-0.4,0.1c-1,0.2-2.1,0.5-3,0.9c-0.6,0.1-1.2,0.2-1.8,0.3c-0.9,0.3-1.8,0.6-2.6,1.2
		c-0.6,0.4-1.2,1-1.6,1.6c-0.4,0.6-0.6,1.2-0.8,1.9c-0.1,0.7-0.1,1.4,0,2c0.2,0.7,0.5,1.4,0.9,2c0.4,0.7,1,1.2,1.7,1.7
		c0.8,0.5,1.6,0.9,2.5,1.2c0.7,0.2,1.4,0.3,2.1,0.4c0.8,0.4,1.7,0.7,2.6,0.9c0.3,0.1,0.6,0.1,0.9,0.1c0.2,0.1,0.5,0.2,0.7,0.3
		c0.9,0.4,1.8,0.6,2.8,0.8c0.6,0.3,1.3,0.6,2,0.8c0.5,0.1,0.9,0.2,1.4,0.3c0,0,0.1,0,0.1,0.1c1,0.6,2.2,0.9,3.3,1.1
		c0.5,0.3,1,0.5,1.6,0.7c1.3,0.5,2.7,0.7,4.1,0.7c1.7,0,3.5-0.3,5.2-0.7c1.6-0.4,3.1-1,4.5-1.7c1.4,1.3,2.8,2.6,4.2,4
		c0.7,0.7,1.4,1.4,2.1,2c0.7,0.6,1.5,1.2,2.3,1.7c1.5,1,3.2,1.8,5,2.3c3.5,1.1,7.2,1.1,10.7,0.3c3.7-0.9,7-2.7,9.7-5.4
		c2.6-2.6,4.5-6,5.4-9.6c0.8-3.5,0.7-7.3-0.5-10.7C432,34.6,429.8,31.4,426.9,29z M394.7,35.5c0.3,0.2,0.6,0.3,0.8,0.5
		c0.6,0.3,1.1,0.7,1.6,1c-0.6,0.6-1.2,1.1-1.9,1.6c-0.1-0.1-0.2-0.1-0.3-0.2c-0.7-0.5-1.4-0.9-2.2-1.3
		C393.5,36.6,394.1,36.1,394.7,35.5C394.7,35.6,394.7,35.6,394.7,35.5z M367.4,46.7c0.3,1,0.8,1.9,1.4,2.7c0.1,0.2,0.3,0.3,0.4,0.5
		c0,0,0,0,0,0c-0.5,0.1-1,0.1-1.5,0.1c0,0,0,0,0,0c-0.7-0.6-1.4-1.3-1.9-2.1c-0.5-0.8-0.8-1.6-1-2.5c-0.2-0.9-0.3-1.7-0.2-2.6
		c0.1-0.9,0.3-1.7,0.7-2.5c0.4-0.8,0.9-1.6,1.5-2.2c0.1-0.1,0.1-0.1,0.2-0.2c0.3,0,0.6,0.1,0.8,0.1c0.3,0,0.7,0.1,1,0.2
		c-0.1,0.1-0.1,0.1-0.2,0.2c-0.6,0.8-1,1.7-1.3,2.6c-0.3,0.9-0.4,1.9-0.4,2.9C366.9,44.8,367,45.8,367.4,46.7z M368.4,47.8
		c-0.4-0.9-0.7-1.8-0.9-2.8c-0.1-1-0.2-2,0-2.9c0.1-1,0.4-1.9,0.9-2.8c0.2-0.4,0.4-0.7,0.6-1.1c0.7,0.1,1.3,0.3,1.9,0.5
		c-0.1,0.1-0.2,0.3-0.2,0.4c-0.4,1-0.7,2-0.8,3.1c-0.1,1.1-0.1,2.2,0.1,3.2c0.2,1.1,0.5,2.1,1,3.1c0.1,0.3,0.3,0.6,0.5,0.9
		c0,0,0,0,0,0c0,0-0.1,0-0.1,0c0,0-0.2,0-0.1,0c-0.5,0.1-1,0.2-1.4,0.3C369.3,49.2,368.8,48.5,368.4,47.8z M373.5,47.4
		c0.1,0.5,0.3,0.9,0.5,1.3c-0.2,0.1-0.4,0.1-0.5,0.2c-0.4,0.1-0.8,0.3-1.1,0.3c-0.1,0-0.1,0-0.2,0.1c-0.3-0.6-0.6-1.2-0.8-1.8
		c-0.4-1-0.6-2.1-0.7-3.2c-0.1-1.1,0-2.2,0.2-3.2c0.2-0.8,0.4-1.6,0.8-2.3c0.2,0.1,0.4,0.1,0.7,0.2c0.5,0.2,0.9,0.3,1.4,0.5
		c-0.1,0.3-0.2,0.5-0.2,0.8c-0.3,1.2-0.4,2.3-0.4,3.5C373,45,373.1,46.2,373.5,47.4z M373.5,43.7c0-1.2,0.1-2.4,0.4-3.5
		c0-0.1,0.1-0.3,0.1-0.4c1.2,0.5,2.3,1,3.4,1.6c1.8,0.9,3.5,2,5.2,3.1c-1.3,0.8-2.6,1.6-4,2.3c-1.4,0.7-2.8,1.3-4.2,1.9
		c-0.2-0.4-0.3-0.9-0.5-1.3C373.7,46.1,373.6,44.9,373.5,43.7z M374.1,39.4c0.2-0.6,0.4-1.2,0.7-1.7c0.6,0.2,1.2,0.4,1.8,0.6
		c2,0.7,3.8,1.6,5.6,2.6c1,0.6,2,1.2,3,1.8c-0.1,0.1-0.2,0.2-0.3,0.2c-0.6,0.4-1.2,0.8-1.8,1.2c-0.7-0.5-1.5-1-2.2-1.4
		c-1.8-1.1-3.7-2.1-5.7-2.9C374.8,39.7,374.5,39.5,374.1,39.4z M375.4,48.3c1.9-0.8,3.8-1.7,5.6-2.7c0.6-0.3,1.2-0.7,1.8-1.1
		c0.3,0.2,0.5,0.3,0.8,0.5c0.5,0.4,1,0.7,1.6,1.1c-1.4,0.8-2.8,1.6-4.2,2.3c-0.9,0.4-1.8,0.8-2.7,1.2c-0.4,0.2-0.8,0.3-1.3,0.4
		c-0.1,0-0.2,0.1-0.3,0.1c-0.1,0-0.2,0.1-0.3,0.1c-0.3,0.1-0.3,0.1-0.6,0.2c-0.1,0-0.2,0-0.3,0.1c-0.4-0.6-0.7-1.2-0.9-1.8
		C374.8,48.5,375.1,48.4,375.4,48.3z M383.3,44.3c0.7-0.5,1.4-0.9,2.2-1.4c0.8,0.5,1.6,1.1,2.3,1.6c-0.2,0.2-0.5,0.3-0.7,0.5
		c-0.5,0.3-1,0.6-1.5,0.9C384.9,45.3,384.1,44.8,383.3,44.3z M385.9,42.6c0.5-0.4,1.1-0.8,1.6-1.1c0.1-0.1,0.3-0.2,0.4-0.3
		c0.8,0.5,1.6,1,2.4,1.6c-0.7,0.5-1.4,1-2.1,1.5c-0.2-0.1-0.4-0.3-0.6-0.4C387.1,43.4,386.5,43,385.9,42.6z M387.8,44.7
		c0.1,0,0.1-0.1,0.2-0.1c0.2,0.2,0.5,0.3,0.7,0.5c0.5,0.4,1,0.8,1.5,1.1c-0.3,0.2-0.6,0.4-1,0.6c-0.4,0.3-0.8,0.5-1.3,0.8
		c-0.2-0.1-0.4-0.3-0.6-0.4c-0.6-0.4-1.1-0.8-1.7-1.2C386.5,45.6,387.1,45.2,387.8,44.7z M388.4,44.3c0.7-0.5,1.4-1,2.1-1.5
		c0.8,0.5,1.5,1.1,2.3,1.7c-0.7,0.5-1.4,1-2.1,1.5C389.9,45.4,389.2,44.8,388.4,44.3z M390.9,42.5c0.7-0.5,1.3-1,2-1.5
		c0.8,0.5,1.5,1.1,2.3,1.6c-0.7,0.5-1.3,1-2,1.5C392.4,43.6,391.7,43.1,390.9,42.5z M393,44.6c0.3,0.2,0.7,0.5,1,0.8
		c0.4,0.3,0.8,0.7,1.2,1c-0.7,0.5-1.4,1-2.1,1.5c-0.7-0.6-1.5-1.2-2.2-1.7C391.6,45.6,392.3,45.1,393,44.6z M394.8,45.4
		c-0.5-0.4-0.9-0.7-1.4-1.1c0.5-0.4,1-0.7,1.5-1.1c0.2-0.1,0.4-0.3,0.5-0.4c0.7,0.6,1.5,1.1,2.2,1.7c-0.7,0.5-1.3,1-2,1.5
		C395.3,45.8,395.1,45.6,394.8,45.4z M397.8,44.7c0.5,0.4,1,0.8,1.5,1.2c0.2,0.2,0.4,0.4,0.6,0.5c-0.7,0.5-1.4,1-2,1.5
		c-0.7-0.6-1.4-1.2-2.1-1.8C396.5,45.7,397.1,45.2,397.8,44.7z M408.4,46c0.7,0.7,1.4,1.4,2.1,2c0.7,0.6,1.5,1,2.4,1.2
		c0.9,0.2,1.9,0,2.7-0.3c1.8-0.6,3.1-2.1,3.3-4c0.2-1.9-0.8-3.7-2.4-4.6c-1.6-0.9-3.7-0.7-5.2,0.2c-0.3,0.2-0.7,0.4-0.9,0.7
		c-1,1-2.1,2-3.1,3c-0.7-0.6-1.4-1.2-2.1-1.8c1.2-1.1,2.4-2.3,3.6-3.4c0.7-0.7,1.5-1.2,2.3-1.6c0.8-0.4,1.7-0.5,2.6-0.5
		c1.9,0,3.7,0.7,5.1,1.9c1.4,1.2,2.3,3,2.6,4.8c0.2,1.8-0.2,3.7-1.2,5.2c-1,1.5-2.6,2.8-4.4,3.2c-1.8,0.4-3.7,0.1-5.3-0.8
		c-0.9-0.5-1.5-1.1-2.2-1.8c-0.7-0.7-1.4-1.3-2.1-2c-0.3-0.3-0.7-0.6-1-0.9c0.6-0.5,1.3-1.1,1.9-1.7C407.5,45.2,408,45.6,408.4,46z
		 M407.5,44.4c0.9-0.8,1.8-1.6,2.6-2.5c0.3-0.3,0.6-0.6,0.8-0.8c0.6-0.6,1.4-1.1,2.3-1.2c0.9-0.1,1.9,0.1,2.7,0.6
		c1.7,0.9,2.6,2.8,2.4,4.6c-0.1,0.9-0.5,1.8-1.1,2.5c-0.6,0.7-1.4,1.3-2.3,1.4c-0.9,0.2-1.9,0-2.7-0.4c-0.9-0.4-1.5-1.1-2.2-1.8
		C409.2,46,408.4,45.2,407.5,44.4z M406.4,44.1c0.2,0.1,0.3,0.3,0.4,0.4c-0.6,0.6-1.3,1.1-1.9,1.7c-0.7-0.6-1.4-1.2-2.1-1.8
		c0.6-0.5,1.3-1.1,1.9-1.7C405.4,43.2,405.9,43.7,406.4,44.1z M404.6,46.6c-0.6,0.5-1.3,1-1.9,1.5c0,0-0.1,0-0.1,0.1
		c-0.1-0.1-0.2-0.2-0.2-0.2c-0.6-0.5-1.2-1.1-1.8-1.6c0.6-0.5,1.2-1,1.8-1.5c0,0,0.1-0.1,0.1-0.1C403.2,45.3,403.9,45.9,404.6,46.6z
		 M404.8,46.7C404.8,46.8,404.8,46.8,404.8,46.7c0.7,0.7,1.4,1.3,2.1,2c0.7,0.7,1.3,1.4,2.1,2c1.4,1.1,3.3,1.7,5.1,1.6
		c1.8-0.1,3.7-0.7,5.1-1.9c1.4-1.2,2.4-2.9,2.7-4.7c0.3-1.8,0-3.7-1-5.2c-1-1.6-2.5-2.8-4.3-3.4c-2.9-0.9-6.3-0.1-8.4,2
		c-1.1,1.1-2.1,2.1-3.3,3.1c-0.7-0.6-1.4-1.2-2.1-1.8c1.3-1.2,2.6-2.4,3.8-3.6c1.3-1.3,2.9-2.3,4.7-2.7c1.8-0.4,3.6-0.3,5.4,0.2
		c3.6,1.1,6.5,4.1,7.4,7.8c0.9,3.6-0.2,7.5-2.8,10.2c-1.3,1.3-2.9,2.3-4.7,2.7c-1.8,0.4-3.6,0.3-5.4-0.2c-1.8-0.5-3.4-1.6-4.8-2.9
		c-1.2-1.2-2.4-2.4-3.7-3.5C403.5,47.8,404.1,47.3,404.8,46.7z M404.6,42.5c-0.6,0.6-1.3,1.1-1.9,1.7c-0.1-0.1-0.3-0.3-0.4-0.4
		c-0.6-0.5-1.1-0.9-1.7-1.4c0.6-0.5,1.2-1,1.8-1.6c0,0,0.1-0.1,0.1-0.1c0,0,0.1,0.1,0.1,0.1C403.3,41.4,403.9,42,404.6,42.5z
		 M402.3,44.5c-0.6,0.5-1.2,1-1.8,1.5c-0.1,0-0.1,0.1-0.2,0.1c-0.7-0.6-1.4-1.2-2.1-1.8c0.7-0.5,1.3-1.1,2-1.6
		C400.9,43.3,401.6,43.9,402.3,44.5z M400.1,46.6c0.7,0.6,1.4,1.2,2.1,1.8c-0.7,0.5-1.4,1-2.1,1.5c-0.7-0.6-1.4-1.2-2.1-1.8
		C398.8,47.7,399.4,47.1,400.1,46.6z M402.4,48.6c0.3,0.3,0.6,0.5,0.9,0.8c0.7,0.7,1.4,1.3,2.1,2c0.7,0.7,1.4,1.4,2.2,1.9
		c1.5,1.1,3.2,1.7,5,1.9c1.8,0.2,3.7-0.1,5.4-0.7c3.5-1.3,6.2-4.4,6.9-8.1c0.7-3.7-0.5-7.5-3.3-10c-1.4-1.3-3-2.1-4.8-2.6
		c-1.8-0.4-3.6-0.4-5.4,0.1c-2,0.5-3.8,1.5-5.3,2.9c-1.1,1.1-2.3,2.2-3.5,3.3c-0.1-0.1-0.2-0.2-0.4-0.3c-0.6-0.5-1.2-0.9-1.9-1.4
		c0.7-0.6,1.3-1.2,2-1.9c0.7-0.7,1.4-1.4,2.1-2.1c1.3-1.3,2.9-2.4,4.7-3.1c1.7-0.6,3.5-0.9,5.2-0.8c3.8,0.2,7.3,2,9.7,4.8
		c2.4,2.8,3.6,6.5,3.2,10.2c-0.3,3.8-2.2,7.2-5.2,9.6c-1.4,1.1-3.1,2-4.9,2.4c-1.8,0.4-3.6,0.5-5.4,0.2c-1.8-0.3-3.6-1-5.1-2
		c-1.6-1-2.9-2.5-4.3-3.8c-0.7-0.7-1.5-1.4-2.3-2.1C401,49.6,401.7,49.1,402.4,48.6z M402.2,40.6c-0.6,0.6-1.2,1.1-1.9,1.7
		c-0.7-0.6-1.5-1.1-2.2-1.7c0.6-0.5,1.3-1.1,1.9-1.6C400.8,39.5,401.5,40,402.2,40.6z M400,42.6c-0.5,0.4-1.1,0.9-1.6,1.3
		c-0.1,0.1-0.2,0.2-0.3,0.3c-0.7-0.6-1.5-1.2-2.2-1.7c0.7-0.5,1.3-1.1,2-1.6C398.5,41.4,399.2,42,400,42.6z M396.2,41.8
		c-0.2,0.2-0.4,0.3-0.6,0.5c-0.2-0.2-0.5-0.4-0.7-0.5c-0.5-0.4-1.1-0.8-1.6-1.1c0.5-0.4,1-0.8,1.4-1.2c0.2-0.1,0.3-0.3,0.5-0.4
		c0.7,0.5,1.4,0.9,2.1,1.4c0.1,0.1,0.2,0.1,0.3,0.2C397.1,41.1,396.6,41.5,396.2,41.8z M394,39.7c-0.3,0.3-0.6,0.5-1,0.8
		c-0.8-0.5-1.6-1-2.4-1.5c0.6-0.5,1.3-1,1.9-1.6c0.8,0.5,1.6,1,2.4,1.5C394.7,39.2,394.4,39.5,394,39.7z M392.1,40.5
		c0.2,0.1,0.4,0.3,0.6,0.4c-0.7,0.5-1.3,1-2,1.5c-0.8-0.5-1.6-1.1-2.4-1.6c0.7-0.5,1.3-1,2-1.5C390.9,39.7,391.5,40.1,392.1,40.5z
		 M388.1,40.7c-0.1,0-0.1-0.1-0.2-0.1c-1.9-1.2-3.9-2.2-6-3.1c-1.6-0.7-3.3-1.2-5.1-1.6c-0.3-0.1-0.5-0.1-0.8-0.1
		c0.3-0.4,0.7-0.8,1.1-1.2c1.1,0,2.2,0.2,3.3,0.4c1.9,0.4,3.7,1.1,5.4,1.9c1.4,0.7,2.8,1.4,4.2,2.2
		C389.4,39.7,388.7,40.2,388.1,40.7z M376.1,36c1.7,0.3,3.4,0.9,5.1,1.5c2.1,0.8,4,1.9,5.9,3c0.2,0.1,0.4,0.2,0.6,0.4
		c-0.7,0.5-1.3,1-2,1.5c-1.4-0.9-2.8-1.7-4.3-2.5c-1.7-0.9-3.5-1.7-5.4-2.3c-0.3-0.1-0.7-0.2-1-0.3c0.1-0.2,0.2-0.3,0.3-0.5
		c0.2-0.3,0.4-0.6,0.6-0.9C375.9,36,376,36,376.1,36z M374.6,37.1c0,0.1-0.1,0.1-0.1,0.2c-0.6-0.2-1.2-0.3-1.9-0.4
		c0.3-0.4,0.7-0.8,1.1-1.1c0.6,0,1.2,0.1,1.7,0.2C375.2,36.3,374.9,36.7,374.6,37.1z M374.4,37.6c-0.3,0.5-0.5,1.1-0.7,1.6
		c-0.7-0.2-1.4-0.5-2-0.7c0.1-0.1,0.1-0.2,0.2-0.4c0.2-0.4,0.4-0.7,0.7-1C373.1,37.2,373.7,37.4,374.4,37.6z M371.2,38.4
		c-0.3-0.1-0.6-0.2-0.9-0.2c-0.3-0.1-0.7-0.2-1.1-0.2c0.3-0.4,0.6-0.7,0.9-1c0,0,0.1-0.1,0.1-0.1c0.5,0,1,0.1,1.6,0.2
		c0.1,0,0.1,0,0.2,0C371.7,37.5,371.4,37.9,371.2,38.4z M370.3,49.8c0.4-0.1,0.8-0.2,1.2-0.3c0.3,0.5,0.7,1,1,1.5
		c-0.4,0-0.7,0.1-1.1,0.1c-0.1,0-0.2,0-0.4,0c-0.3-0.3-0.6-0.5-0.9-0.8c-0.1-0.1-0.2-0.3-0.3-0.4C370,49.8,370.2,49.8,370.3,49.8z
		 M372.1,49.4c0.6-0.2,1.2-0.3,1.8-0.6c0.3,0.6,0.6,1.2,0.9,1.8c-0.1,0-0.1,0-0.2,0c-0.4,0.1-0.7,0.1-1.1,0.2c-0.1,0-0.2,0-0.4,0
		c-0.1-0.2-0.3-0.3-0.4-0.5C372.6,50.1,372.3,49.7,372.1,49.4z M374.9,50.7C374.9,50.7,374.9,50.7,374.9,50.7c0.3,0.5,0.7,1,1.1,1.5
		c-0.5,0-0.9,0.1-1.4,0.1c-0.5-0.4-0.9-0.8-1.3-1.2C373.8,50.9,374.4,50.8,374.9,50.7z M375.5,50.5c0.2-0.1,0.4-0.1,0.7-0.2
		c1.9-0.5,3.7-1.2,5.5-2.1c1.3-0.6,2.5-1.3,3.7-2c0.8,0.5,1.5,1.1,2.2,1.7c-1.4,0.8-2.9,1.6-4.4,2.2c-0.9,0.4-1.8,0.7-2.7,1
		c-0.4,0.1-0.8,0.2-1.2,0.4c-0.2,0.1-0.3,0.1-0.6,0.1c-0.2,0.1-0.3,0.1-0.6,0.1c-0.5,0.1-1,0.2-1.5,0.2
		C376.2,51.6,375.8,51.1,375.5,50.5z M376.9,52.1c1.8-0.3,3.6-0.8,5.3-1.5c1.9-0.7,3.7-1.6,5.4-2.6c0.7,0.6,1.4,1.1,2.2,1.7
		c-1.4,0.8-2.9,1.5-4.4,2.1c-0.5,0.2-0.9,0.3-1.3,0.5c-0.4,0.1-0.8,0.3-1.2,0.4c-0.4,0.1-0.8,0.2-1.2,0.3c-0.4,0.1-0.8,0.1-1.2,0.2
		c-0.8,0.1-1.7,0.2-2.5,0.2c-0.1,0-0.1-0.1-0.2-0.1c-0.4-0.3-0.8-0.7-1.1-1.1C376.8,52.1,376.9,52.1,376.9,52.1z M388.2,47.8
		c0.8-0.4,1.5-0.9,2.2-1.4c0.7,0.6,1.5,1.1,2.2,1.7c-0.4,0.2-0.7,0.5-1.1,0.7c-0.4,0.2-0.8,0.4-1.1,0.7
		C389.6,48.9,388.9,48.3,388.2,47.8z M392.7,48.2c0.7,0.6,1.4,1.2,2.1,1.8c-0.4,0.2-0.8,0.5-1.2,0.7c-0.4,0.2-0.7,0.4-1.1,0.6
		c-0.7-0.6-1.4-1.2-2.1-1.8C391.3,49.2,392,48.7,392.7,48.2z M394.8,49.3c-0.5-0.5-1.1-0.9-1.6-1.3c0.6-0.4,1.3-0.8,1.9-1.3
		c0.1-0.1,0.2-0.1,0.2-0.2c0.7,0.6,1.4,1.2,2.1,1.8c-0.7,0.5-1.4,1-2.1,1.4C395.1,49.6,395,49.4,394.8,49.3z M397.6,48.4
		c0.7,0.6,1.4,1.2,2.1,1.8c-0.7,0.5-1.4,1-2.2,1.4c-0.7-0.6-1.4-1.2-2-1.8C396.2,49.4,396.9,48.9,397.6,48.4z M399.8,50.4
		c0.6,0.6,1.2,1.1,1.8,1.7c1.4,1.3,2.7,2.8,4.3,3.9c1.5,1,3.2,1.7,5,2.1c3.6,0.7,7.4,0,10.5-1.9c3.2-2,5.5-5.2,6.3-8.9
		c0.8-3.6,0.1-7.4-1.9-10.5c-2-3.1-5.4-5.3-9.1-6c-3.6-0.7-7.5,0.1-10.5,2.1c-0.9,0.5-1.6,1.2-2.4,1.9c-1.2,1.2-2.5,2.4-3.8,3.6
		c-0.8-0.5-1.6-1.1-2.3-1.6c1.6-1.4,3.1-2.9,4.6-4.3c2.6-2.6,6.1-4.3,9.7-4.7c3.7-0.4,7.4,0.5,10.5,2.5c3.2,2,5.7,5.1,7,8.6
		c1.2,3.4,1.3,7.2,0.2,10.7c-1.1,3.6-3.5,6.8-6.6,8.9c-1.5,1-3.2,1.8-5,2.3c-1.7,0.4-3.6,0.6-5.4,0.4c-3.7-0.3-7.2-1.9-10-4.4
		c-0.7-0.7-1.4-1.4-2.1-2c-0.7-0.7-1.3-1.3-2-1.9c-0.4-0.3-0.7-0.6-1.1-1C398.4,51.4,399.1,50.9,399.8,50.4z M399.8,38.7
		c-0.6,0.6-1.2,1.1-1.9,1.7c-0.8-0.6-1.5-1.1-2.3-1.6c0.6-0.5,1.3-1.1,1.9-1.6C398.2,37.7,399,38.2,399.8,38.7z M378.9,33.3
		c0.3-0.1,0.5-0.3,0.8-0.4c0.3-0.1,0.5-0.2,0.8-0.3c0,0,0,0,0,0c0,0,0,0,0.1,0c0,0,0.1,0,0.1,0c0,0,0.1,0,0.1,0c0,0,0.1,0,0.1,0
		c0,0,0,0,0.1,0c0,0,0.1,0,0.1,0c0,0,0.1,0,0.1,0c0,0,0,0,0,0c0,0,0,0,0.1,0c0.3-0.1,0.6-0.1,0.9-0.2c0.7-0.1,1.5-0.1,2.2-0.1
		c1.7,0.1,3.4,0.5,5.1,1c1.7,0.6,3.4,1.3,5,2.2c-0.6,0.5-1.2,1.1-1.8,1.6c-1.2-0.7-2.5-1.3-3.8-1.9c-1.7-0.7-3.5-1.3-5.3-1.6
		c-1.5-0.3-3-0.3-4.4-0.1C379,33.3,378.9,33.4,378.9,33.3C378.9,33.4,378.9,33.3,378.9,33.3z M378.6,33.5c0.5-0.1,1-0.1,1.5-0.1
		c1.6,0,3.2,0.3,4.8,0.7c2,0.5,3.9,1.3,5.7,2.3c0.6,0.3,1.1,0.6,1.7,0.9c-0.1,0.1-0.3,0.2-0.4,0.4c-0.5,0.4-1,0.8-1.5,1.2
		c-0.7-0.4-1.4-0.8-2.1-1.2c-1.8-1-3.7-1.8-5.6-2.4c-1.5-0.5-3.1-0.8-4.8-0.9c-0.2,0-0.4,0-0.6,0c0,0,0.1-0.1,0.1-0.1
		C377.8,34,378.2,33.7,378.6,33.5z M377.2,33.8C377.3,33.8,377.3,33.8,377.2,33.8C377.2,33.8,377.2,33.8,377.2,33.8z M376.6,34
		c0,0,0.1,0,0.1,0c0,0,0,0,0,0c0,0,0,0,0,0c0,0,0,0,0.1,0c0.1,0,0.1,0,0.2-0.1c0.1,0-0.1,0,0,0c0,0,0,0,0.1,0c0,0,0.1,0,0.1,0
		c0,0,0,0,0,0c0,0,0,0,0,0c0,0,0.1,0,0.1,0c0,0,0.1,0,0.1,0c0,0,0.1,0,0.1,0c0,0,0.1,0,0.1,0c0,0,0,0,0,0c0,0,0,0,0,0
		c0.1,0,0.2,0,0.2,0c0.1,0,0,0,0.1,0c0,0,0.1,0,0.1,0c0,0,0,0,0,0c-0.4,0.3-0.9,0.5-1.2,0.8c-0.5,0-1,0.1-1.5,0.1
		C375.8,34.3,376.2,34.1,376.6,34z M375.2,34.7c0.3,0,0.5-0.1,0.8-0.1c0.2,0,0.5,0,0.7,0c-0.4,0.3-0.8,0.7-1.1,1.1
		c-0.6-0.1-1.1-0.1-1.7-0.1C374.3,35.2,374.7,34.9,375.2,34.7z M372.1,35.6c0.1-0.1,0.2-0.1,0.4-0.2c0.1,0,0.1-0.1,0.2-0.1
		c0,0,0.2-0.1,0.2-0.1c0.1-0.1,0.3-0.1,0.4-0.2c0,0,0,0,0,0c0,0,0,0,0,0c0,0,0.1,0,0.1,0c0,0,0.1,0,0.1,0c0,0,0,0,0,0c0,0,0,0,0,0
		c0.1,0,0.1,0,0.2-0.1c0,0,0.1,0,0.1,0c0,0,0.1,0,0.1,0c0,0,0,0,0,0c0,0,0,0,0,0c0,0,0.1,0,0.1,0c0,0,0.1,0,0.1,0c-0.1,0,0,0,0.1,0
		c0.2,0,0.4-0.1,0.6-0.1c-0.4,0.2-0.8,0.5-1.2,0.8c-0.3,0-0.6,0-0.9,0C372.4,35.6,372.2,35.6,372.1,35.6
		C372,35.6,372,35.6,372.1,35.6z M371.7,35.8c0.1,0,0.1,0,0.2,0c0.5,0,0.9,0,1.4,0c-0.3,0.2-0.5,0.5-0.8,0.7
		c-0.1,0.1-0.2,0.2-0.3,0.3c-0.3,0-0.6-0.1-0.8-0.1c-0.3,0-0.6-0.1-0.9-0.1c0.3-0.2,0.6-0.5,0.9-0.7
		C371.5,35.9,371.6,35.8,371.7,35.8z M369,36.4c0.1-0.1,0.2-0.1,0.3-0.1c0.1,0,0.1,0,0.2-0.1c0,0,0.1,0,0.1,0c-0.1,0,0,0,0.1,0
		c0.1,0,0.1,0,0.2-0.1c0,0,0,0,0,0c0,0,0,0,0,0c0,0,0.1,0,0.1,0c0,0,0,0,0,0c0,0,0,0,0,0c0,0,0.1,0,0.1,0c0,0,0.1,0,0.1,0
		c0,0,0,0,0.1,0c0,0,0.1,0,0.1,0c0,0,0,0,0.1,0c0.1,0,0.1,0,0.2,0c0,0,0.1,0,0.1,0c0,0,0,0,0,0c0,0,0,0,0,0c0.1,0,0.2,0,0.2,0
		c0.1,0,0.2,0,0.3,0c-0.2,0.1-0.5,0.3-0.7,0.4c-0.2,0.1-0.4,0.3-0.5,0.4c-0.5,0-1,0-1.6,0.1C368.7,36.6,368.9,36.5,369,36.4z
		 M368.2,36.8c0.5,0,1.1-0.1,1.6,0c-0.4,0.3-0.7,0.7-1.1,1.1c-0.6-0.1-1.2-0.2-1.8-0.2C367.4,37.4,367.8,37.1,368.2,36.8z
		 M365.3,37.6c0.2-0.1,0.4-0.2,0.6-0.3c0,0,0.1,0,0.1,0c-0.1,0,0,0,0,0c0.1,0,0.1,0,0.2-0.1c0,0,0,0,0,0c0,0,0,0,0,0c0,0,0,0,0,0
		c0,0,0,0,0,0c0,0,0,0,0,0c0,0,0,0,0,0c0,0,0,0,0,0c0,0,0.1,0,0.1,0c0,0,0,0,0,0c0,0,0.1,0,0.1,0c0,0,0.1,0,0.1,0c0,0,0,0,0,0
		c0,0,0,0,0,0c0.1,0,0.1,0,0.2,0c0,0,0,0,0,0c0,0,0,0,0,0c0,0,0.1,0,0.1,0c0,0,0.1,0,0.1,0c0,0,0,0,0,0c0.1,0,0,0,0,0
		c0.3-0.1,0.5-0.1,0.7-0.1c-0.4,0.2-0.8,0.5-1.2,0.8c-0.1,0-0.3,0-0.4,0c-0.4,0-0.8,0-1.2,0.1C365.1,37.7,365.2,37.6,365.3,37.6z
		 M362.8,38.2C362.9,38.1,362.8,38.2,362.8,38.2C362.8,38.2,362.8,38.2,362.8,38.2z M362.4,49.1c-0.8-0.4-1.5-0.8-2.2-1.4
		c-0.6-0.5-1-1.1-1.3-1.8c-0.3-0.6-0.5-1.3-0.5-2c0-0.7,0.1-1.4,0.3-2c0.2-0.7,0.6-1.3,1.1-1.8c0.5-0.6,1.2-1.1,1.9-1.4
		c0.1,0,0.2-0.1,0.3-0.1c0.1,0,0.1-0.1,0.3-0.1c0.1,0,0.1,0,0.2-0.1c0,0,0,0,0,0c0,0,0,0,0,0c0,0,0.1,0,0.1,0c0,0,0.1,0,0.1,0
		c0,0,0,0,0,0c0,0,0,0,0,0c0.1,0,0.1,0,0.2,0c0,0,0,0,0,0c0,0,0.1,0,0.1,0c0,0,0,0,0,0c0,0,0.1,0,0.1,0c0,0,0.2,0,0.1,0
		c0.1,0,0.1,0,0.2,0c0,0,0.1,0,0.1,0c0,0,0,0,0,0c0,0,0,0,0,0c0.1,0,0.1,0,0.2,0c0.1,0,0.3,0,0.4-0.1c0.1,0,0.2,0,0.3,0
		c-0.8,0.4-1.4,0.9-2,1.6c-0.5,0.6-0.9,1.3-1.2,2.1c-0.3,0.7-0.4,1.5-0.4,2.3c0,0.8,0.2,1.6,0.5,2.3c0.3,0.8,0.8,1.5,1.3,2.1
		c0.5,0.6,1.1,1.1,1.8,1.5C363.7,49.6,363,49.4,362.4,49.1z M365,49.6c-0.8-0.5-1.5-1.1-2-1.8c-0.5-0.6-0.9-1.4-1.2-2.1
		c-0.3-0.7-0.4-1.5-0.4-2.3c0-0.8,0.2-1.5,0.5-2.3c0.3-0.7,0.8-1.4,1.3-2c0.5-0.5,1-0.9,1.6-1.2c0.6,0,1.1,0,1.7,0c0,0,0,0-0.1,0.1
		c-0.7,0.6-1.2,1.3-1.7,2.1c-0.4,0.8-0.7,1.6-0.8,2.5c-0.1,0.9-0.1,1.8,0.1,2.6c0.2,0.9,0.5,1.7,0.9,2.5c0.5,0.8,1.1,1.6,1.8,2.2
		c0.1,0.1,0.1,0.1,0.2,0.2c-0.4,0-0.8,0-1.2-0.1C365.4,49.8,365.2,49.7,365,49.6z M367.8,50.7c-0.6-0.1-1.1-0.3-1.7-0.6c0,0,0,0,0,0
		c0.3,0,0.6,0,0.9,0C367.3,50.4,367.5,50.6,367.8,50.7C367.8,50.7,367.8,50.7,367.8,50.7z M369.1,51c-0.5-0.2-0.9-0.5-1.3-0.8
		c0.5,0,0.9-0.1,1.4-0.1c0.3,0.4,0.7,0.7,1.1,1.1C369.9,51,369.5,51,369.1,51z M370.3,51.5c-0.2-0.1-0.4-0.2-0.6-0.3
		c0.3,0,0.6,0,0.9,0c0.1,0.1,0.3,0.2,0.4,0.3c0.1,0.1,0.2,0.1,0.3,0.2C370.9,51.7,370.6,51.6,370.3,51.5z M371.3,51.2
		c0,0,0.1,0,0.1,0c0.4,0,0.8-0.1,1.3-0.1c0.1,0.1,0.1,0.2,0.2,0.2c0.3,0.3,0.6,0.6,0.9,0.8c-0.4,0-0.8-0.1-1.2-0.1
		C372.1,51.8,371.7,51.5,371.3,51.2z M373.2,52.3c0.3,0,0.5,0,0.8,0c0.2,0.2,0.5,0.4,0.7,0.5C374.2,52.7,373.7,52.5,373.2,52.3z
		 M376.1,53.2c-0.3-0.1-0.5-0.3-0.7-0.4c-0.2-0.1-0.4-0.3-0.5-0.4c0.4,0,0.9-0.1,1.3-0.1c0.3,0.4,0.7,0.7,1.1,1.1
		c-0.3,0-0.6,0-0.9-0.1C376.2,53.2,376.1,53.2,376.1,53.2z M376.7,53.5c0.2,0,0.5,0,0.7,0c0.2,0.2,0.5,0.4,0.7,0.5
		C377.6,53.9,377.1,53.7,376.7,53.5z M378.2,53.5c1.6-0.1,3.2-0.3,4.7-0.7c2-0.5,3.9-1.3,5.7-2.2c0.5-0.2,0.9-0.5,1.3-0.7
		c0.2,0.2,0.4,0.4,0.7,0.5c0.5,0.4,1,0.8,1.4,1.2c-1.4,0.7-2.9,1.4-4.4,1.9c-0.2,0.1-0.5,0.2-0.6,0.2c-0.1,0-0.2,0.1-0.3,0.1
		c-0.2,0-0.2,0-0.3,0.1c-0.4,0.1-0.8,0.2-1.2,0.3c-0.8,0.2-1.6,0.3-2.4,0.3c-1.1,0.1-2.3,0-3.4-0.2
		C379.1,54.1,378.6,53.8,378.2,53.5z M392.8,54.1c-0.9,0.4-1.9,0.7-2.8,1c0,0-0.1,0,0,0c0,0-0.1,0-0.1,0c-0.1,0-0.1,0-0.2,0
		c-0.1,0-0.1,0-0.2,0c0,0-0.1,0-0.1,0c0,0,0,0,0,0c0,0,0,0,0,0c-0.1,0-0.2,0.1-0.3,0.1c-0.1,0-0.2,0-0.3,0.1
		c-0.4,0.1-0.8,0.2-1.2,0.2c-0.8,0.1-1.6,0.2-2.4,0.2c-1.4,0-2.8-0.2-4.1-0.7c-0.3-0.1-0.6-0.3-1-0.4c1.2,0.1,2.4,0,3.5-0.1
		c1.9-0.3,3.8-0.8,5.6-1.5c1-0.4,2-0.8,3-1.3c0.7,0.6,1.3,1.2,2,1.8C393.7,53.7,393.3,53.9,392.8,54.1z M392.7,51.4
		c0.8-0.4,1.5-0.8,2.3-1.3c0.4,0.3,0.7,0.6,1.1,1c0.3,0.3,0.6,0.6,0.9,0.9c-0.4,0.2-0.8,0.5-1.2,0.7c-0.4,0.2-0.8,0.4-1.2,0.6
		C394,52.6,393.4,52,392.7,51.4z M431.6,53.3c-1.7,3.4-4.3,6.3-7.6,8.3c-1.6,0.9-3.3,1.7-5,2.1c-1.7,0.5-3.6,0.6-5.3,0.6
		c-3.7-0.1-7.3-1.3-10.4-3.3c-0.8-0.5-1.5-1.1-2.2-1.7c-0.7-0.6-1.4-1.4-2.1-2c-1.3-1.3-2.7-2.6-4-3.8c0,0,0,0-0.1-0.1
		c0.3-0.2,0.6-0.3,1-0.5c0.5-0.2,0.9-0.5,1.4-0.8c1,0.9,2,1.8,2.9,2.8c0.7,0.7,1.4,1.4,2.1,2c0.7,0.7,1.4,1.2,2.2,1.8
		c3,2,6.7,3,10.3,2.7c3.7-0.2,7.3-1.6,10.2-3.9c2.9-2.4,4.9-5.7,5.8-9.3c0.8-3.5,0.4-7.3-1.1-10.6c-1.5-3.5-4.3-6.3-7.7-8.1
		c-3.2-1.7-6.9-2.2-10.5-1.6c-3.7,0.6-7.1,2.2-9.7,4.9c-1.4,1.4-2.8,2.7-4.2,4c-0.7-0.4-1.4-0.9-2.2-1.3c-0.1-0.1-0.2-0.1-0.3-0.2
		c1.8-1.6,3.5-3.2,5.1-4.9c2.6-2.6,6-4.5,9.6-5.3c3.6-0.7,7.3-0.4,10.7,0.8c3.6,1.3,6.7,3.6,9,6.7c2.2,2.9,3.6,6.5,4,10.1
		C433.8,46.3,433.2,50,431.6,53.3z"/>
	<polygon class="st3" points="366.3,37.2 366.3,37.2 366.3,37.2 	"/>
	<polygon class="st3" points="366.3,37.2 366.3,37.2 366.3,37.2 	"/>
	<polygon class="st3" points="455.7,39 448.5,39 448.5,27.6 444.3,27.6 444.3,42.6 455.7,42.6 	"/>
	<rect x="457.6" y="27.6" class="st3" width="4.2" height="15"/>
	<polygon class="st3" points="476.7,39.1 468.6,39.1 468.6,36.7 475.8,36.7 475.8,33.4 468.6,33.4 468.6,31.2 476.6,31.2 
		476.6,27.6 464.5,27.6 464.5,42.6 476.7,42.6 	"/>
	<polygon class="st3" points="448.3,52.1 445.3,52.1 445.3,47.4 444.7,47.4 444.7,52.6 448.3,52.6 	"/>
	<path class="st3" d="M451.8,52v0.6h0.6v-2.4c0-0.5-0.1-0.9-0.4-1.2c-0.3-0.3-0.7-0.4-1.2-0.4c-0.3,0-0.5,0-0.8,0.1
		c-0.2,0.1-0.4,0.1-0.7,0.2l0.2,0.5c0.2-0.1,0.4-0.2,0.6-0.2c0.2-0.1,0.4-0.1,0.6-0.1c0.4,0,0.7,0.1,0.9,0.3
		c0.2,0.2,0.3,0.4,0.3,0.8v0.1c-0.2-0.1-0.4-0.1-0.5-0.1c-0.2,0-0.4,0-0.7,0c-0.2,0-0.5,0-0.7,0.1s-0.4,0.1-0.5,0.2
		c-0.1,0.1-0.3,0.2-0.3,0.4c-0.1,0.2-0.1,0.3-0.1,0.5s0,0.4,0.1,0.5c0.1,0.2,0.2,0.3,0.3,0.4c0.1,0.1,0.3,0.2,0.5,0.2
		c0.2,0.1,0.3,0.1,0.5,0.1c0.3,0,0.6-0.1,0.9-0.2C451.5,52.4,451.7,52.2,451.8,52z M451,52.2c-0.2,0.1-0.3,0.1-0.5,0.1
		c-0.1,0-0.3,0-0.4-0.1c-0.1,0-0.2-0.1-0.3-0.2c-0.1-0.1-0.2-0.1-0.2-0.2c-0.1-0.1-0.1-0.2-0.1-0.3c0-0.3,0.1-0.4,0.3-0.6
		c0.2-0.1,0.5-0.2,0.8-0.2c0.2,0,0.5,0,0.6,0.1c0.2,0,0.4,0.1,0.5,0.1v0.4c0,0.2,0,0.3-0.1,0.4c-0.1,0.1-0.2,0.2-0.3,0.3
		C451.3,52,451.2,52.1,451,52.2z"/>
	<path class="st3" d="M457,52.2c0.2-0.2,0.3-0.4,0.4-0.6c0.1-0.3,0.2-0.5,0.2-0.9c0-0.3-0.1-0.6-0.2-0.9c-0.1-0.3-0.2-0.5-0.4-0.6
		c-0.2-0.2-0.4-0.3-0.6-0.4c-0.2-0.1-0.5-0.1-0.7-0.1c-0.2,0-0.3,0-0.5,0.1c-0.1,0-0.3,0.1-0.4,0.2c-0.1,0.1-0.2,0.2-0.3,0.3
		c-0.1,0.1-0.2,0.2-0.3,0.3v-2.4h-0.6v5.5h0.6v-0.7c0.1,0.1,0.2,0.2,0.3,0.3c0.1,0.1,0.2,0.2,0.3,0.3c0.1,0.1,0.3,0.1,0.4,0.2
		c0.1,0,0.3,0.1,0.5,0.1c0.2,0,0.5,0,0.7-0.1C456.6,52.5,456.8,52.3,457,52.2z M455.6,52.2c-0.2,0-0.4,0-0.5-0.1
		c-0.2-0.1-0.3-0.2-0.5-0.3c-0.1-0.1-0.2-0.3-0.3-0.5c-0.1-0.2-0.1-0.4-0.1-0.6c0-0.2,0-0.4,0.1-0.6c0.1-0.2,0.2-0.3,0.3-0.5
		c0.1-0.1,0.3-0.2,0.5-0.3c0.2-0.1,0.3-0.1,0.5-0.1c0.2,0,0.4,0,0.5,0.1c0.2,0.1,0.3,0.2,0.4,0.3c0.1,0.1,0.2,0.3,0.3,0.5
		c0.1,0.2,0.1,0.4,0.1,0.6c0,0.2,0,0.4-0.1,0.6c-0.1,0.2-0.2,0.3-0.3,0.5c-0.1,0.1-0.3,0.2-0.4,0.3
		C455.9,52.1,455.8,52.2,455.6,52.2z"/>
	<path class="st3" d="M460.4,48.7c-0.3,0-0.6,0.1-0.8,0.2c-0.2,0.1-0.5,0.3-0.6,0.4c-0.2,0.2-0.3,0.4-0.4,0.7
		c-0.1,0.2-0.1,0.5-0.1,0.8c0,0.3,0,0.5,0.1,0.8c0.1,0.2,0.2,0.5,0.4,0.6c0.2,0.2,0.4,0.3,0.6,0.4c0.2,0.1,0.5,0.2,0.8,0.2
		c0.3,0,0.6-0.1,0.8-0.2c0.3-0.1,0.5-0.3,0.6-0.4c0.2-0.2,0.3-0.4,0.4-0.6c0.1-0.2,0.2-0.5,0.2-0.8c0-0.3,0-0.5-0.2-0.8
		c-0.1-0.2-0.2-0.5-0.4-0.6c-0.2-0.2-0.4-0.3-0.6-0.4C460.9,48.7,460.7,48.7,460.4,48.7z M461.7,50.1c0.1,0.2,0.1,0.4,0.1,0.6
		c0,0.2,0,0.4-0.1,0.6c-0.1,0.2-0.2,0.3-0.3,0.5c-0.1,0.1-0.3,0.2-0.5,0.3c-0.2,0.1-0.4,0.1-0.6,0.1c-0.2,0-0.4,0-0.6-0.1
		c-0.2-0.1-0.3-0.2-0.5-0.3c-0.1-0.1-0.2-0.3-0.3-0.5c-0.1-0.2-0.1-0.4-0.1-0.6c0-0.2,0-0.4,0.1-0.6c0.1-0.2,0.2-0.3,0.3-0.5
		c0.1-0.1,0.3-0.2,0.4-0.3c0.2-0.1,0.4-0.1,0.6-0.1c0.2,0,0.4,0,0.6,0.1c0.2,0.1,0.3,0.2,0.5,0.3C461.5,49.8,461.6,49.9,461.7,50.1z
		"/>
	<path class="st3" d="M465.6,49.3L465.6,49.3l0-0.6c-0.2,0-0.4,0-0.5,0.1c-0.2,0.1-0.3,0.1-0.4,0.2c-0.1,0.1-0.3,0.2-0.4,0.3
		c-0.1,0.1-0.2,0.3-0.3,0.4v-1h-0.6v3.9h0.6v-1.5c0-0.3,0-0.5,0.1-0.8c0.1-0.2,0.2-0.4,0.3-0.6c0.1-0.1,0.3-0.3,0.5-0.3
		C465.2,49.3,465.4,49.3,465.6,49.3z"/>
	<path class="st3" d="M469.4,52.6v-2.4c0-0.5-0.1-0.9-0.4-1.2c-0.3-0.3-0.7-0.4-1.2-0.4c-0.3,0-0.5,0-0.8,0.1
		c-0.2,0.1-0.4,0.1-0.7,0.2l0.2,0.5c0.2-0.1,0.4-0.2,0.6-0.2c0.2-0.1,0.4-0.1,0.6-0.1c0.4,0,0.7,0.1,0.9,0.3
		c0.2,0.2,0.3,0.4,0.3,0.8v0.1c-0.2-0.1-0.4-0.1-0.5-0.1c-0.2,0-0.4,0-0.7,0c-0.2,0-0.5,0-0.7,0.1s-0.4,0.1-0.5,0.2
		c-0.1,0.1-0.3,0.2-0.3,0.4c-0.1,0.2-0.1,0.3-0.1,0.5s0,0.4,0.1,0.5c0.1,0.2,0.2,0.3,0.3,0.4c0.1,0.1,0.3,0.2,0.5,0.2
		c0.2,0.1,0.3,0.1,0.5,0.1c0.3,0,0.6-0.1,0.9-0.2c0.2-0.1,0.4-0.3,0.5-0.5v0.6H469.4z M468.8,51.6c-0.1,0.1-0.2,0.2-0.3,0.3
		c-0.1,0.1-0.3,0.2-0.4,0.2c-0.2,0.1-0.3,0.1-0.5,0.1c-0.1,0-0.3,0-0.4-0.1c-0.1,0-0.2-0.1-0.3-0.2c-0.1-0.1-0.2-0.1-0.2-0.2
		c-0.1-0.1-0.1-0.2-0.1-0.3c0-0.3,0.1-0.4,0.3-0.6c0.2-0.1,0.5-0.2,0.8-0.2c0.2,0,0.5,0,0.6,0.1c0.2,0,0.4,0.1,0.5,0.1v0.4
		C468.9,51.4,468.8,51.5,468.8,51.6z"/>
	<path class="st3" d="M471.4,47.6h-0.6v1.2h-0.5v0.5h0.5v2.3c0,0.2,0,0.4,0.1,0.5c0.1,0.1,0.1,0.3,0.2,0.3c0.1,0.1,0.2,0.2,0.3,0.2
		c0.1,0,0.3,0.1,0.4,0.1c0.1,0,0.3,0,0.4,0c0.1,0,0.2-0.1,0.3-0.1V52c-0.1,0.1-0.2,0.1-0.3,0.1c-0.1,0-0.2,0-0.3,0
		c-0.2,0-0.4,0-0.5-0.1c-0.1-0.1-0.2-0.3-0.2-0.5v-2.3h1.2v-0.5h-1.2V47.6z"/>
	<path class="st3" d="M476.1,52.6c0.3-0.1,0.5-0.3,0.6-0.4c0.2-0.2,0.3-0.4,0.4-0.6c0.1-0.2,0.2-0.5,0.2-0.8c0-0.3,0-0.5-0.2-0.8
		c-0.1-0.2-0.2-0.5-0.4-0.6c-0.2-0.2-0.4-0.3-0.6-0.4c-0.2-0.1-0.5-0.2-0.8-0.2c-0.3,0-0.6,0.1-0.8,0.2c-0.2,0.1-0.5,0.3-0.6,0.4
		c-0.2,0.2-0.3,0.4-0.4,0.7c-0.1,0.2-0.1,0.5-0.1,0.8c0,0.3,0,0.5,0.1,0.8c0.1,0.2,0.2,0.5,0.4,0.6c0.2,0.2,0.4,0.3,0.6,0.4
		c0.2,0.1,0.5,0.2,0.8,0.2C475.6,52.7,475.9,52.7,476.1,52.6z M474.3,51.7c-0.1-0.1-0.2-0.3-0.3-0.5c-0.1-0.2-0.1-0.4-0.1-0.6
		c0-0.2,0-0.4,0.1-0.6c0.1-0.2,0.2-0.3,0.3-0.5c0.1-0.1,0.3-0.2,0.4-0.3c0.2-0.1,0.4-0.1,0.6-0.1c0.2,0,0.4,0,0.6,0.1
		c0.2,0.1,0.3,0.2,0.5,0.3c0.1,0.1,0.2,0.3,0.3,0.5c0.1,0.2,0.1,0.4,0.1,0.6c0,0.2,0,0.4-0.1,0.6c-0.1,0.2-0.2,0.3-0.3,0.5
		c-0.1,0.1-0.3,0.2-0.5,0.3c-0.2,0.1-0.4,0.1-0.6,0.1c-0.2,0-0.4,0-0.6-0.1C474.6,52,474.4,51.9,474.3,51.7z"/>
	<path class="st3" d="M480.6,49.3v-0.6c-0.2,0-0.4,0-0.5,0.1c-0.2,0.1-0.3,0.1-0.4,0.2c-0.1,0.1-0.3,0.2-0.4,0.3
		c-0.1,0.1-0.2,0.3-0.3,0.4v-1h-0.6v3.9h0.6v-1.5c0-0.3,0-0.5,0.1-0.8c0.1-0.2,0.2-0.4,0.3-0.6c0.1-0.1,0.3-0.3,0.5-0.3
		C480.1,49.3,480.3,49.3,480.6,49.3L480.6,49.3z"/>
	<rect x="481.5" y="47.3" class="st3" width="0.7" height="0.6"/>
	<rect x="481.5" y="48.7" class="st3" width="0.6" height="3.9"/>
	<path class="st3" d="M486.7,49.3c-0.2-0.2-0.4-0.3-0.6-0.4c-0.2-0.1-0.5-0.2-0.8-0.2c-0.3,0-0.6,0.1-0.8,0.2
		c-0.2,0.1-0.5,0.3-0.6,0.4c-0.2,0.2-0.3,0.4-0.4,0.7c-0.1,0.2-0.2,0.5-0.2,0.8c0,0.3,0,0.5,0.2,0.8c0.1,0.2,0.2,0.5,0.4,0.6
		c0.2,0.2,0.4,0.3,0.6,0.4c0.2,0.1,0.5,0.2,0.8,0.2c0.3,0,0.6-0.1,0.8-0.2c0.2-0.1,0.5-0.3,0.6-0.4c0.2-0.2,0.3-0.4,0.4-0.6
		c0.1-0.2,0.2-0.5,0.2-0.8c0-0.3-0.1-0.5-0.2-0.8C487,49.7,486.8,49.4,486.7,49.3z M486.5,51.3c-0.1,0.2-0.2,0.3-0.3,0.5
		c-0.1,0.1-0.3,0.2-0.5,0.3c-0.2,0.1-0.4,0.1-0.6,0.1c-0.2,0-0.4,0-0.6-0.1c-0.2-0.1-0.3-0.2-0.5-0.3c-0.1-0.1-0.2-0.3-0.3-0.5
		c-0.1-0.2-0.1-0.4-0.1-0.6c0-0.2,0-0.4,0.1-0.6c0.1-0.2,0.2-0.3,0.3-0.5c0.1-0.1,0.3-0.2,0.4-0.3c0.2-0.1,0.4-0.1,0.6-0.1
		c0.2,0,0.4,0,0.6,0.1c0.2,0.1,0.3,0.2,0.5,0.3c0.1,0.1,0.2,0.3,0.3,0.5c0.1,0.2,0.1,0.4,0.1,0.6C486.6,50.9,486.6,51.1,486.5,51.3z
		"/>
	<path class="st3" d="M492.7,52.6c0.1,0,0.3-0.1,0.4-0.2c0.1-0.1,0.2-0.2,0.3-0.3c0.1-0.1,0.2-0.2,0.3-0.3v0.8h0.6v-5.5h-0.6v2.3
		c-0.1-0.1-0.2-0.2-0.3-0.3c-0.1-0.1-0.2-0.2-0.3-0.3c-0.1-0.1-0.3-0.1-0.4-0.2c-0.2,0-0.3-0.1-0.5-0.1c-0.2,0-0.5,0-0.7,0.1
		c-0.2,0.1-0.4,0.2-0.6,0.4c-0.2,0.2-0.3,0.4-0.4,0.6c-0.1,0.3-0.2,0.5-0.2,0.9c0,0.3,0.1,0.6,0.2,0.9c0.1,0.3,0.2,0.5,0.4,0.6
		c0.2,0.2,0.4,0.3,0.6,0.4c0.2,0.1,0.4,0.1,0.7,0.1C492.3,52.7,492.5,52.7,492.7,52.6z M491.3,51.8c-0.1-0.1-0.2-0.3-0.3-0.5
		c-0.1-0.2-0.1-0.4-0.1-0.6c0-0.2,0-0.4,0.1-0.6c0.1-0.2,0.2-0.3,0.3-0.5c0.1-0.1,0.3-0.2,0.4-0.3c0.2-0.1,0.3-0.1,0.5-0.1
		c0.2,0,0.4,0,0.5,0.1c0.2,0.1,0.3,0.2,0.5,0.3c0.1,0.1,0.2,0.3,0.3,0.5c0.1,0.2,0.1,0.4,0.1,0.6c0,0.2,0,0.4-0.1,0.6
		c-0.1,0.2-0.2,0.3-0.3,0.5c-0.1,0.1-0.3,0.2-0.5,0.3c-0.2,0.1-0.3,0.1-0.5,0.1c-0.2,0-0.4,0-0.5-0.1
		C491.6,52,491.4,51.9,491.3,51.8z"/>
	<path class="st3" d="M498.2,52.5c0.3-0.1,0.5-0.3,0.7-0.5l-0.4-0.3c-0.2,0.2-0.3,0.3-0.5,0.4c-0.2,0.1-0.4,0.2-0.7,0.2
		c-0.2,0-0.3,0-0.5-0.1c-0.2-0.1-0.3-0.1-0.4-0.3c-0.1-0.1-0.2-0.2-0.3-0.4c-0.1-0.2-0.1-0.4-0.2-0.6h3.1c0,0,0-0.1,0-0.1v-0.1
		c0-0.3,0-0.6-0.1-0.8c-0.1-0.3-0.2-0.5-0.4-0.7c-0.2-0.2-0.3-0.3-0.6-0.4c-0.2-0.1-0.5-0.2-0.8-0.2c-0.3,0-0.5,0.1-0.7,0.2
		c-0.2,0.1-0.4,0.2-0.6,0.4c-0.2,0.2-0.3,0.4-0.4,0.6c-0.1,0.2-0.1,0.5-0.1,0.8c0,0.3,0.1,0.6,0.2,0.8c0.1,0.3,0.2,0.5,0.4,0.6
		c0.2,0.2,0.4,0.3,0.6,0.4c0.2,0.1,0.5,0.1,0.8,0.1C497.6,52.7,497.9,52.6,498.2,52.5z M496,49.9c0.1-0.2,0.2-0.3,0.3-0.4
		c0.1-0.1,0.2-0.2,0.4-0.3c0.1-0.1,0.3-0.1,0.5-0.1c0.2,0,0.4,0,0.5,0.1c0.1,0.1,0.3,0.2,0.4,0.3c0.1,0.1,0.2,0.3,0.2,0.4
		c0.1,0.2,0.1,0.3,0.1,0.5h-2.5C495.9,50.3,495.9,50.1,496,49.9z"/>
	<rect x="444.8" y="56.4" class="st3" width="0.6" height="5.3"/>
	<path class="st3" d="M449.8,58.1c-0.1-0.1-0.3-0.2-0.5-0.3c-0.2-0.1-0.4-0.1-0.6-0.1c-0.3,0-0.6,0.1-0.8,0.2
		c-0.2,0.1-0.4,0.3-0.5,0.5v-0.7h-0.6v3.9h0.6v-2.2c0-0.2,0-0.3,0.1-0.5c0.1-0.2,0.1-0.3,0.2-0.4s0.2-0.2,0.4-0.2
		c0.1-0.1,0.3-0.1,0.5-0.1c0.3,0,0.6,0.1,0.8,0.3c0.2,0.2,0.3,0.5,0.3,0.9v2.3h0.6v-2.4c0-0.2,0-0.4-0.1-0.6
		C450,58.4,449.9,58.2,449.8,58.1z"/>
	<path class="st3" d="M454.4,58.1c-0.1-0.1-0.3-0.2-0.5-0.3c-0.2-0.1-0.4-0.1-0.6-0.1c-0.3,0-0.6,0.1-0.8,0.2
		c-0.2,0.1-0.4,0.3-0.5,0.5v-0.7h-0.6v3.9h0.6v-2.2c0-0.2,0-0.3,0.1-0.5c0.1-0.2,0.1-0.3,0.2-0.4s0.2-0.2,0.4-0.2
		c0.1-0.1,0.3-0.1,0.5-0.1c0.3,0,0.6,0.1,0.8,0.3c0.2,0.2,0.3,0.5,0.3,0.9v2.3h0.6v-2.4c0-0.2,0-0.4-0.1-0.6
		C454.6,58.4,454.5,58.2,454.4,58.1z"/>
	<path class="st3" d="M459.3,58.3c-0.2-0.2-0.4-0.3-0.6-0.4c-0.2-0.1-0.5-0.2-0.8-0.2c-0.3,0-0.6,0.1-0.8,0.2
		c-0.2,0.1-0.5,0.3-0.6,0.4c-0.2,0.2-0.3,0.4-0.4,0.7c-0.1,0.2-0.1,0.5-0.1,0.8c0,0.3,0,0.5,0.1,0.8c0.1,0.2,0.2,0.5,0.4,0.6
		c0.2,0.2,0.4,0.3,0.6,0.4c0.2,0.1,0.5,0.2,0.8,0.2c0.3,0,0.6-0.1,0.8-0.2c0.3-0.1,0.5-0.3,0.6-0.4c0.2-0.2,0.3-0.4,0.4-0.6
		c0.1-0.2,0.2-0.5,0.2-0.8c0-0.3,0-0.5-0.2-0.8C459.6,58.7,459.5,58.5,459.3,58.3z M459.2,60.3c-0.1,0.2-0.2,0.3-0.3,0.5
		c-0.1,0.1-0.3,0.2-0.5,0.3c-0.2,0.1-0.4,0.1-0.6,0.1c-0.2,0-0.4,0-0.6-0.1c-0.2-0.1-0.3-0.2-0.5-0.3c-0.1-0.1-0.2-0.3-0.3-0.5
		c-0.1-0.2-0.1-0.4-0.1-0.6c0-0.2,0-0.4,0.1-0.6c0.1-0.2,0.2-0.3,0.3-0.5c0.1-0.1,0.3-0.2,0.4-0.3c0.2-0.1,0.4-0.1,0.6-0.1
		c0.2,0,0.4,0,0.6,0.1c0.2,0.1,0.3,0.2,0.5,0.3c0.1,0.1,0.2,0.3,0.3,0.5c0.1,0.2,0.1,0.4,0.1,0.6C459.3,59.9,459.2,60.1,459.2,60.3z
		"/>
	<polygon class="st3" points="462.2,61 460.9,57.8 460.3,57.8 462,61.7 462.5,61.7 464.2,57.8 463.6,57.8 	"/>
	<path class="st3" d="M466.4,57.7c-0.3,0-0.5,0-0.8,0.1c-0.2,0.1-0.4,0.1-0.7,0.2l0.2,0.5c0.2-0.1,0.4-0.2,0.6-0.2
		c0.2-0.1,0.4-0.1,0.6-0.1c0.4,0,0.7,0.1,0.9,0.3c0.2,0.2,0.3,0.4,0.3,0.8v0.1c-0.2-0.1-0.4-0.1-0.5-0.1c-0.2,0-0.4,0-0.7,0
		c-0.2,0-0.5,0-0.7,0.1s-0.4,0.1-0.5,0.2c-0.1,0.1-0.3,0.2-0.3,0.4c-0.1,0.2-0.1,0.3-0.1,0.5c0,0.2,0,0.4,0.1,0.5
		c0.1,0.2,0.2,0.3,0.3,0.4c0.1,0.1,0.3,0.2,0.5,0.2c0.2,0.1,0.3,0.1,0.5,0.1c0.3,0,0.6-0.1,0.9-0.2c0.2-0.1,0.4-0.3,0.5-0.5v0.6h0.6
		v-2.4c0-0.5-0.1-0.9-0.4-1.2C467.3,57.8,466.9,57.7,466.4,57.7z M467.5,60.2c0,0.2,0,0.3-0.1,0.4c-0.1,0.1-0.2,0.2-0.3,0.3
		c-0.1,0.1-0.3,0.2-0.4,0.2c-0.2,0.1-0.3,0.1-0.5,0.1c-0.1,0-0.3,0-0.4-0.1c-0.1,0-0.2-0.1-0.3-0.2c-0.1-0.1-0.2-0.1-0.2-0.2
		c-0.1-0.1-0.1-0.2-0.1-0.3c0-0.3,0.1-0.4,0.3-0.6c0.2-0.1,0.5-0.2,0.8-0.2c0.2,0,0.5,0,0.6,0.1c0.2,0,0.4,0.1,0.5,0.1V60.2z"/>
	<path class="st3" d="M471.7,61c-0.2,0.1-0.4,0.2-0.7,0.2c-0.2,0-0.4,0-0.6-0.1c-0.2-0.1-0.3-0.2-0.5-0.3c-0.1-0.1-0.2-0.3-0.3-0.5
		c-0.1-0.2-0.1-0.4-0.1-0.6c0-0.2,0-0.4,0.1-0.6c0.1-0.2,0.2-0.3,0.3-0.5c0.1-0.1,0.3-0.2,0.4-0.3c0.2-0.1,0.4-0.1,0.5-0.1
		c0.3,0,0.5,0.1,0.7,0.2c0.2,0.1,0.4,0.3,0.5,0.4l0.4-0.4c-0.1-0.1-0.2-0.2-0.3-0.3c-0.1-0.1-0.2-0.2-0.3-0.2
		c-0.1-0.1-0.3-0.1-0.4-0.1c-0.2,0-0.3-0.1-0.5-0.1c-0.3,0-0.6,0.1-0.8,0.2c-0.2,0.1-0.5,0.3-0.6,0.4c-0.2,0.2-0.3,0.4-0.4,0.7
		c-0.1,0.2-0.2,0.5-0.2,0.8c0,0.3,0.1,0.5,0.2,0.8c0.1,0.2,0.2,0.5,0.4,0.6c0.2,0.2,0.4,0.3,0.6,0.4c0.2,0.1,0.5,0.2,0.8,0.2
		c0.4,0,0.7-0.1,0.9-0.2c0.2-0.1,0.5-0.3,0.7-0.5l-0.4-0.3C472.1,60.8,471.9,60.9,471.7,61z"/>
	<rect x="473.6" y="56.3" class="st3" width="0.7" height="0.6"/>
	<rect x="473.6" y="57.8" class="st3" width="0.6" height="3.9"/>
	<path class="st3" d="M478.8,58.3c-0.2-0.2-0.4-0.3-0.6-0.4c-0.2-0.1-0.5-0.2-0.8-0.2c-0.3,0-0.6,0.1-0.8,0.2
		c-0.2,0.1-0.5,0.3-0.6,0.4c-0.2,0.2-0.3,0.4-0.4,0.7c-0.1,0.2-0.2,0.5-0.2,0.8c0,0.3,0,0.5,0.2,0.8c0.1,0.2,0.2,0.5,0.4,0.6
		c0.2,0.2,0.4,0.3,0.6,0.4c0.2,0.1,0.5,0.2,0.8,0.2c0.3,0,0.6-0.1,0.8-0.2c0.3-0.1,0.5-0.3,0.6-0.4c0.2-0.2,0.3-0.4,0.4-0.6
		c0.1-0.2,0.2-0.5,0.2-0.8c0-0.3-0.1-0.5-0.2-0.8C479.1,58.7,478.9,58.5,478.8,58.3z M478.6,60.3c-0.1,0.2-0.2,0.3-0.3,0.5
		c-0.1,0.1-0.3,0.2-0.5,0.3c-0.2,0.1-0.4,0.1-0.6,0.1c-0.2,0-0.4,0-0.6-0.1c-0.2-0.1-0.3-0.2-0.5-0.3c-0.1-0.1-0.2-0.3-0.3-0.5
		c-0.1-0.2-0.1-0.4-0.1-0.6s0-0.4,0.1-0.6c0.1-0.2,0.2-0.3,0.3-0.5c0.1-0.1,0.3-0.2,0.4-0.3s0.4-0.1,0.6-0.1c0.2,0,0.4,0,0.6,0.1
		c0.2,0.1,0.3,0.2,0.5,0.3c0.1,0.1,0.2,0.3,0.3,0.5c0.1,0.2,0.1,0.4,0.1,0.6C478.7,59.9,478.7,60.1,478.6,60.3z"/>
	<polygon class="st3" points="477.5,57.2 478.4,56.4 477.8,56.1 477.1,57.2 	"/>
	<path class="st3" d="M483.4,58.1c-0.1-0.1-0.3-0.2-0.5-0.3c-0.2-0.1-0.4-0.1-0.6-0.1c-0.3,0-0.6,0.1-0.8,0.2
		c-0.2,0.1-0.4,0.3-0.5,0.5v-0.7h-0.6v3.9h0.6v-2.2c0-0.2,0-0.3,0.1-0.5c0.1-0.2,0.1-0.3,0.2-0.4c0.1-0.1,0.2-0.2,0.4-0.2
		c0.1-0.1,0.3-0.1,0.5-0.1c0.3,0,0.6,0.1,0.8,0.3c0.2,0.2,0.3,0.5,0.3,0.9v2.3h0.6v-2.4c0-0.2,0-0.4-0.1-0.6
		C483.6,58.4,483.5,58.2,483.4,58.1z"/>
	<polygon class="st3" points="488,59.3 490.8,59.3 490.8,58.7 488,58.7 488,56.9 491.2,56.9 491.2,56.4 487.4,56.4 487.4,61.6 
		491.2,61.6 491.2,61.1 488,61.1 	"/>
	<path class="st3" d="M495.3,58.5c-0.1-0.1-0.2-0.2-0.3-0.3c-0.1-0.1-0.2-0.2-0.3-0.3c-0.1-0.1-0.3-0.1-0.4-0.2
		c-0.2,0-0.3-0.1-0.5-0.1c-0.2,0-0.5,0-0.7,0.1c-0.2,0.1-0.4,0.2-0.6,0.4c-0.2,0.2-0.3,0.4-0.4,0.6c-0.1,0.3-0.2,0.5-0.2,0.9
		c0,0.3,0.1,0.6,0.2,0.9c0.1,0.3,0.2,0.5,0.4,0.6c0.2,0.2,0.4,0.3,0.6,0.4c0.2,0.1,0.4,0.1,0.7,0.1c0.2,0,0.3,0,0.5-0.1
		c0.1,0,0.3-0.1,0.4-0.2c0.1-0.1,0.2-0.2,0.3-0.3c0.1-0.1,0.2-0.2,0.3-0.3v0.8h0.6v-5.5h-0.6V58.5z M495.2,60.3
		c-0.1,0.2-0.2,0.3-0.3,0.5c-0.1,0.1-0.3,0.2-0.5,0.3c-0.2,0.1-0.3,0.1-0.5,0.1c-0.2,0-0.4,0-0.5-0.1c-0.2-0.1-0.3-0.2-0.4-0.3
		c-0.1-0.1-0.2-0.3-0.3-0.5c-0.1-0.2-0.1-0.4-0.1-0.6c0-0.2,0-0.4,0.1-0.6c0.1-0.2,0.2-0.3,0.3-0.5c0.1-0.1,0.3-0.2,0.4-0.3
		c0.2-0.1,0.3-0.1,0.5-0.1c0.2,0,0.4,0,0.5,0.1c0.2,0.1,0.3,0.2,0.5,0.3c0.1,0.1,0.2,0.3,0.3,0.5c0.1,0.2,0.1,0.4,0.1,0.6
		C495.4,59.9,495.3,60.1,495.2,60.3z"/>
	<path class="st3" d="M500,60c0,0.2,0,0.3-0.1,0.5c-0.1,0.2-0.1,0.3-0.2,0.4c-0.1,0.1-0.2,0.2-0.4,0.2c-0.1,0.1-0.3,0.1-0.5,0.1
		c-0.3,0-0.6-0.1-0.8-0.3c-0.2-0.2-0.3-0.5-0.3-0.9v-2.3h-0.6v2.4c0,0.2,0,0.4,0.1,0.6c0.1,0.2,0.2,0.4,0.3,0.5
		c0.1,0.1,0.3,0.2,0.5,0.3c0.2,0.1,0.4,0.1,0.6,0.1c0.3,0,0.6-0.1,0.8-0.2c0.2-0.1,0.4-0.3,0.5-0.5v0.7h0.6v-3.9H500V60z"/>
	<path class="st3" d="M504.3,61c-0.2,0.1-0.4,0.2-0.7,0.2c-0.2,0-0.4,0-0.6-0.1c-0.2-0.1-0.3-0.2-0.5-0.3c-0.1-0.1-0.2-0.3-0.3-0.5
		c-0.1-0.2-0.1-0.4-0.1-0.6c0-0.2,0-0.4,0.1-0.6c0.1-0.2,0.2-0.3,0.3-0.5c0.1-0.1,0.3-0.2,0.4-0.3c0.2-0.1,0.4-0.1,0.5-0.1
		c0.3,0,0.5,0.1,0.7,0.2c0.2,0.1,0.4,0.3,0.5,0.4l0.4-0.4c-0.1-0.1-0.2-0.2-0.3-0.3c-0.1-0.1-0.2-0.2-0.3-0.2
		c-0.1-0.1-0.3-0.1-0.4-0.1c-0.2,0-0.3-0.1-0.5-0.1c-0.3,0-0.6,0.1-0.8,0.2c-0.2,0.1-0.5,0.3-0.6,0.4c-0.2,0.2-0.3,0.4-0.4,0.7
		c-0.1,0.2-0.2,0.5-0.2,0.8c0,0.3,0.1,0.5,0.2,0.8c0.1,0.2,0.2,0.5,0.4,0.6c0.2,0.2,0.4,0.3,0.6,0.4c0.2,0.1,0.5,0.2,0.8,0.2
		c0.4,0,0.7-0.1,0.9-0.2c0.2-0.1,0.5-0.3,0.7-0.5l-0.4-0.3C504.7,60.8,504.5,60.9,504.3,61z"/>
	<path class="st3" d="M507.6,57.7c-0.3,0-0.5,0-0.8,0.1c-0.2,0.1-0.4,0.1-0.7,0.2l0.2,0.5c0.2-0.1,0.4-0.2,0.6-0.2
		c0.2-0.1,0.4-0.1,0.6-0.1c0.4,0,0.7,0.1,0.9,0.3c0.2,0.2,0.3,0.4,0.3,0.8v0.1c-0.2-0.1-0.4-0.1-0.5-0.1c-0.2,0-0.4,0-0.7,0
		c-0.2,0-0.5,0-0.7,0.1c-0.2,0.1-0.4,0.1-0.5,0.2c-0.1,0.1-0.3,0.2-0.3,0.4c-0.1,0.2-0.1,0.3-0.1,0.5c0,0.2,0,0.4,0.1,0.5
		c0.1,0.2,0.2,0.3,0.3,0.4c0.1,0.1,0.3,0.2,0.5,0.2c0.2,0.1,0.3,0.1,0.5,0.1c0.3,0,0.6-0.1,0.9-0.2c0.2-0.1,0.4-0.3,0.5-0.5v0.6h0.6
		v-2.4c0-0.5-0.1-0.9-0.4-1.2C508.5,57.8,508.1,57.7,507.6,57.7z M508.7,60.2c0,0.2,0,0.3-0.1,0.4c-0.1,0.1-0.2,0.2-0.3,0.3
		c-0.1,0.1-0.3,0.2-0.4,0.2c-0.2,0.1-0.3,0.1-0.5,0.1c-0.1,0-0.3,0-0.4-0.1c-0.1,0-0.2-0.1-0.3-0.2c-0.1-0.1-0.2-0.1-0.2-0.2
		c-0.1-0.1-0.1-0.2-0.1-0.3c0-0.3,0.1-0.4,0.3-0.6c0.2-0.1,0.5-0.2,0.8-0.2c0.2,0,0.5,0,0.6,0.1c0.2,0,0.4,0.1,0.5,0.1V60.2z"/>
	<path class="st3" d="M511.2,56.6h-0.6v1.2h-0.5v0.5h0.5v2.3c0,0.2,0,0.4,0.1,0.5c0.1,0.1,0.1,0.3,0.2,0.3c0.1,0.1,0.2,0.2,0.3,0.2
		c0.1,0,0.3,0.1,0.4,0.1c0.1,0,0.3,0,0.4,0c0.1,0,0.2-0.1,0.3-0.1V61c-0.1,0.1-0.2,0.1-0.3,0.1c-0.1,0-0.2,0-0.3,0
		c-0.2,0-0.4,0-0.5-0.1c-0.1-0.1-0.2-0.3-0.2-0.5v-2.3h1.2v-0.5h-1.2V56.6z"/>
	<rect x="513.5" y="57.8" class="st3" width="0.6" height="3.9"/>
	<rect x="513.5" y="56.3" class="st3" width="0.7" height="0.6"/>
	<polygon class="st3" points="517,61 515.7,57.8 515.1,57.8 516.8,61.7 517.3,61.7 519,57.8 518.3,57.8 	"/>
	<path class="st3" d="M522.4,58.1c-0.3-0.3-0.7-0.4-1.2-0.4c-0.3,0-0.5,0-0.8,0.1c-0.2,0.1-0.4,0.1-0.7,0.2l0.2,0.5
		c0.2-0.1,0.4-0.2,0.6-0.2c0.2-0.1,0.4-0.1,0.6-0.1c0.4,0,0.7,0.1,0.9,0.3c0.2,0.2,0.3,0.4,0.3,0.8v0.1c-0.2-0.1-0.4-0.1-0.5-0.1
		c-0.2,0-0.4,0-0.7,0c-0.2,0-0.5,0-0.7,0.1c-0.2,0.1-0.4,0.1-0.5,0.2c-0.1,0.1-0.3,0.2-0.3,0.4c-0.1,0.2-0.1,0.3-0.1,0.5
		c0,0.2,0,0.4,0.1,0.5c0.1,0.2,0.2,0.3,0.3,0.4c0.1,0.1,0.3,0.2,0.5,0.2c0.2,0.1,0.3,0.1,0.5,0.1c0.3,0,0.6-0.1,0.9-0.2
		c0.2-0.1,0.4-0.3,0.5-0.5v0.6h0.6v-2.4C522.8,58.8,522.7,58.4,522.4,58.1z M522.3,60.2c0,0.2,0,0.3-0.1,0.4
		c-0.1,0.1-0.2,0.2-0.3,0.3c-0.1,0.1-0.3,0.2-0.4,0.2c-0.2,0.1-0.3,0.1-0.5,0.1c-0.1,0-0.3,0-0.4-0.1c-0.1,0-0.2-0.1-0.3-0.2
		c-0.1-0.1-0.2-0.1-0.2-0.2c-0.1-0.1-0.1-0.2-0.1-0.3c0-0.3,0.1-0.4,0.3-0.6c0.2-0.1,0.5-0.2,0.8-0.2c0.2,0,0.5,0,0.6,0.1
		c0.2,0,0.4,0.1,0.5,0.1V60.2z"/>
</g>
</svg>
