<?xml version="1.0" encoding="utf-8"?>
<!-- Generator: Adobe Illustrator 22.1.0, SVG Export Plug-In . SVG Version: 6.00 Build 0)  -->
<svg version="1.1" id="Capa_1" xmlns="http://www.w3.org/2000/svg" xmlns:xlink="http://www.w3.org/1999/xlink" x="0px" y="0px"
	 viewBox="0 0 236.3 234.9" style="enable-background:new 0 0 236.3 234.9;" xml:space="preserve">
<style type="text/css">
	.st0{opacity:0.1;}
	.st1{fill:#F2B591;}
	.st2{fill:#FDF3C2;}
	.st3{fill:#6B2A28;}
</style>
<g class="st0">
	<path class="st1" d="M175.3,214.5l-1.1,5.1c-0.4,1.7,0.7,3.3,2.4,3.7l4.1,0.9c1.7,0.4,3.3-0.7,3.7-2.4l1.1-5.1L175.3,214.5z"/>
	
		<rect x="135.1" y="146.7" transform="matrix(0.2098 -0.9777 0.9777 0.2098 4.7501 309.7083)" class="st2" width="117.8" height="10.4"/>
	<polygon class="st2" points="204.1,87.5 211.2,89 209.5,79.7 	"/>
	<path class="st2" d="M84.6,78.5l62.9,13.5l6.5-30.4L91.2,48.1L84.6,78.5z M99,56.1l44.6,9.6c1.7,0.4,2.7,2,2.4,3.7
		c-0.4,1.7-2,2.7-3.7,2.4l-44.6-9.6c-1.7-0.4-2.7-2-2.4-3.7C95.6,56.8,97.3,55.7,99,56.1z M96.4,68.3l44.6,9.6
		c1.7,0.4,2.7,2,2.4,3.7c-0.4,1.7-2,2.7-3.7,2.4l-44.6-9.6c-1.7-0.4-2.7-2-2.4-3.7C93,69,94.7,67.9,96.4,68.3z"/>
	<path class="st1" d="M28.9,185.2c-1.7-0.4-2.7-2-2.4-3.7l5.2-24.3c0.4-1.7,2-2.7,3.7-2.4c0,0,1.3-6.1,1.3-6.1
		c-1.7-0.4-2.7-2-2.4-3.7L60.8,21.4c0.4-1.7,2-2.7,3.7-2.4c0,0,1.3-6.1,1.3-6.1l-13.2-2.8L14.4,188.5l13.2,2.8
		C27.6,191.3,28.9,185.2,28.9,185.2z"/>
	<path class="st1" d="M179.4,37.3L65.8,12.9L64.5,19c1.7,0.4,2.7,2,2.4,3.7L40.4,146.3c-0.4,1.7-2,2.7-3.7,2.4l-1.3,6.1
		c1.7,0.4,2.7,2,2.4,3.7l-5.2,24.3c-0.4,1.7-2,2.7-3.7,2.4l-1.3,6.1l113.5,24.4c5,1.1,10-2.1,11.1-7.2l34.4-160.1
		C187.6,43.3,184.4,38.4,179.4,37.3z M152.9,96.3c-0.4,1.7-2,2.7-3.7,2.4l-69-14.8c-1.7-0.4-2.7-2-2.4-3.7l7.8-36.5
		c0.4-1.7,2-2.7,3.7-2.4l69,14.8c1.7,0.4,2.7,2,2.4,3.7L152.9,96.3L152.9,96.3z"/>
	<path class="st3" d="M180.7,31.2L50.9,3.4c-1.7-0.4-3.3,0.7-3.7,2.4L7.6,190.2c-0.4,1.7,0.7,3.3,2.4,3.7l129.8,27.8
		c8.4,1.8,16.7-3.6,18.5-11.9l34.4-160.1C194.4,41.3,189.1,33,180.7,31.2z M152.2,208.5c-1.1,5-6,8.2-11.1,7.2L14.4,188.5L52.7,10.1
		l126.7,27.2c5,1.1,8.2,6,7.2,11.1L152.2,208.5z"/>
	<path class="st3" d="M60.8,21.4L34.3,145c-0.4,1.7,0.7,3.3,2.4,3.7c1.7,0.4,3.3-0.7,3.7-2.4L66.9,22.7c0.4-1.7-0.7-3.3-2.4-3.7
		C62.8,18.7,61.2,19.7,60.8,21.4z"/>
	<path class="st3" d="M31.7,157.2l-5.2,24.3c-0.4,1.7,0.7,3.3,2.4,3.7c1.7,0.4,3.3-0.7,3.7-2.4l5.2-24.3c0.4-1.7-0.7-3.3-2.4-3.7
		C33.7,154.5,32.1,155.5,31.7,157.2z"/>
	<path class="st3" d="M158.4,56.1l-69-14.8c-1.7-0.4-3.3,0.7-3.7,2.4l-7.8,36.5c-0.4,1.7,0.7,3.3,2.4,3.7l69,14.8
		c1.7,0.4,3.3-0.7,3.7-2.4l7.8-36.5C161.1,58.1,160.1,56.5,158.4,56.1z M147.5,91.9L84.6,78.5l6.5-30.4L154,61.5L147.5,91.9
		L147.5,91.9z"/>
	<path class="st3" d="M97.7,62.2l44.6,9.6c1.7,0.4,3.3-0.7,3.7-2.4c0.4-1.7-0.7-3.3-2.4-3.7L99,56.1c-1.7-0.4-3.3,0.7-3.7,2.4
		C94.9,60.2,96,61.8,97.7,62.2z"/>
	<path class="st3" d="M95.1,74.3l44.6,9.6c1.7,0.4,3.3-0.7,3.7-2.4c0.4-1.7-0.7-3.3-2.4-3.7l-44.6-9.6c-1.7-0.4-3.3,0.7-3.7,2.4
		C92.3,72.3,93.4,74,95.1,74.3z"/>
	<path class="st3" d="M218.2,93.4c0-0.1,0-0.2,0-0.2c0,0,0-0.1,0-0.1c0-0.1,0-0.2,0-0.3c0,0,0,0,0,0c0-0.1,0-0.2,0-0.3l-3.9-21.2
		c-0.2-1.2-1.2-2.2-2.4-2.5s-2.5,0.2-3.2,1.3l-12.3,17.7c-0.1,0.1-0.1,0.2-0.2,0.3c0,0,0,0,0,0c0,0.1-0.1,0.2-0.1,0.3c0,0,0,0,0,0.1
		c0,0.1-0.1,0.1-0.1,0.2c0,0.1-0.1,0.2-0.1,0.3l-27.8,129.4c-1.1,5,2.1,10,7.2,11.1l4.1,0.9c5,1.1,10-2.1,11.1-7.2l27.8-129.4
		C218.2,93.6,218.2,93.5,218.2,93.4z M180.6,224.1l-4.1-0.9c-1.7-0.4-2.7-2-2.4-3.7l1.1-5.1l10.1,2.2l-1.1,5.1
		C183.9,223.4,182.3,224.5,180.6,224.1z M211.4,95.4l-24.7,115.2l-10.1-2.2l24.7-115.2L211.4,95.4z M204.1,87.5l5.4-7.8l1.7,9.3
		L204.1,87.5z"/>
</g>
</svg>
