<?xml version="1.0" encoding="utf-8"?>
<!-- Generator: Adobe Illustrator 25.3.1, SVG Export Plug-In . SVG Version: 6.00 Build 0)  -->
<svg version="1.1" id="Capa_1" xmlns="http://www.w3.org/2000/svg" xmlns:xlink="http://www.w3.org/1999/xlink" x="0px" y="0px"
	 viewBox="0 0 574 456" style="enable-background:new 0 0 574 456;" xml:space="preserve">
<style type="text/css">
	.st0{fill:#D0B895;}
</style>
<g>
	<path class="st0" d="M402.5,155.6c10.1,21.8,15.7,46.1,15.7,71.8c0,94.7-76.6,170.9-171.3,170.8c-94.6-0.1-170.8-76.3-170.8-170.8
		S152.4,56.7,246.9,56.6c53.9,0,101.9,24.6,133.3,63.3c15.8-10,31.5-19.9,45.5-28.8C384.3,37.3,319.1,2.8,245.8,3.3
		C121.4,4.2,21.8,105.2,22.7,229.5c0.8,124.3,101.8,224,226.2,223.1c124.4-0.8,224-101.8,223.1-226.2c-0.2-35.9-8.9-69.7-24-99.7
		C434,135.6,418.2,145.6,402.5,155.6z"/>
	<path class="st0" d="M280.1,155.7c0.3,0,0.6,0,0.9,0c4,0.4,6.9,3.7,11.5,12.7c1.7,1.3,3.3,2.6,4.9,4l10.2-6.5
		c8.7-5.5,19.9-12.6,32.3-20.5c-22.6-24.6-55-40.1-91.1-40.4c-69.3-0.6-125.7,54.8-126.3,124.1c-0.6,69.3,54.8,125.7,124.1,126.3
		s125.7-54.8,126.3-124.1c0.2-18-3.5-35.1-10.1-50.6c-18.2,11.5-33.8,21.4-42.8,27.1c1.2,4.1,2,8.2,2.6,12.5c3.6,7,4.2,10.1,2.8,13
		c-0.6,1.2-1.5,2.1-2.5,2.9c-3.4,39.2-36.4,69.6-76.4,69.3c-42.1-0.4-75.8-34.6-75.4-76.7c0.4-42.1,34.6-75.7,76.7-75.4
		c9.1,0.1,17.9,1.8,26,4.8C275.5,156.7,277.7,155.7,280.1,155.7z"/>
	<path class="st0" d="M247,197.5c-18.2-0.2-33.1,14.4-33.2,32.7c-0.1,18.2,14.4,33.1,32.7,33.2c16.9,0.2,30.8-12.3,32.9-28.6
		c-0.3-0.1-0.6-0.1-0.8-0.2c-21.1-4.7-23.9-9.6-25-11.4c-0.9-1.6-3.7-6.3,1.1-24.8C252.2,197.9,249.6,197.5,247,197.5z"/>
	<path class="st0" d="M530.7,48c-0.3-0.5,3.7-38.9,2.3-39.8h-0.1c-2.9,0-35.8,22.2-36.4,23.1c-0.4,0.6-5.9,26-5.9,26
		s-25.4,16.1-36.4,23c-7.1,4.5-15.6,9.8-24.9,15.7c-13.9,8.8-29.6,18.7-45.4,28.7c-13.8,8.7-27.5,17.4-40,25.3
		c-17.7,11.2-32.8,20.8-42.1,26.6c-6,3.8-9.5,6-9.5,6s-8.4-20.6-11.9-21c-0.1,0-0.2,0-0.3,0H280c-0.1,0-0.1,0-0.2,0s-0.1,0-0.2,0
		s-0.2,0-0.2,0.1c-0.1,0-0.1,0-0.2,0.1c-0.1,0-0.2,0.1-0.2,0.1c-0.1,0-0.1,0.1-0.2,0.1s-0.2,0.1-0.3,0.1c-0.1,0-0.1,0.1-0.2,0.1
		c-0.1,0.1-0.2,0.1-0.3,0.2c-0.1,0-0.1,0.1-0.2,0.2c-0.1,0.1-0.2,0.1-0.3,0.2c-0.1,0.1-0.1,0.1-0.2,0.2c-0.1,0.1-0.2,0.2-0.3,0.2
		c-0.1,0.1-0.1,0.1-0.2,0.2c-0.1,0.1-0.2,0.2-0.3,0.3c-0.1,0.1-0.1,0.1-0.2,0.2c-0.1,0.1-0.2,0.2-0.3,0.3c-0.1,0.1-0.1,0.2-0.2,0.2
		c-0.1,0.1-0.2,0.2-0.3,0.4c-0.1,0.1-0.1,0.2-0.2,0.2c-0.1,0.1-0.2,0.3-0.3,0.4c-0.1,0.1-0.1,0.2-0.2,0.3s-0.2,0.3-0.3,0.4
		c-0.1,0.1-0.1,0.2-0.2,0.3c-0.1,0.2-0.2,0.3-0.3,0.5c-0.1,0.1-0.1,0.2-0.2,0.3c-0.1,0.2-0.2,0.3-0.3,0.5c-0.1,0.1-0.1,0.2-0.2,0.3
		c-0.1,0.2-0.2,0.4-0.3,0.6c-0.1,0.1-0.1,0.2-0.2,0.3c-0.1,0.2-0.2,0.4-0.4,0.6c-0.1,0.1-0.1,0.2-0.2,0.3c-0.1,0.2-0.2,0.4-0.4,0.6
		c-0.1,0.1-0.1,0.2-0.2,0.3c-0.1,0.2-0.2,0.4-0.4,0.7c-0.1,0.1-0.1,0.2-0.2,0.3c-0.1,0.2-0.2,0.5-0.4,0.7c-0.1,0.1-0.1,0.2-0.2,0.3
		c-0.1,0.2-0.2,0.5-0.4,0.7c-0.1,0.1-0.1,0.2-0.2,0.3c-0.1,0.3-0.2,0.5-0.4,0.8c0,0.1-0.1,0.2-0.1,0.3c-0.1,0.3-0.2,0.5-0.4,0.8
		c0,0.1-0.1,0.2-0.1,0.3c-0.1,0.3-0.2,0.5-0.4,0.8c0,0.1-0.1,0.2-0.1,0.3c-0.1,0.3-0.2,0.5-0.4,0.8c0,0.1-0.1,0.2-0.1,0.3
		c-0.1,0.3-0.2,0.6-0.4,0.8c0,0.1-0.1,0.2-0.1,0.3c-0.1,0.3-0.2,0.6-0.4,0.9c0,0.1-0.1,0.2-0.1,0.3c-0.1,0.3-0.2,0.6-0.4,0.9
		c0,0.1-0.1,0.2-0.1,0.3c-0.1,0.3-0.2,0.6-0.4,0.9c0,0.1-0.1,0.2-0.1,0.3c-0.1,0.3-0.2,0.6-0.3,0.9c0,0.1-0.1,0.2-0.1,0.4
		c-0.1,0.3-0.2,0.6-0.3,0.9c0,0.1-0.1,0.2-0.1,0.4c-0.1,0.3-0.2,0.6-0.3,0.9c0,0.1-0.1,0.2-0.1,0.4c-0.1,0.3-0.2,0.6-0.3,0.9
		c0,0.1-0.1,0.2-0.1,0.4c-0.1,0.3-0.2,0.6-0.3,0.9c0,0.1-0.1,0.3-0.1,0.4c-0.1,0.3-0.2,0.6-0.3,0.9c0,0.1-0.1,0.3-0.1,0.4
		c-0.1,0.3-0.2,0.6-0.3,0.9c0,0.1-0.1,0.3-0.1,0.4c-0.1,0.3-0.2,0.6-0.3,0.9c0,0.1-0.1,0.3-0.1,0.4c-0.1,0.3-0.2,0.6-0.3,0.9
		c0,0.1-0.1,0.3-0.1,0.4c-0.1,0.3-0.2,0.6-0.3,0.9c0,0.1-0.1,0.3-0.1,0.4c-0.1,0.3-0.2,0.6-0.2,0.9c0,0.1-0.1,0.3-0.1,0.4
		c-0.1,0.3-0.2,0.6-0.2,0.8c0,0.1-0.1,0.3-0.1,0.4c-0.1,0.3-0.1,0.5-0.2,0.8c0,0.1-0.1,0.3-0.1,0.4c-0.1,0.3-0.1,0.5-0.2,0.8l0,0
		c0,0.1-0.1,0.3-0.1,0.4c-0.1,0.3-0.1,0.5-0.2,0.8c0,0.1-0.1,0.3-0.1,0.4c-0.1,0.3-0.1,0.5-0.2,0.8c0,0.1-0.1,0.3-0.1,0.4
		c-0.1,0.3-0.1,0.5-0.2,0.8c0,0.1-0.1,0.3-0.1,0.4c-0.1,0.2-0.1,0.5-0.2,0.7c0,0.2-0.1,0.3-0.1,0.5s-0.1,0.5-0.1,0.7
		s-0.1,0.3-0.1,0.5s-0.1,0.4-0.1,0.7c0,0.2-0.1,0.3-0.1,0.4c0,0.2-0.1,0.4-0.1,0.6c0,0.2,0,0.3-0.1,0.4c0,0.2-0.1,0.4-0.1,0.6
		c0,0.2,0,0.3-0.1,0.5c0,0.2-0.1,0.4-0.1,0.6c0,0.2,0,0.3-0.1,0.4c0,0.2,0,0.4-0.1,0.5c0,0.1,0,0.3,0,0.4c0,0.2,0,0.4-0.1,0.5
		c0,0.1,0,0.3,0,0.4c0,0.2,0,0.3,0,0.5c0,0.1,0,0.3,0,0.4c0,0.2,0,0.3,0,0.5c0,0.1,0,0.3,0,0.4c0,0.1,0,0.3,0,0.4c0,0.1,0,0.3,0,0.4
		c0,0.1,0,0.3,0,0.4c0,0.1,0,0.2,0,0.4c0,0.1,0,0.3,0,0.4c0,0.1,0,0.2,0,0.4c0,0.1,0,0.2,0,0.3s0,0.2,0,0.3s0,0.2,0,0.3
		s0,0.2,0.1,0.3c0,0.1,0,0.2,0.1,0.3c0,0.1,0.1,0.2,0.1,0.3s0,0.2,0.1,0.3c0,0.1,0.1,0.2,0.1,0.3s0,0.1,0.1,0.2
		c0.1,0.1,0.1,0.2,0.2,0.3v0.1c0.1,0.2,0.2,0.3,0.4,0.5l0.1,0.1c0.2,0.2,0.3,0.3,0.5,0.5l0,0c0.2,0.2,0.4,0.3,0.6,0.5
		c0.1,0,0.1,0.1,0.2,0.1c0.2,0.2,0.5,0.3,0.8,0.5c0,0,0.1,0,0.1,0.1c0.3,0.2,0.5,0.3,0.8,0.5c0.1,0,0.1,0.1,0.2,0.1
		c0.3,0.2,0.6,0.3,1,0.5c0,0,0.1,0,0.1,0.1c0.3,0.1,0.6,0.3,1,0.4c0.1,0,0.2,0.1,0.3,0.1c0.4,0.2,0.8,0.3,1.2,0.5
		c0.1,0,0.1,0.1,0.2,0.1c0.4,0.1,0.7,0.3,1.1,0.4c0.1,0,0.2,0.1,0.3,0.1c0.4,0.2,0.9,0.3,1.3,0.5c0.1,0,0.2,0.1,0.3,0.1
		c0.4,0.1,0.8,0.3,1.2,0.4c0.1,0,0.2,0.1,0.3,0.1c0.5,0.1,1,0.3,1.5,0.4c0.1,0,0.2,0.1,0.3,0.1c0.4,0.1,0.9,0.2,1.3,0.4
		c0.1,0,0.2,0.1,0.3,0.1c0.5,0.1,1.1,0.3,1.6,0.4c0.1,0,0.2,0.1,0.4,0.1c0.5,0.1,1,0.2,1.4,0.4c0.1,0,0.2,0.1,0.3,0.1
		c0.5,0.1,1.1,0.2,1.6,0.4h0.1c0.1,0,0.2,0.1,0.4,0.1c0.5,0.1,1,0.2,1.5,0.3c0.1,0,0.2,0,0.3,0.1c0.6,0.1,1.2,0.2,1.8,0.4
		c0.1,0,0.3,0.1,0.4,0.1c0.5,0.1,1.1,0.2,1.6,0.3c0.1,0,0.2,0,0.3,0c0.6,0.1,1.2,0.2,1.8,0.3c0.1,0,0.3,0.1,0.4,0.1
		c0.6,0.1,1.1,0.2,1.7,0.3c0.1,0,0.1,0,0.2,0c0.6,0.1,1.2,0.2,1.8,0.3c0.1,0,0.3,0,0.4,0.1c0.6,0.1,1.1,0.2,1.7,0.2h0.1
		c0.6,0.1,1.2,0.2,1.8,0.2c0.1,0,0.3,0,0.4,0.1c1.2,0.1,2.3,0.3,3.5,0.4c0.1,0,0.3,0,0.4,0c0.6,0.1,1.1,0.1,1.7,0.2h0.1
		c0.5,0,1.1,0.1,1.6,0.1c0.1,0,0.3,0,0.4,0c0.5,0,1.1,0.1,1.6,0.1h0.1c0.5,0,1,0.1,1.4,0.1c0.1,0,0.2,0,0.4,0c0.5,0,1,0,1.5,0
		c0.1,0,0.1,0,0.2,0c0.4,0,0.8,0,1.2,0c0.1,0,0.1,0,0.2,0s0.1,0,0.2,0c0.2,0,0.3,0,0.5,0s0.3,0,0.5,0s0.3,0,0.4,0c0.2,0,0.3,0,0.5,0
		c0.1,0,0.3,0,0.4,0c0.2,0,0.3,0,0.4,0s0.3,0,0.4,0s0.3,0,0.4,0s0.3,0,0.4,0s0.3,0,0.4,0s0.3,0,0.4,0s0.2,0,0.4,0
		c0.1,0,0.2,0,0.3-0.1c0.1,0,0.2,0,0.3-0.1c0.1,0,0.2,0,0.3-0.1c0.1,0,0.2,0,0.3-0.1c0.1,0,0.2,0,0.3-0.1c0.1,0,0.2-0.1,0.3-0.1
		c0.1,0,0.2,0,0.3-0.1c0.1,0,0.2-0.1,0.3-0.1c0.1,0,0.2-0.1,0.2-0.1c0.1,0,0.2-0.1,0.2-0.1c0.1,0,0.1-0.1,0.2-0.1s0.1-0.1,0.2-0.1
		s0.1-0.1,0.2-0.1s0.1-0.1,0.2-0.1l0.1-0.1c0.1-0.1,0.1-0.1,0.2-0.2l0.1-0.1c0.1-0.1,0.1-0.2,0.2-0.3c1.2-2.4-11.5-22.6-11.5-22.6
		s3.5-2.2,9.6-6.1c0.4-0.3,0.8-0.5,1.2-0.8c2.3-1.4,4.9-3.1,7.7-4.9c5-3.2,10.8-6.8,17.2-10.9c3.7-2.3,7.5-4.8,11.5-7.3
		c1.5-1,3-1.9,4.6-2.9c1.5-1,3.1-2,4.7-3c2.1-1.3,4.2-2.7,6.4-4c4.3-2.7,8.7-5.5,13.2-8.3c1.1-0.7,2.2-1.4,3.4-2.1
		c2.2-1.4,4.5-2.8,6.7-4.3c1.1-0.7,2.3-1.4,3.4-2.1c0.6-0.4,1.3-0.8,1.9-1.2c1.6-1,3.3-2.1,4.9-3.1c5.6-3.6,11.3-7.1,16.8-10.6
		c2.2-1.4,4.4-2.8,6.6-4.2s4.3-2.7,6.4-4.1c2.1-1.3,4.2-2.7,6.3-4c1.5-1,3-1.9,4.5-2.9c9.5-6,18.2-11.5,25.4-16.1
		c10.9-6.9,36.3-22.9,36.3-22.9s24,7.2,24.9,7.2l0,0c1.1-0.1,37.3-22.3,37.2-24.1C568.9,63.6,531,48.5,530.7,48z"/>
</g>
</svg>
