<?xml version="1.0" encoding="utf-8"?>
<!-- Generator: Adobe Illustrator 25.3.1, SVG Export Plug-In . SVG Version: 6.00 Build 0)  -->
<svg version="1.1" id="Capa_1" xmlns="http://www.w3.org/2000/svg" xmlns:xlink="http://www.w3.org/1999/xlink" x="0px" y="0px"
	 viewBox="0 0 56 31" style="enable-background:new 0 0 56 31;" xml:space="preserve">
<style type="text/css">
	.st0{fill:#D0B895;}
	.st1{fill:#FFFFFF;}
</style>
<g>
	<circle class="st0" cx="15.9" cy="15.5" r="15"/>
	<path class="st1" d="M26,15.8v-0.5c0-0.1,0-0.2,0-0.3c-0.2-2.4-0.8-5.2-2.7-7.2c-1.7-1.7-4.1-2.5-7.1-2.5c0,0,0,0-0.1,0
		c-3.3,0-5.7,0.9-7.4,2.5C6,10.4,6,14.4,6,16.8v0.4l0,0v4.4c0,1.5,1.2,2.7,2.7,2.7h2.8c0.3,0,0.6-0.3,0.6-0.6V16
		c0-0.9-0.8-1.7-1.7-1.7H7.1l0,0c0.2-1.9,0.7-4.1,2.3-5.7c1.5-1.5,3.8-2.2,6.8-2.2c2.8,0,5,0.8,6.4,2.2c1.5,1.5,2.1,3.7,2.4,5.7
		h-3.2c-0.9,0-1.7,0.8-1.7,1.7v7.7c0,0.3,0.3,0.6,0.6,0.6h2.8c1.5,0,2.7-1.2,2.7-2.7v-3.3l0,0c0-0.2,0-0.3,0-0.5
		C26,17.2,26,16.5,26,15.8z"/>
</g>
</svg>
