<?xml version="1.0" encoding="utf-8"?>
<!-- Generator: Adobe Illustrator 25.3.1, SVG Export Plug-In . SVG Version: 6.00 Build 0)  -->
<svg version="1.1" id="Capa_1" xmlns="http://www.w3.org/2000/svg" xmlns:xlink="http://www.w3.org/1999/xlink" x="0px" y="0px"
	 viewBox="0 0 150 203.8" style="enable-background:new 0 0 150 203.8;" xml:space="preserve">
<style type="text/css">
	.st0{fill:#D0B895;}
</style>
<g>
	<g>
		<path class="st0" d="M50.6,153.6c-0.3,0-0.7-0.1-1-0.2c-0.6-0.3-0.9-0.9-0.9-1.5v-16.1H37.3c-6,0-10.9-4.6-10.9-10.2V72.8
			c0-5.6,4.9-10.2,10.9-10.2h75.4c6,0,10.9,4.6,10.9,10.2v52.6c0,5.6-4.9,10.2-10.9,10.2H86.9l-35.5,17.7
			C51.2,153.5,50.9,153.6,50.6,153.6z M37.3,66c-4,0-7.2,3-7.2,6.8v52.6c0,3.7,3.2,6.8,7.2,6.8h13.3c1,0,1.8,0.8,1.8,1.7v15
			l33.1-16.5c0.3-0.1,0.6-0.2,0.9-0.2h26.2c4,0,7.2-3,7.2-6.8V72.8c0-3.7-3.2-6.8-7.2-6.8H37.3z"/>
	</g>
	<g>
		<g>
			<path class="st0" d="M72.7,129.1c-1.7,0-3.1-0.5-4.4-1.5c-0.9-0.7-2-2.1-2-4.4c0-1.7,0.6-3.1,1.8-4.2c1.2-1.1,2.7-1.7,4.5-1.7
				c1.7,0,3.3,0.6,4.4,1.7c1.2,1.1,1.8,2.6,1.8,4.2c0,1.8-0.7,3.3-1.9,4.4C75.7,128.6,74.3,129.1,72.7,129.1z M72.7,120.7
				c-0.8,0-1.4,0.2-1.9,0.7s-0.8,1-0.8,1.8c0,1.1,0.4,1.6,0.7,1.8c0.6,0.5,1.2,0.7,1.9,0.7c0.7,0,1.3-0.2,1.8-0.7
				c0.3-0.3,0.7-0.7,0.7-1.8c0-0.7-0.2-1.3-0.7-1.8C74,120.9,73.4,120.7,72.7,120.7z M72.3,113.8c-1.5,0-2.9-0.6-3.9-1.6
				s-1.5-2.5-1.5-4.3c0-1.9,0.3-3.6,0.9-5.1c0.6-1.4,1.4-2.7,2.3-3.8c0.9-1,2.1-2.2,3.5-3.5c1.2-1.1,2.1-2,2.6-2.5
				c0.4-0.5,0.8-1,1.1-1.6c0.3-0.5,0.4-1,0.4-1.6c0-1.2-0.4-2.1-1.2-2.9c-0.8-0.8-1.9-1.2-3.2-1.2c-1.6,0-2.7,0.4-3.3,1.1
				c-0.9,1-1.6,2.4-2.2,4.4c-1.2,4.1-4,4.7-5.6,4.7s-3.1-0.6-4.2-1.8c-1.1-1.1-1.6-2.4-1.6-3.8c0-2.2,0.7-4.5,2-6.8s3.3-4.1,5.9-5.6
				s5.6-2.2,9-2.2c3.1,0,6,0.6,8.4,1.9c2.5,1.2,4.4,3,5.8,5.1s2,4.5,2,7c0,2-0.4,3.8-1.2,5.3c-0.8,1.5-1.7,2.7-2.7,3.8
				c-1,1-2.7,2.6-5.1,4.9c-0.6,0.6-1.1,1.1-1.5,1.5c-0.4,0.5-0.6,0.8-0.7,1c-0.1,0.3-0.3,0.6-0.3,0.9c-0.1,0.4-0.3,1-0.5,2
				C77.1,112.2,75.2,113.8,72.3,113.8z M73.4,82.3c2.4,0,4.3,0.7,5.8,2.2s2.3,3.3,2.3,5.4c0,1.1-0.3,2.2-0.8,3.1
				c-0.5,0.8-1,1.6-1.7,2.3c-0.6,0.6-1.5,1.5-2.8,2.7c-1.4,1.3-2.5,2.4-3.3,3.3c-0.7,0.8-1.3,1.8-1.7,2.8c-0.4,1.1-0.6,2.4-0.6,3.9
				c0,0.6,0.1,1.5,0.5,1.9c0.3,0.3,0.7,0.5,1.2,0.5c0.6,0,1.4,0,1.7-1.7c0,0,0,0,0-0.1c0.2-1.1,0.4-1.8,0.5-2.2
				c0.1-0.5,0.3-1,0.6-1.5c0.3-0.5,0.6-1.1,1.1-1.7c0.4-0.5,1-1.1,1.7-1.8c2.4-2.2,4.1-3.8,5-4.8c0.8-0.8,1.5-1.8,2.1-3
				c0.6-1.1,0.8-2.4,0.8-3.8c0-1.9-0.5-3.6-1.5-5.3c-1-1.6-2.4-2.9-4.3-3.8c-1.9-1-4.1-1.4-6.7-1.4c-2.7,0-5.1,0.6-7.1,1.7
				s-3.6,2.6-4.6,4.3c-1,1.7-1.6,3.4-1.6,5.1c0,0.5,0.2,1,0.7,1.5c0.4,0.4,0.8,0.6,1.4,0.6c0.4,0,1.4,0,2-2.2c0.8-2.5,1.8-4.4,3-5.7
				C68.6,83.1,70.7,82.3,73.4,82.3z"/>
		</g>
	</g>
</g>
</svg>
