<?xml version="1.0" encoding="utf-8"?>
<!-- Generator: Adobe Illustrator 25.3.1, SVG Export Plug-In . SVG Version: 6.00 Build 0)  -->
<svg version="1.1" id="Layer_1" xmlns="http://www.w3.org/2000/svg" xmlns:xlink="http://www.w3.org/1999/xlink" x="0px" y="0px"
	 viewBox="0 0 100 100" style="enable-background:new 0 0 100 100;" xml:space="preserve">
<style type="text/css">
	.st0{fill:#D0B895;}
</style>
<g>
	<path class="st0" d="M50,1.5C23.1,1.5,1.5,23.1,1.5,50S23.2,98.5,50,98.5c26.9,0,48.5-21.7,48.5-48.5C98.5,23.1,76.9,1.5,50,1.5z
		 M85.1,33.6c0,0-0.8,0-2.2,0v39c0,1-0.8,1.8-1.8,1.8H50.9c0,2.9,0,7.2,0,9.6c0.7,0.4,1.2,1.2,1.2,2.1c0,1.4-1.1,2.5-2.5,2.5
		s-2.5-1.1-2.5-2.5c0-1,0.6-1.8,1.4-2.2c0-2.4,0-6.6,0-9.5H19.9c-1,0-1.8-0.8-1.8-1.8v-39c-1.9,0-2.9,0-2.9,0s-0.8-0.5-0.8-1.7
		c-0.1-1.6,0.9-2.3,0.9-2.3h70.3c0,0,0.7,1,0.5,2.3C85.8,33,85.1,33.6,85.1,33.6z"/>
	<path class="st0" d="M79.3,34.6H21.7v36.2h57.6V34.6z M51.2,58.7c-0.3,0.4-24.7,0.4-25,0v-1.9c0.3-0.4,24.7-0.4,25,0V58.7z
		 M51.2,53.6c-0.3,0.5-24.7,0.5-25,0v-1.9c0.3-0.5,24.7-0.5,25,0C51.2,51.7,51.2,53.6,51.2,53.6z M51.2,48.2c-0.3,0.5-24.7,0.5-25,0
		v-1.9c0.3-0.4,24.7-0.4,25,0C51.2,46.3,51.2,48.1,51.2,48.2z M51.2,42.3c-0.3,0.5-24.7,0.5-25,0v-1.9c0.3-0.5,24.7-0.5,25,0
		C51.2,40.5,51.2,42.3,51.2,42.3z M61,63.4h-3.8v-3.8H61V63.4z M67.3,63.4h-3.8v-3.8h3.8V63.4z M73.5,63.4h-3.8v-3.8h3.8V63.4z
		 M67.9,55.7c-4.6,0-8.3-3.7-8.3-8.3s3.7-8.3,8.3-8.3s8.3,3.7,8.3,8.3C76.2,52,72.5,55.7,67.9,55.7z"/>
</g>
</svg>
