<?xml version="1.0" encoding="utf-8"?>
<!-- Generator: Adobe Illustrator 25.3.1, SVG Export Plug-In . SVG Version: 6.00 Build 0)  -->
<svg version="1.1" id="Capa_1" xmlns="http://www.w3.org/2000/svg" xmlns:xlink="http://www.w3.org/1999/xlink" x="0px" y="0px"
	 viewBox="0 0 150 203.8" style="enable-background:new 0 0 150 203.8;" xml:space="preserve">
<style type="text/css">
	.st0{fill:#D0B895;}
</style>
<g>
	<g>
		<path class="st0" d="M89.8,153.6h-6.7c-5.3,0-10.3-2.1-14.1-5.8l-30.5-30.1c-0.3-0.3-0.5-0.8-0.5-1.2c0-0.5,0.2-0.9,0.6-1.2
			c6.3-5.5,15.7-5.5,21.9,0.1l2.7,2.4l0.4-46.9c0-4.7,3.4-8.2,7.8-8.2c1.9,0,3.8,0.9,5.3,2.3c1.6,1.6,2.5,3.8,2.5,6l-0.1,28.9
			l1.1-1.3c0,0,0,0,0.1-0.1c4.7-4.7,7.8-2.7,10.9-0.7c0.3,0.2,0.5,0.3,0.8,0.5l15.9,9.6c2.6,1.6,4.1,4.4,4.1,7.4v14.2
			C112,143.4,102.7,153.6,89.8,153.6z M42.2,116.6l29.2,28.8c3.2,3.1,7.3,4.8,11.7,4.8h6.7c10.9,0,18.8-8.8,18.8-20.8v-14.2
			c0-1.9-0.9-3.6-2.5-4.5l-15.9-9.6c-0.3-0.2-0.6-0.4-0.8-0.5c-2.9-1.9-3.9-2.5-6.7,0.2l-4,4.5c-0.5,0.5-1.2,0.7-1.8,0.5
			c-0.6-0.2-1.1-0.9-1.1-1.6l0.1-33.3c0-1.3-0.6-2.6-1.5-3.6c-0.9-0.9-1.9-1.4-2.9-1.4c-2.5,0-4.4,2.1-4.5,4.9l-0.4,50.6
			c0,0.7-0.4,1.2-1,1.5s-1.3,0.2-1.8-0.3l-5.4-4.9C53.7,113.8,47.1,113.4,42.2,116.6z"/>
	</g>
	<g>
		<path class="st0" d="M88.7,89.4c-3.3,0-6.5-1.1-7.2-1.3l-11.1-3c-0.7-0.2-1.2-0.8-1.2-1.6c0-0.7,0.4-1.4,1.1-1.6l12.1-4
			c0,0,0,0,0.1,0c0.9-0.2,8.4-2.4,12.1,0.5c0.9,0.7,2,2.1,2,4.5c-0.1,3-1.5,4.5-2.7,5.3C92.4,89.1,90.5,89.4,88.7,89.4z M76.6,83.3
			l5.8,1.6h0.1c1.7,0.6,7.1,2,9.5,0.4c0.5-0.3,1.2-1,1.2-2.7c0-1-0.3-1.5-0.7-1.7c-1.8-1.4-6.9-0.6-9.1,0.1L76.6,83.3z"/>
	</g>
	<g>
		<path class="st0" d="M53.7,89.4c-1.8,0-3.7-0.3-5.2-1.3c-1.2-0.8-2.6-2.4-2.7-5.3c-0.1-2.4,1-3.7,2-4.5c3.7-2.8,11.2-0.7,12.1-0.5
			c0,0,0,0,0.1,0l12.1,4c0.7,0.2,1.2,0.9,1.1,1.6c0,0.7-0.5,1.4-1.2,1.6l-11.1,3C60.2,88.4,57,89.4,53.7,89.4z M53.2,80.2
			c-1.4,0-2.6,0.2-3.4,0.8c-0.3,0.3-0.7,0.7-0.7,1.7c0.1,1.7,0.7,2.3,1.2,2.7c2.4,1.6,7.8,0.2,9.5-0.4h0.1l5.8-1.6L58.9,81
			C57.4,80.6,55.2,80.2,53.2,80.2z"/>
	</g>
</g>
</svg>
