<?xml version="1.0" encoding="utf-8"?>
<!-- Generator: Adobe Illustrator 25.3.1, SVG Export Plug-In . SVG Version: 6.00 Build 0)  -->
<svg version="1.1" id="Capa_1" xmlns="http://www.w3.org/2000/svg" xmlns:xlink="http://www.w3.org/1999/xlink" x="0px" y="0px"
	 viewBox="0 0 150 203.8" style="enable-background:new 0 0 150 203.8;" xml:space="preserve">
<style type="text/css">
	.st0{fill:#D0B895;}
</style>
<g>
	<g>
		<path class="st0" d="M107.4,153.3H67.8v-7.2c-0.2-0.5-0.7-1-1.2-1.2c-0.4-0.2-1.1-0.4-2,0h-0.1l-8.7,2.9c-2.4,1.1-5.1,0.9-7.3-0.3
			c-2.3-1.3-3.8-3.6-4-6.3L43,124.8c-0.1-0.3-0.3-0.6-0.6-0.8c-0.3-0.2-0.7-0.2-1-0.1l-2.1,0.6H39c-2.2-0.2-4.1-1.5-5-3.5
			c-1-2-0.8-4.3,0.4-6.1l7.2-11c-0.1-2.9-0.2-15.5,8.4-26.8c4.2-5.5,13.6-14.8,29.6-14.8c17.7,0,25.9,7.6,30.5,13.3
			c11.5,14.1,4.5,33.6,1.1,39.4c-1,1.6-2,3.1-3.1,4.6c-3.2,4.5-5.7,8.1-4.1,13.6c1.3,4.3,2.9,17.7,3,18.3L107.4,153.3z M71.1,150.1
			h32.7c-0.5-3.9-1.7-12.8-2.6-16c-2.1-7,1.3-11.8,4.6-16.4c1-1.4,2-2.8,2.9-4.4c1.4-2.4,3.9-8.3,4.6-15.4c0.8-8.1-1.1-15-5.4-20.3
			c-4.2-5.2-11.7-12.1-28-12.1c-14.6,0-23.2,8.5-27,13.5c-8.8,11.5-7.7,25-7.7,25.1v0.6l-0.3,0.5l-7.5,11.5c-0.6,0.9-0.7,2-0.2,2.9
			c0.4,0.9,1.2,1.5,2.1,1.6l1.5-0.4c1.2-0.4,2.5-0.2,3.6,0.5s1.8,1.7,2.1,3v0.1l1.5,16.5c0.1,1.6,1,3,2.4,3.8s3,0.9,4.5,0.2l0.2-0.1
			l8.7-2.9c1.5-0.6,3.1-0.5,4.5,0.1c1.4,0.7,2.5,1.9,2.9,3.3l0.1,0.2v4.6H71.1z"/>
	</g>
	<g>
		<path class="st0" d="M72.9,123.4L72.9,123.4c-1.2,0-2.4,0-3.6,0h-1.8c-0.3,0-0.6-0.1-0.7-0.1c-0.7-0.2-1.1-0.8-1.1-1.5v-0.7
			c0-0.4,0-0.7,0-1.1c-0.3-0.1-0.5-0.2-0.8-0.3l-1.2,1.3c-0.3,0.3-0.7,0.5-1.1,0.5l0,0c-0.4,0-0.8-0.2-1.1-0.5l-4.1-4.2
			c-0.3-0.3-0.5-0.7-0.5-1.2c0-0.4,0.2-0.9,0.5-1.1l1.3-1.2l-0.3-0.8h-1.8c-0.9,0-1.6-0.7-1.6-1.6V105c0-0.9,0.7-1.6,1.6-1.6h1.8
			l0.3-0.8l-1.3-1.3c-0.3-0.3-0.5-0.7-0.5-1.1s0.2-0.8,0.5-1.1l4.2-4.2c0.3-0.3,0.7-0.5,1.2-0.5c0.4,0,0.8,0.2,1.1,0.5l1.2,1.3
			c0.3-0.1,0.5-0.2,0.8-0.3c0-0.4,0-0.8,0-1.2V94c0-0.9,0.7-1.6,1.6-1.6h5.9c0.9,0,1.6,0.7,1.6,1.6v1.9c0.3,0.1,0.5,0.2,0.8,0.3
			l1.3-1.3c0.3-0.3,0.7-0.5,1.1-0.5s0.8,0.2,1.2,0.5l4.2,4.2c0.6,0.6,0.6,1.6,0,2.3c-0.1,0.1-0.3,0.3-0.4,0.4
			c-0.3,0.3-0.6,0.6-0.9,0.9c0.1,0.3,0.2,0.5,0.3,0.8c0.4,0,0.7,0,1.1,0h0.8c0.9,0,1.6,0.7,1.6,1.6v5.9c0,0.9-0.7,1.6-1.6,1.6h-0.7
			c-0.4,0-0.8,0-1.1,0c-0.1,0.2-0.2,0.5-0.3,0.7c0.3,0.3,0.5,0.5,0.8,0.8l0.5,0.5c0.3,0.3,0.5,0.7,0.5,1.1s-0.2,0.8-0.5,1.2
			l-4.1,4.2c-0.3,0.3-0.7,0.5-1.1,0.5l0,0c-0.4,0-0.8-0.2-1.1-0.5l-1.2-1.2c-0.3,0.1-0.5,0.2-0.8,0.3c0,0.5,0,1,0,1.5
			c0,0.2,0,0.9-0.5,1.5C74,123.1,73.6,123.4,72.9,123.4z M68.9,121.8L68.9,121.8L68.9,121.8z M72.9,120.2L72.9,120.2L72.9,120.2z
			 M68.9,120.2h0.4c0.8,0,1.5,0,2.3,0c0-0.4,0-0.7,0-1.1c0-0.7,0.4-1.5,1.2-1.9c0.7-0.3,1.3-0.5,2-0.8l0.7-0.3
			c0.6-0.2,1.3-0.1,1.7,0.4l0.8,0.8l1.8-1.8c-0.2-0.2-0.4-0.4-0.6-0.5c-0.8-0.7-0.9-1.7-0.5-2.6c0.3-0.6,0.5-1.2,0.7-1.7
			c0.3-1,1.1-1.5,2.1-1.5c0.3,0,0.6,0,0.9,0v-2.6c-0.3,0-0.7,0-1,0c-1,0-1.7-0.5-2-1.4l-0.1-0.2c-0.2-0.5-0.3-0.9-0.5-1.2
			c-0.7-1.2-0.5-2.3,0.5-3.2c0.1-0.1,0.3-0.2,0.4-0.3l-1.7-2l-0.9,0.9c-0.5,0.5-1.1,0.6-1.7,0.4l-0.7-0.3c-0.7-0.3-1.3-0.5-1.9-0.8
			s-1.1-0.9-1.2-1.5c0-0.3,0-0.6,0-0.8v-0.6h-2.7c0,0.4,0,0.7,0,1.1c0,0.6-0.4,1.5-1.2,1.8c-0.6,0.3-1.3,0.5-2,0.8L65,99.6
			c-0.6,0.2-1.3,0.1-1.7-0.4l-0.8-0.9l-1.9,1.9l0.9,0.9c0.5,0.5,0.6,1.2,0.4,1.8l-1.1,2.7c-0.2,0.6-0.8,1-1.5,1H58v2.6h1.3
			c0.7,0,1.2,0.4,1.5,1L62,113c0.3,0.6,0.1,1.3-0.4,1.8l-0.9,0.8l1.8,1.8l0.9-0.9c0.5-0.5,1.2-0.6,1.8-0.4c0.3,0.1,0.5,0.2,0.7,0.3
			c0.6,0.2,1.1,0.4,1.6,0.6c1.3,0.5,1.5,1.5,1.5,2.1C68.9,119.6,68.9,119.9,68.9,120.2z M67.5,120.2L67.5,120.2L67.5,120.2z
			 M74.8,119.2L74.8,119.2L74.8,119.2z M65.7,119.2L65.7,119.2L65.7,119.2z M66.4,95.6L66.4,95.6L66.4,95.6z M70.2,114.9L70.2,114.9
			c-1.9,0-3.6-0.7-5-2.1c-1.3-1.3-2.1-3.1-2.1-5c0-3.9,3.2-7,7-7l0,0c1.9,0,3.6,0.7,4.9,2.1c1.3,1.3,2,3.1,2,5h-1.6H77
			C77.2,111.7,74.1,114.9,70.2,114.9z M70.2,104.1c-2.1,0-3.8,1.7-3.8,3.8c0,1,0.4,2,1.1,2.7s1.7,1.1,2.7,1.1l0,0
			c2.1,0,3.8-1.7,3.8-3.8c0-1-0.4-2-1.1-2.7S71.3,104.1,70.2,104.1L70.2,104.1z"/>
	</g>
	<g>
		<path class="st0" d="M90.3,98.7c-0.2,0-0.4,0-0.6-0.1c-0.9-0.3-1.7-0.6-2.6-1l-1.4-0.5c-0.2-0.1-0.4-0.2-0.4-0.3
			c-0.4-0.3-0.6-0.9-0.4-1.4l0.2-0.5c0.1-0.3,0.2-0.6,0.3-0.8c-0.2-0.2-0.3-0.3-0.5-0.5l-1.3,0.6c-0.3,0.1-0.6,0.2-0.9,0
			c-0.3-0.1-0.6-0.3-0.7-0.6l-1.9-4.2c-0.1-0.3-0.1-0.6,0-1c0.1-0.3,0.4-0.6,0.7-0.7l1.3-0.5v-0.7L80.7,86c-0.3-0.1-0.5-0.3-0.7-0.6
			c-0.1-0.3-0.1-0.6,0-0.9l1.6-4.3c0.1-0.3,0.3-0.5,0.6-0.7c0.3-0.1,0.6-0.1,0.9,0l1.4,0.5l0.5-0.5l-0.6-1.3c-0.1-0.3-0.1-0.6,0-0.9
			s0.3-0.6,0.6-0.7l4.2-1.9c0.3-0.1,0.6-0.1,0.9,0s0.5,0.4,0.7,0.7l0.6,1.3c0.2,0,0.5,0,0.7,0c0.1-0.3,0.2-0.6,0.3-0.9l0.2-0.5
			c0.1-0.3,0.3-0.5,0.6-0.7c0.3-0.1,0.6-0.1,0.9,0l4.3,1.6c0.6,0.2,1,0.9,0.7,1.6l-0.5,1.4c0.2,0.2,0.3,0.3,0.5,0.5l1.3-0.6
			c0.3-0.1,0.6-0.2,0.9,0c0.3,0.1,0.6,0.3,0.7,0.6l1.9,4.2c0.3,0.6,0,1.3-0.6,1.6c-0.1,0.1-0.3,0.1-0.4,0.2
			c-0.3,0.1-0.6,0.3-0.9,0.4c0,0.2,0,0.5,0,0.7c0.3,0.1,0.5,0.2,0.8,0.3l0.6,0.2c0.6,0.2,1,0.9,0.7,1.6l-1.6,4.3
			c-0.2,0.6-0.9,1-1.6,0.7l-0.5-0.2c-0.3-0.1-0.6-0.2-0.9-0.3c-0.1,0.2-0.3,0.3-0.5,0.5c0.1,0.3,0.3,0.5,0.4,0.8l0.2,0.5
			c0.1,0.3,0.2,0.6,0,0.9c-0.1,0.3-0.3,0.6-0.6,0.7l-4,1.6c-0.3,0.1-0.6,0.1-0.9,0s-0.6-0.3-0.7-0.6l-0.5-1.2c-0.2,0-0.5,0-0.7,0
			c-0.1,0.4-0.3,0.8-0.4,1.1c-0.1,0.2-0.2,0.7-0.8,0.9C90.7,98.7,90.5,98.7,90.3,98.7z M90.6,96.3L90.6,96.3L90.6,96.3z M87.7,95.2
			l0.4,0.1c0.6,0.2,1.1,0.4,1.7,0.6c0.1-0.3,0.2-0.6,0.3-0.8c0.2-0.5,0.7-1,1.3-1c0.5,0,1.1,0,1.7,0h0.6l0,0c0.5,0,0.9,0.3,1.1,0.7
			l0.4,0.8l1.9-0.9c-0.1-0.2-0.2-0.4-0.3-0.6c-0.4-0.7-0.2-1.4,0.3-2c0.4-0.4,0.7-0.7,1-1.1c0.5-0.6,1.2-0.8,1.9-0.5
			c0.2,0.1,0.5,0.2,0.7,0.3l0.7-2c-0.3-0.1-0.5-0.2-0.8-0.3c-0.7-0.2-1.1-0.8-1.1-1.6v-0.2c0-0.4,0-0.7,0-1c-0.2-1,0.3-1.8,1.3-2.2
			c0.1,0,0.3-0.1,0.4-0.2l-0.9-1.9l-0.9,0.4c-0.4,0.2-1,0.1-1.3-0.2l-0.4-0.4c-0.4-0.4-0.8-0.7-1.2-1.1c-0.4-0.3-0.5-0.9-0.4-1.4
			c0-0.2,0.1-0.4,0.2-0.6l0.2-0.5l-2-0.8c-0.1,0.3-0.2,0.5-0.3,0.8c-0.2,0.5-0.7,1-1.3,1c-0.5,0-1,0-1.6,0h-0.6l0,0
			c-0.5,0-0.9-0.3-1.1-0.7L89,77.5l-1.9,0.9l0.4,0.9c0.2,0.4,0.1,1-0.2,1.3l-1.6,1.7c-0.3,0.4-0.9,0.5-1.3,0.3l-1-0.4l-0.7,2l1,0.4
			c0.5,0.2,0.8,0.6,0.8,1.1l0.1,2.4c0,0.5-0.3,1-0.8,1.2l-0.9,0.4l0.8,1.9l0.9-0.4c0.4-0.2,1-0.1,1.4,0.2c0.2,0.1,0.3,0.3,0.5,0.4
			c0.3,0.3,0.7,0.6,1,0.9c0.8,0.7,0.7,1.5,0.5,1.9C87.8,94.8,87.8,95,87.7,95.2z M86.7,94.9L86.7,94.9L86.7,94.9z M101.4,86.4
			L101.4,86.4L101.4,86.4z M92.6,76.6L92.6,76.6L92.6,76.6z M92,92c-0.6,0-1.3-0.1-1.9-0.3c-1.4-0.5-2.4-1.5-3-2.8s-0.7-2.8-0.1-4.1
			c1-2.8,4.2-4.2,7-3.2c1.4,0.5,2.4,1.5,3,2.8s0.6,2.8,0.1,4.1C96.3,90.7,94.2,92,92,92z M92,83.6c-1.2,0-2.4,0.7-2.8,1.9
			c-0.3,0.7-0.2,1.6,0.1,2.3c0.3,0.7,0.9,1.3,1.7,1.6c1.5,0.6,3.3-0.2,3.8-1.7l1.1,0.4l-1.1-0.4c0.3-0.7,0.3-1.6-0.1-2.3
			c-0.3-0.7-0.9-1.3-1.7-1.6C92.7,83.7,92.4,83.6,92,83.6z"/>
	</g>
</g>
</svg>
