<?xml version="1.0" encoding="utf-8"?>
<!-- Generator: Adobe Illustrator 25.3.1, SVG Export Plug-In . SVG Version: 6.00 Build 0)  -->
<svg version="1.1" id="Capa_1" xmlns="http://www.w3.org/2000/svg" xmlns:xlink="http://www.w3.org/1999/xlink" x="0px" y="0px"
	 viewBox="0 0 150 203.8" style="enable-background:new 0 0 150 203.8;" xml:space="preserve">
<style type="text/css">
	.st0{fill:#D0B895;}
	.st1{fill:none;}
</style>
<g>
	<g>
		<path class="st0" d="M107.4,153.3H67.8v-7.2c-0.2-0.5-0.7-1-1.2-1.2c-0.4-0.2-1.1-0.4-2,0h-0.1l-8.7,2.9c-2.4,1.1-5.1,0.9-7.3-0.3
			c-2.3-1.3-3.8-3.6-4-6.3L43,124.8c-0.1-0.3-0.3-0.6-0.6-0.8c-0.3-0.2-0.7-0.2-1-0.1l-2.1,0.6H39c-2.2-0.2-4.1-1.5-5-3.5
			c-1-2-0.8-4.3,0.4-6.1l7.2-11c-0.1-2.9-0.2-15.5,8.4-26.8c4.2-5.5,13.6-14.8,29.6-14.8c17.7,0,25.9,7.6,30.5,13.3
			c11.5,14.1,4.5,33.6,1.1,39.4c-1,1.6-2,3.1-3.1,4.6c-3.2,4.5-5.7,8.1-4.1,13.6c1.3,4.3,2.9,17.7,3,18.3L107.4,153.3z M71.1,150.1
			h32.7c-0.5-3.9-1.7-12.8-2.6-16c-2.1-7,1.3-11.8,4.6-16.4c1-1.4,2-2.8,2.9-4.4c1.4-2.4,3.9-8.3,4.6-15.4c0.8-8.1-1.1-15-5.4-20.3
			c-4.2-5.2-11.7-12.1-28-12.1c-14.6,0-23.2,8.5-27,13.5c-8.8,11.6-7.7,25-7.7,25.1v0.6l-7.8,11.9c-0.6,0.9-0.7,2-0.2,2.9
			c0.4,0.9,1.2,1.5,2.1,1.6l1.5-0.4c1.2-0.4,2.5-0.2,3.6,0.5s1.8,1.7,2.1,3v0.1l1.5,16.5c0.1,1.6,1,3,2.4,3.8s3,0.9,4.5,0.2l0.2-0.1
			l8.7-2.9c1.5-0.6,3.1-0.5,4.5,0.1c1.4,0.7,2.5,1.9,2.9,3.3l0.1,0.2v4.7H71.1z"/>
	</g>
	<g>
		<path class="st0" d="M93.8,105c-2.1,0-3.3-0.9-4-1.6c-0.5-0.6-0.8-1.2-0.9-1.8h-4.6c-0.9,0-1.6-0.7-1.6-1.6v-6.8
			c0-0.4,0.2-0.9,0.5-1.2c0.3-0.3,0.8-0.5,1.2-0.4c0.2,0,0.9,0,1.3-0.4c0.1-0.1,0.4-0.3,0.4-1.2c0-1-0.4-1.3-0.7-1.5
			c-0.5-0.3-1-0.3-1.1-0.3l0,0c-0.4,0-0.8-0.2-1.1-0.5c-0.3-0.3-0.5-0.7-0.5-1.1V80c0-0.9,0.7-1.6,1.6-1.6h19.3
			c0.9,0,1.6,0.7,1.6,1.6v20c0,0.9-0.7,1.6-1.6,1.6h-5c-0.1,0.6-0.4,1.2-0.8,1.8C97.2,104.2,96,105,93.8,105z M92,100.3
			c0,0-0.1,0.7,0.3,1.1c0.3,0.4,1,0.4,1.5,0.4c0.4,0,1.1-0.1,1.4-0.4s0.2-0.9,0.2-1.1c-0.1-0.5,0-1,0.3-1.3c0.3-0.4,0.8-0.6,1.2-0.6
			h5V81.6h-16v3.7c0.7,0.2,1.4,0.5,2,1.2c0.6,0.6,1.4,1.7,1.4,3.5s-0.8,2.9-1.4,3.5s-1.4,0.9-2,1.1v3.8h4.5c0.5,0,0.9,0.2,1.2,0.6
			C91.9,99.3,92.1,99.8,92,100.3L92,100.3z"/>
	</g>
	<g>
		<path class="st1" d="M61.8,106.7c0.1-0.6,0.4-1.2,0.8-1.8c0.6-0.7,1.7-1.6,3.9-1.6c2.1,0,3.3,0.9,4,1.6c0.5,0.6,0.8,1.2,0.9,1.8
			h3.3v-4.2c0-0.9,0.7-1.6,1.6-1.6c0.6,0,1.3-0.4,1.3-1.8c0-1.9-0.8-2.2-1.3-2.2l0,0c-0.6,0-1.2-0.4-1.5-1c-0.1-0.2-0.1-0.4-0.1-0.6
			v-4.8H58.1v16.3h3.7V106.7z"/>
		<path class="st1" d="M71.3,117.1c0-2.1,0.9-3.3,1.6-4c0.6-0.5,1.2-0.8,1.8-0.9v-2.3H70c-0.5,0-0.9-0.2-1.2-0.6
			c-0.3-0.4-0.4-0.8-0.4-1.3l0,0c0,0,0.1-0.7-0.3-1.1c-0.3-0.4-1-0.4-1.5-0.4c-0.4,0-1.1,0.1-1.4,0.4S65,107.8,65,108
			c0.1,0.5,0,1-0.3,1.3c-0.3,0.4-0.8,0.6-1.2,0.6h-5.2v16h16.5v-4.1c-0.6-0.1-1.2-0.4-1.8-0.8C72.1,120.4,71.3,119.3,71.3,117.1z"/>
		<path class="st1" d="M89.5,111.7c-0.6,0.7-1.7,1.6-3.9,1.6c-2.1,0-3.3-0.9-4-1.6c-0.5-0.6-0.8-1.2-0.9-1.8h-2.8v3.8
			c0,0.5-0.2,0.9-0.6,1.2c-0.4,0.3-0.8,0.4-1.3,0.4c0,0,0,0-0.1,0c-0.2,0-0.7,0-1,0.3c-0.4,0.3-0.4,1-0.4,1.5c0,0.4,0.1,1.1,0.4,1.4
			s0.9,0.2,1.1,0.2c0.5-0.1,1,0,1.3,0.3c0.4,0.3,0.6,0.8,0.6,1.2v5.7h15.8v-16h-3.4C90.2,110.5,89.9,111.2,89.5,111.7z"/>
		<path class="st0" d="M95.3,106.7h-6.6c-0.5,0-0.9,0.2-1.2,0.6c-0.3,0.4-0.4,0.9-0.3,1.3c0,0.2,0.1,0.8-0.2,1.1
			c-0.3,0.3-1,0.4-1.4,0.4c-0.5,0-1.2-0.1-1.5-0.4c-0.4-0.4-0.3-1.1-0.3-1.1l0,0c0.1-0.5-0.1-0.9-0.4-1.3s-0.7-0.6-1.2-0.6H78v-2.9
			c1.5-0.6,2.9-2,2.9-4.7c0-1.8-0.5-3.2-1.5-4.1c-0.5-0.5-1-0.7-1.4-0.9v-5.2c0-0.9-0.7-1.6-1.6-1.6H56.5c-0.9,0-1.6,0.7-1.6,1.6
			v38.8c0,0.9,0.7,1.6,1.6,1.6h38.8c0.9,0,1.6-0.7,1.6-1.6v-19.3C96.9,107.4,96.2,106.7,95.3,106.7z M74.7,90.4v4.8
			c0,0.2,0,0.4,0.1,0.6c0.3,0.6,0.8,1,1.5,1l0,0c0.5,0,1.3,0.3,1.3,2.2c0,1.4-0.7,1.8-1.3,1.8c-0.9,0-1.6,0.7-1.6,1.6v4.2h-3.3
			c-0.1-0.6-0.4-1.3-0.9-1.8c-0.6-0.7-1.8-1.6-4-1.6s-3.3,0.9-3.9,1.6c-0.5,0.6-0.7,1.2-0.8,1.8h-3.6V90.4H74.7z M74.7,126H58.1v-16
			h5.2c0.5,0,0.9-0.2,1.2-0.6s0.4-0.9,0.3-1.3c0-0.2-0.1-0.8,0.2-1.1c0.3-0.3,1-0.4,1.4-0.4c0.5,0,1.2,0.1,1.5,0.4
			c0.4,0.4,0.3,1.1,0.3,1.1l0,0c-0.1,0.5,0.1,0.9,0.4,1.3s0.7,0.6,1.2,0.6h4.7v2.3c-0.6,0.1-1.3,0.4-1.8,0.9c-0.7,0.6-1.6,1.8-1.6,4
			s0.9,3.3,1.6,3.9c0.6,0.5,1.2,0.7,1.8,0.8v4.1C74.5,126,74.7,126,74.7,126z M93.7,126H77.9v-5.7c0-0.5-0.2-0.9-0.6-1.2
			c-0.4-0.3-0.9-0.4-1.3-0.3c-0.2,0-0.8,0.1-1.1-0.2c-0.3-0.3-0.4-1-0.4-1.4c0-0.5,0.1-1.2,0.4-1.5s0.8-0.3,1-0.3c0.1,0,0.1,0,0.1,0
			c0.5,0.1,0.9-0.1,1.3-0.4s0.6-0.7,0.6-1.2V110h2.8c0.1,0.6,0.4,1.3,0.9,1.8c0.6,0.7,1.8,1.6,4,1.6s3.3-0.9,3.9-1.6
			c0.5-0.6,0.7-1.2,0.8-1.8h3.4L93.7,126L93.7,126z"/>
	</g>
</g>
</svg>
