<?xml version="1.0" encoding="utf-8"?>
<!-- Generator: Adobe Illustrator 25.3.1, SVG Export Plug-In . SVG Version: 6.00 Build 0)  -->
<svg version="1.1" id="Capa_1" xmlns="http://www.w3.org/2000/svg" xmlns:xlink="http://www.w3.org/1999/xlink" x="0px" y="0px"
	 viewBox="0 0 150 203.8" style="enable-background:new 0 0 150 203.8;" xml:space="preserve">
<style type="text/css">
	.st0{fill:#D0B895;}
</style>
<g>
	<g>
		<path class="st0" d="M86.6,127.5H62.8c-0.4,0-0.8-0.2-1.1-0.4c-0.3-0.3-0.4-0.7-0.4-1.1c0-3.9-0.5-14.7-2.9-18.2
			c-0.4-0.6-0.8-1.1-1.2-1.6c-2.9-4-6-8.2-6-17.1c0-6.3,2.6-12.6,6.9-16.9c4.2-4.2,10-6.3,16.7-6.2C90,66.2,97.3,77.5,97.9,88.5
			c0.4,7.7-2.6,12.4-5.2,16.5c-0.7,1.1-1.3,2.1-1.9,3.1c-2.1,3.9-2.6,14.2-2.6,17.9C88.1,126.8,87.5,127.5,86.6,127.5z M64.3,124.4
			h20.9c0.1-3.8,0.6-13.5,2.9-17.8c0.6-1.1,1.3-2.2,2-3.3c2.5-3.9,5.1-8,4.7-14.7c-0.4-8.9-6-19.5-20.1-19.7
			c-5.9-0.1-10.8,1.7-14.5,5.4c-3.8,3.7-6,9.2-6,14.7c0,8,2.6,11.5,5.4,15.3c0.4,0.6,0.8,1.1,1.2,1.7
			C63.7,110.1,64.2,120.4,64.3,124.4z"/>
	</g>
	<g>
		<path class="st0" d="M71.5,118.7c-0.8,0-1.4-0.6-1.5-1.4l-3.2-30.7c0-0.4,0.1-0.9,0.4-1.2c0.3-0.3,0.7-0.5,1.1-0.5h12.4
			c0.4,0,0.8,0.2,1.1,0.5c0.3,0.3,0.4,0.7,0.4,1.2l-2.7,30.7c-0.1,0.8-0.8,1.5-1.6,1.4c-0.8-0.1-1.4-0.8-1.4-1.6L79,88h-9l3,29.1
			c0.1,0.8-0.5,1.6-1.3,1.7C71.6,118.7,71.5,118.7,71.5,118.7z"/>
	</g>
	<g>
		<path class="st0" d="M84.1,135.3H65.5c-0.8,0-1.5-0.7-1.5-1.5s0.7-1.5,1.5-1.5h18.6c0.8,0,1.5,0.7,1.5,1.5S84.9,135.3,84.1,135.3z
			"/>
	</g>
	<g>
		<path class="st0" d="M44,91.2h-8.8c-0.8,0-1.5-0.7-1.5-1.5s0.7-1.5,1.5-1.5H44c0.8,0,1.5,0.7,1.5,1.5S44.8,91.2,44,91.2z"/>
	</g>
	<g>
		<path class="st0" d="M74.5,62.4c-0.8,0-1.5-0.7-1.5-1.5v-9.2c0-0.8,0.7-1.5,1.5-1.5s1.5,0.7,1.5,1.5v9.2
			C76,61.7,75.3,62.4,74.5,62.4z"/>
	</g>
	<g>
		<path class="st0" d="M114.8,91.2h-9.2c-0.8,0-1.5-0.7-1.5-1.5s0.7-1.5,1.5-1.5h9.2c0.8,0,1.5,0.7,1.5,1.5S115.7,91.2,114.8,91.2z"
			/>
	</g>
	<g>
		<path class="st0" d="M97.9,68.9c-0.4,0-0.8-0.1-1.1-0.4c-0.6-0.6-0.6-1.5,0-2.1l6.2-6.2c0.6-0.6,1.6-0.6,2.1,0
			c0.6,0.6,0.6,1.5,0,2.1l-6.2,6.2C98.6,68.8,98.3,68.9,97.9,68.9z"/>
	</g>
	<g>
		<path class="st0" d="M46,119.8c-0.4,0-0.8-0.1-1.1-0.4c-0.6-0.6-0.6-1.5,0-2.1l6.2-6.2c0.6-0.6,1.6-0.6,2.1,0
			c0.6,0.6,0.6,1.5,0,2.1l-6.2,6.2C46.8,119.7,46.4,119.8,46,119.8z"/>
	</g>
	<g>
		<path class="st0" d="M52.2,68.9c-0.4,0-0.8-0.1-1.1-0.4L45,62.2c-0.6-0.6-0.6-1.5,0-2.1s1.6-0.6,2.1,0l6.2,6.2
			c0.6,0.6,0.6,1.5,0,2.1C53,68.8,52.6,68.9,52.2,68.9z"/>
	</g>
	<g>
		<path class="st0" d="M104.1,119.8c-0.4,0-0.8-0.1-1.1-0.4l-6.2-6.2c-0.6-0.6-0.6-1.5,0-2.1s1.6-0.6,2.1,0l6.2,6.2
			c0.6,0.6,0.6,1.5,0,2.1C104.9,119.7,104.5,119.8,104.1,119.8z"/>
	</g>
	<g>
		<path class="st0" d="M81,141.7H68.7c-2.6,0-4.7-2.1-4.7-4.7v-2.8c-0.8-1.2-2.8-4.6-2.8-8.6c0-0.8,0.7-1.5,1.5-1.5l0,0
			c0.8,0,1.5,0.7,1.5,1.5c0,3.9,2.4,7.2,2.5,7.2c0.2,0.3,0.3,0.6,0.3,0.9v3.2c0,0.9,0.8,1.7,1.7,1.7H81c0.9,0,1.6-0.7,1.6-1.6v-0.1
			l0.2-3.3c0-0.3,0.1-0.6,0.3-0.9c0.1-0.1,1.9-2.5,1.9-6.8c0-0.8,0.7-1.5,1.5-1.5s1.5,0.7,1.5,1.5c0,4.4-1.6,7.3-2.3,8.3l-0.2,2.9
			C85.6,139.6,83.5,141.7,81,141.7z"/>
	</g>
</g>
</svg>
