<?xml version="1.0" encoding="utf-8"?>
<!-- Generator: Adobe Illustrator 25.3.1, SVG Export Plug-In . SVG Version: 6.00 Build 0)  -->
<svg version="1.1" id="Capa_1" xmlns="http://www.w3.org/2000/svg" xmlns:xlink="http://www.w3.org/1999/xlink" x="0px" y="0px"
	 viewBox="0 0 150 203.8" style="enable-background:new 0 0 150 203.8;" xml:space="preserve">
<style type="text/css">
	.st0{fill:#D0B895;}
	.st1{fill:#FFFFFF;}
</style>
<g>
	<g>
		<path class="st0" d="M60.7,119.2c-0.3,0-0.7-0.1-1-0.3c-0.6-0.3-0.9-1-0.9-1.6V79.7c0-0.7,0.3-1.3,0.9-1.6c0.6-0.3,1.3-0.4,1.9,0
			l35.6,19c0.6,0.3,1,1,1,1.7s-0.4,1.3-1,1.7L61.6,119C61.3,119.2,61,119.2,60.7,119.2z M62.6,82.8v31.5l29.7-15.6L62.6,82.8z"/>
	</g>
	<g>
		<path class="st0" d="M118.6,134.5H31.4c-3.2,0-5.9-2.6-5.9-5.9V68.4c0-3.2,2.6-5.9,5.9-5.9h87.3c3.2,0,5.9,2.6,5.9,5.9v60.2
			C124.5,131.8,121.9,134.5,118.6,134.5z M31.4,66.3c-1.2,0-2.1,0.9-2.1,2.1v60.2c0,1.2,0.9,2.1,2.1,2.1h87.3c1.2,0,2.1-0.9,2.1-2.1
			V68.4c0-1.2-0.9-2.1-2.1-2.1H31.4z"/>
	</g>
	<g>
		<path class="st0" d="M120.6,149.8H33.2c-1,0-1.9-0.8-1.9-1.9c0-1,0.8-1.9,1.9-1.9h87.4c1,0,1.9,0.8,1.9,1.9
			C122.5,148.9,121.7,149.8,120.6,149.8z"/>
	</g>
	<g>
		<circle class="st1" cx="92.2" cy="147.6" r="4.1"/>
		<path class="st0" d="M92.2,153.6c-3.3,0-6-2.7-6-6s2.7-6,6-6s6,2.7,6,6S95.6,153.6,92.2,153.6z M92.2,145.3c-1.2,0-2.3,1-2.3,2.3
			s1,2.3,2.3,2.3s2.3-1,2.3-2.3S93.5,145.3,92.2,145.3z"/>
	</g>
</g>
</svg>
