<?xml version="1.0" encoding="utf-8"?>
<!-- Generator: Adobe Illustrator 25.3.1, SVG Export Plug-In . SVG Version: 6.00 Build 0)  -->
<svg version="1.1" id="Capa_1" xmlns="http://www.w3.org/2000/svg" xmlns:xlink="http://www.w3.org/1999/xlink" x="0px" y="0px"
	 viewBox="0 0 56 31" style="enable-background:new 0 0 56 31;" xml:space="preserve">
<style type="text/css">
	.st0{fill:#691C32;}
	.st1{fill:#FFFFFF;}
	.st2{fill:#D0B895;}
</style>
<g>
	<circle class="st0" cx="16.1" cy="15.5" r="15"/>
	<g>
		<path class="st1" d="M6,11v10.5c0,0.5,0.4,1,1,1h8v-0.1c0-0.5-0.4-1-1-1H7.9c-0.5,0-1-0.4-1-1v-9.5c0-0.3-0.2-0.5-0.5-0.5l0,0
			C6.2,10.6,6,10.8,6,11z"/>
	</g>
	<path class="st1" d="M13.1,8H8.3C8,8,7.8,8.2,7.8,8.5V20c0,0.3,0.2,0.5,0.5,0.5H15c0.3,0,0.5-0.2,0.5-0.5v-9.6
		C15.5,9.1,14.4,8,13.1,8z"/>
	<g>
		<path class="st1" d="M26,11v10.5c0,0.5-0.4,1-1,1h-8v-0.1c0-0.5,0.4-1,1-1h6.1c0.5,0,1-0.4,1-1v-9.5c0-0.3,0.2-0.5,0.5-0.5l0,0
			C25.7,10.6,26,10.8,26,11z"/>
	</g>
	<path class="st1" d="M23.7,8h-4.8c-1.4,0-2.5,1.1-2.5,2.5V20c0,0.3,0.2,0.5,0.5,0.5h6.8c0.3,0,0.5-0.2,0.5-0.5V8.5
		C24.1,8.2,23.9,8,23.7,8z"/>
</g>
<g>
	<circle class="st2" cx="16.1" cy="15.5" r="15"/>
	<path class="st1" d="M26.5,15.5c0-5.7-4.7-10.4-10.4-10.5l0,0l0,0l0,0C10.3,5,5.6,9.7,5.6,15.5S10.3,26,16.1,26l0,0l0,0l0,0
		C21.9,25.9,26.5,21.2,26.5,15.5z M6.6,16h4c0,1.4,0.2,2.8,0.5,4H7.7C7.1,18.8,6.7,17.4,6.6,16z M25.5,15h-4c0-1.4-0.2-2.8-0.5-4
		h3.3C25.1,12.2,25.5,13.6,25.5,15z M20.6,15h-4v-4H20C20.4,12.2,20.5,13.6,20.6,15z M16.6,10V6.1c1.3,0.3,2.4,1.8,3.1,3.9H16.6z
		 M15.6,6.1V10h-3.1C13.2,7.9,14.3,6.4,15.6,6.1z M15.6,11v4h-4c0-1.4,0.2-2.8,0.6-4H15.6z M10.6,15h-4c0.1-1.4,0.5-2.8,1.1-4h3.4
		C10.8,12.2,10.7,13.6,10.6,15z M11.6,16h4v4h-3.4C11.8,18.8,11.7,17.4,11.6,16z M15.6,21v3.9c-1.3-0.3-2.4-1.8-3.1-3.9H15.6z
		 M16.6,24.9V21h3.1C19,23.1,17.9,24.6,16.6,24.9z M16.6,20v-4h4c0,1.4-0.2,2.8-0.6,4H16.6z M21.6,16h4c-0.1,1.4-0.5,2.8-1.1,4h-3.3
		C21.4,18.8,21.5,17.4,21.6,16z M23.8,10h-3c-0.5-1.5-1.1-2.7-1.9-3.6C20.9,7.1,22.6,8.3,23.8,10z M13.3,6.4
		c-0.8,0.9-1.5,2.1-1.9,3.6H8.3C9.6,8.3,11.3,7,13.3,6.4z M8.3,21h3.1c0.5,1.5,1.1,2.7,1.9,3.6C11.3,24,9.6,22.7,8.3,21z M18.9,24.5
		c0.8-0.9,1.4-2.1,1.9-3.6h3C22.6,22.7,20.9,23.9,18.9,24.5z"/>
</g>
</svg>
